<svg width="40" height="40" viewBox="0 0 40 40" fill="none" xmlns="http://www.w3.org/2000/svg">
  <path d="M7.54688 26.1324C7.54688 23.8537 7.54688 22.7144 7.99033 21.8441C8.3804 21.0785 9.00282 20.4561 9.76838 20.066C10.6387 19.6226 11.778 19.6226 14.0567 19.6226H25.4488C27.7275 19.6226 28.8668 19.6226 29.7371 20.066C30.5027 20.4561 31.1251 21.0785 31.5152 21.8441C31.9586 22.7144 31.9586 23.8537 31.9586 26.1324V27.4182C31.9586 29.6968 31.9586 30.8361 31.5152 31.7064C31.1251 32.472 30.5027 33.0944 29.7371 33.4845C28.8668 33.928 27.7275 33.928 25.4488 33.928H22.0363C21.1899 33.928 20.7667 33.928 20.362 34.011C20.0029 34.0847 19.6554 34.2066 19.3289 34.3734C18.961 34.5614 18.6305 34.8257 17.9696 35.3545L14.7345 37.9426C14.1702 38.394 13.888 38.6198 13.6505 38.62C13.444 38.6202 13.2487 38.5263 13.1198 38.365C12.9717 38.1794 12.9717 37.818 12.9717 37.0954V33.928C11.7105 33.928 11.0799 33.928 10.5625 33.7893C9.15841 33.4131 8.06172 32.3164 7.68551 30.9124C7.54688 30.395 7.54688 29.7644 7.54688 28.5031V26.1324Z" fill="#CAD1EA" stroke="#1C2135" stroke-linecap="round" stroke-linejoin="round"/>
  <path d="M10.707 25.5723H17.4881M10.707 28.0548H21.5567" stroke="#1C2135" stroke-linecap="round" stroke-linejoin="round"/>
  <path d="M19.6224 1.50952L21.1408 5.45751C21.3537 6.01089 21.4601 6.28758 21.6256 6.52032C21.7722 6.72659 21.9525 6.90681 22.1587 7.05349C22.3915 7.21898 22.6682 7.3254 23.2215 7.53823L27.1695 9.05669L23.2215 10.5751C22.6682 10.788 22.3915 10.8944 22.1587 11.0599C21.9525 11.2066 21.7722 11.3868 21.6256 11.5931C21.4601 11.8258 21.3537 12.1025 21.1408 12.6559L19.6224 16.6039L18.1039 12.6559C17.8911 12.1025 17.7846 11.8258 17.6192 11.5931C17.4725 11.3868 17.2923 11.2066 17.086 11.0599C16.8533 10.8944 16.5766 10.788 16.0232 10.5751L12.0752 9.05669L16.0232 7.53823C16.5766 7.3254 16.8533 7.21898 17.086 7.05349C17.2923 6.90681 17.4725 6.72659 17.6192 6.52032C17.7846 6.28758 17.8911 6.01089 18.1039 5.45751L19.6224 1.50952Z" fill="#F8EFD0" stroke="black" stroke-linecap="round" stroke-linejoin="round"/>
  <path d="M31.6982 9.05664L32.6093 11.4254C32.737 11.7575 32.8009 11.9235 32.9001 12.0631C32.9882 12.1869 33.0963 12.295 33.22 12.383C33.3597 12.4823 33.5257 12.5462 33.8577 12.6739L36.2265 13.5849L33.8577 14.496C33.5257 14.6237 33.3597 14.6876 33.22 14.7869C33.0963 14.8749 32.9882 14.983 32.9001 15.1068C32.8009 15.2464 32.737 15.4124 32.6093 15.7445L31.6982 18.1132L30.7871 15.7445C30.6594 15.4124 30.5956 15.2464 30.4963 15.1068C30.4083 14.983 30.3002 14.8749 30.1764 14.7869C30.0368 14.6876 29.8707 14.6237 29.5387 14.496L27.1699 13.5849L29.5387 12.6739C29.8707 12.5462 30.0368 12.4823 30.1764 12.383C30.3002 12.295 30.4083 12.1869 30.4963 12.0631C30.5956 11.9235 30.6594 11.7575 30.7871 11.4254L31.6982 9.05664Z" fill="#F8EFD0" stroke="black" stroke-linecap="round" stroke-linejoin="round"/>
  <path d="M7.54686 9.05664L8.45793 11.4254C8.58564 11.7575 8.64949 11.9235 8.74878 12.0631C8.83678 12.1869 8.94492 12.295 9.06868 12.383C9.20832 12.4823 9.37434 12.5462 9.70637 12.6739L12.0752 13.5849L9.70637 14.496C9.37434 14.6237 9.20832 14.6876 9.06868 14.7869C8.94492 14.8749 8.83678 14.983 8.74878 15.1068C8.64949 15.2464 8.58564 15.4124 8.45793 15.7445L7.54686 18.1132L6.63578 15.7445C6.50808 15.4124 6.44423 15.2464 6.34493 15.1068C6.25693 14.983 6.1488 14.8749 6.02503 14.7869C5.88539 14.6876 5.71938 14.6237 5.38735 14.496L3.01855 13.5849L5.38735 12.6739C5.71938 12.5462 5.88539 12.4823 6.02503 12.383C6.1488 12.295 6.25693 12.1869 6.34493 12.0631C6.44423 11.9235 6.50808 11.7575 6.63578 11.4254L7.54686 9.05664Z" fill="#F8EFD0" stroke="black" stroke-linecap="round" stroke-linejoin="round"/>
</svg>
