<svg width="20" height="20" viewBox="0 0 20 20" fill="none" xmlns="http://www.w3.org/2000/svg">
<g clip-path="url(#clip0_2470_552)">
<path fill-rule="evenodd" clip-rule="evenodd" d="M15.4164 0.904785L19.0949 4.5833L10.5366 13.1415C10.5201 13.158 10.5038 13.1744 10.4876 13.1906C10.248 13.4306 10.0368 13.6422 9.78223 13.7982C9.55855 13.9353 9.31469 14.0363 9.0596 14.0976C8.76923 14.1673 8.47027 14.167 8.13119 14.1667C8.10824 14.1667 8.0851 14.1666 8.06177 14.1666H5.83299V11.9379C5.83299 11.9146 5.83296 11.8914 5.83294 11.8685C5.83263 11.5294 5.83235 11.2304 5.90206 10.9401C5.9633 10.685 6.06431 10.4411 6.20139 10.2174C6.35742 9.96281 6.56901 9.75161 6.809 9.51206C6.82524 9.49585 6.84162 9.47951 6.85811 9.46301L15.4164 0.904785ZM15.4163 3.26182L8.03662 10.6415C7.72032 10.9578 7.662 11.0237 7.62245 11.0883C7.57676 11.1628 7.54309 11.2441 7.52268 11.3291C7.50501 11.4027 7.49965 11.4906 7.49965 11.9379V12.5H8.06177C8.50909 12.5 8.59692 12.4946 8.67052 12.477C8.75555 12.4565 8.83684 12.4229 8.9114 12.3772C8.97594 12.3376 9.04183 12.2793 9.35813 11.963L16.7378 4.58332L15.4163 3.26182ZM1.66634 2.49998V3.33332H0.833008V2.49998H1.66634ZM2.49967 4.16665H9.99967V2.49998H1.66634V3.33332C0.833008 3.33332 0.833008 3.33323 0.833008 3.33332V19.1666H1.66634V18.3333C1.66634 19.1666 1.66625 19.1666 1.66634 19.1666H17.4997V18.3333V9.99998H15.833V17.5H2.49967V4.16665Z" fill="white"/>
</g>
<defs>
<clipPath id="clip0_2470_552">
<rect width="20" height="20" fill="white"/>
</clipPath>
</defs>
</svg>
