<svg width="76" height="50" viewBox="0 0 76 50" fill="none" xmlns="http://www.w3.org/2000/svg">
<g clip-path="url(#clip0_286_1743)">
<path d="M50.0259 32.7948L34.6045 6.29253L45.6832 0L64.8596 32.7948H50.0259Z" fill="#949FC5"/>
<path d="M8.9502 29.0816L20.0289 22.7466L25.8908 32.7948H11.1L8.9502 29.0816Z" fill="#949FC5"/>
<path d="M30.6919 49.7022H33.845V37.0889H30.6919V49.7022Z" fill="#949FC5"/>
<path d="M70.2059 50C66.6802 50 64.559 48.2001 64.4443 45.6632H67.7694C67.7694 46.4569 68.271 47.619 70.4208 47.6615C71.8541 47.6615 72.5277 46.8254 72.5277 46.2018C72.4417 45.2097 71.1804 45.1247 69.8332 44.9121C68.486 44.6995 67.3394 44.4586 66.5082 44.0334C65.4476 43.4949 64.731 42.3327 64.731 41.0005C64.731 38.7471 66.7088 36.9614 70.0052 36.9614C73.2013 36.9614 75.2221 38.6196 75.4371 41.0856H72.2267C72.198 40.4195 72.069 39.3707 70.1772 39.3707C68.9016 39.3707 68.056 39.6258 67.9844 40.5045C67.9844 41.7942 70.6358 41.7092 72.6996 42.2477C74.6775 42.7437 75.9387 43.9626 75.9387 45.6632C75.9387 48.7953 73.3733 50 70.2059 50Z" fill="#949FC5"/>
<path d="M21.9351 17.8287L33.0138 11.5078L45.4397 32.7946H33.845V35.9126H30.692V32.7805L21.9351 17.8287Z" fill="#949FC5"/>
<path fill-rule="evenodd" clip-rule="evenodd" d="M22.2219 49.9996C18.5529 49.9996 15.5718 47.0376 15.5718 43.452C15.5718 39.8239 18.5529 36.9611 22.2219 36.9611C23.6121 36.9611 24.8733 37.3296 25.9769 38.0807V32.7944H29.13V49.702H25.9769V48.8659C24.8733 49.5745 23.6121 49.9996 22.2219 49.9996ZM18.5959 43.452C18.5959 45.4078 20.287 47.0376 22.3079 47.0376C24.2857 47.0376 25.9769 45.4078 25.9769 43.452C25.9769 41.4962 24.2857 39.8239 22.3079 39.8239C20.287 39.8239 18.5959 41.4962 18.5959 43.452Z" fill="#949FC5"/>
<path fill-rule="evenodd" clip-rule="evenodd" d="M45.5257 32.7944H48.6358V49.702H45.5257V48.8659C44.4651 49.5745 43.1609 49.9996 41.7277 49.9996C38.1017 49.9996 35.1206 47.0376 35.1206 43.452C35.1206 39.8239 38.1017 36.9611 41.7277 36.9611C43.1609 36.9611 44.4222 37.3296 45.5257 38.0807V32.7944ZM38.1877 43.452C38.1877 45.4078 39.8789 47.0376 41.8137 47.0376C43.8345 47.0376 45.5257 45.4078 45.5257 43.452C45.5257 41.4962 43.8345 39.8239 41.8137 39.8239C39.8789 39.8239 38.1877 41.4962 38.1877 43.452Z" fill="#949FC5"/>
<path fill-rule="evenodd" clip-rule="evenodd" d="M56.3034 50C52.6917 50 49.6963 47.0379 49.6963 43.4524C49.6963 39.8242 52.6917 36.9614 56.3034 36.9614C57.6936 36.9614 58.9978 37.3299 60.0584 38.081V37.0748H63.2115V49.7023H60.0584V48.8662C58.9978 49.5748 57.7366 50 56.3034 50ZM52.7634 43.4524C52.7634 45.4081 54.4546 47.0379 56.4324 47.0379C58.4102 47.0379 60.0584 45.4081 60.0584 43.4524C60.0584 41.4966 58.4102 39.8242 56.4324 39.8242C54.4546 39.8242 52.7634 41.4966 52.7634 43.4524Z" fill="#949FC5"/>
<path fill-rule="evenodd" clip-rule="evenodd" d="M3.97689 43.4524C3.97689 45.4081 5.66808 47.0379 7.64591 47.0379C9.66674 47.0379 11.3579 45.4081 11.3579 43.4524C11.3579 41.4966 9.66674 39.8242 7.64591 39.8242C5.66808 39.8242 3.97689 41.4966 3.97689 43.4524ZM7.55992 50C3.93389 50 0.938477 47.0379 0.938477 43.4524C0.938477 39.8242 3.93389 36.9614 7.55992 36.9614C8.95013 36.9614 10.2544 37.3299 11.3579 38.081V37.0748H14.468V49.7023H11.3579V48.8662C10.2974 49.5748 8.99313 50 7.55992 50Z" fill="#949FC5"/>
</g>
<defs>
<clipPath id="clip0_286_1743">
<rect width="75" height="50" fill="white" transform="translate(0.938477)"/>
</clipPath>
</defs>
</svg>
