<svg width="188" height="50" viewBox="0 0 188 50" fill="none" xmlns="http://www.w3.org/2000/svg">
<g clip-path="url(#clip0_286_1756)">
<path fill-rule="evenodd" clip-rule="evenodd" d="M65.3311 36.4989V33.6877L75.8635 23.8483H68.4742V25.7736H65.4971V21.1552H79.825V23.9782L69.3756 33.7585H77.0258V31.7859H80.0029V36.4989H65.3311ZM89.2425 36.8178C88.1632 36.8178 87.0957 36.6052 86.1112 36.1918C84.1779 35.3886 82.636 33.853 81.8295 31.9395C81.4143 30.9473 81.2008 29.896 81.2008 28.8211C81.2008 27.7462 81.4143 26.695 81.8295 25.7146C82.636 23.7892 84.1779 22.2655 86.1112 21.4623C87.0957 21.0489 88.1632 20.8362 89.2425 20.8362C90.3218 20.8362 91.3774 21.0489 92.3737 21.4623C94.3071 22.2655 95.849 23.7892 96.6555 25.7146C97.0706 26.695 97.2841 27.7581 97.2841 28.8211C97.2841 29.8842 97.0706 30.9473 96.6555 31.9395C95.849 33.853 94.3071 35.3886 92.3737 36.1918C91.3893 36.6052 90.3218 36.8178 89.2425 36.8178ZM89.2425 33.8648C89.8948 33.8648 90.5353 33.7349 91.1284 33.475C91.7333 33.227 92.267 32.849 92.7177 32.3765C93.1566 31.9159 93.5005 31.3843 93.7496 30.7937C94.2596 29.5417 94.2596 28.1242 93.7496 26.8722C93.5005 26.2816 93.1447 25.7382 92.7058 25.2775C92.2551 24.8169 91.7333 24.4507 91.1402 24.1908C90.5353 23.931 89.8948 23.7892 89.2306 23.7892C88.5664 23.7892 87.9259 23.931 87.321 24.1908C86.1468 24.7106 85.2217 25.6673 84.7472 26.8603C84.2491 28.1242 84.2491 29.5298 84.7472 30.7819C85.2217 31.9749 86.1468 32.9317 87.321 33.4632C87.9259 33.7231 88.5783 33.8648 89.2425 33.8648ZM106.583 36.8178C105.504 36.8178 104.436 36.6052 103.452 36.1918C101.518 35.3886 99.9765 33.853 99.17 31.9395C98.7549 30.9473 98.5414 29.896 98.5414 28.8211C98.5414 27.7462 98.7549 26.695 99.17 25.7146C99.9765 23.7892 101.518 22.2655 103.452 21.4623C104.448 21.0489 105.504 20.8362 106.583 20.8362C107.662 20.8362 108.73 21.0489 109.714 21.4623C111.648 22.2655 113.19 23.7892 113.996 25.7146C114.411 26.695 114.625 27.7581 114.625 28.8211C114.625 29.8842 114.411 30.9473 113.996 31.9395C113.19 33.853 111.648 35.3886 109.714 36.1918C108.73 36.6052 107.662 36.8178 106.583 36.8178ZM106.583 33.8648C107.235 33.8648 107.876 33.7349 108.481 33.475C109.074 33.227 109.619 32.849 110.058 32.3765C110.497 31.9159 110.841 31.3843 111.09 30.7937C111.612 29.5417 111.612 28.1242 111.09 26.8722C110.841 26.2816 110.485 25.7382 110.046 25.2775C109.608 24.8169 109.074 24.4507 108.481 24.1908C107.888 23.931 107.235 23.7892 106.571 23.7892C105.907 23.7892 105.266 23.931 104.662 24.1908C103.487 24.7106 102.562 25.6673 102.088 26.8603C101.59 28.1242 101.59 29.5298 102.088 30.7819C102.562 31.9749 103.487 32.9435 104.662 33.4632C105.266 33.7349 105.919 33.8648 106.583 33.8648ZM116.463 21.1552H119.523V22.927C119.986 22.2773 120.603 21.7576 121.326 21.4032C122.121 21.0134 123.01 20.8126 123.9 20.8362C125.142 20.8362 126.165 21.0725 126.972 21.545C127.778 22.0056 128.419 22.7025 128.822 23.5294C129.32 22.7143 130.02 22.0411 130.85 21.5686C131.775 21.0607 132.807 20.8126 133.851 20.8362C134.788 20.8126 135.725 20.978 136.603 21.2969C137.35 21.5686 138.014 22.0174 138.56 22.5962C139.082 23.1868 139.473 23.8955 139.698 24.6515C139.959 25.5138 140.09 26.4115 140.078 27.321V36.4989H136.887V27.4864C136.887 26.2969 136.611 25.3401 136.057 24.6161C135.503 23.8991 134.618 23.5412 133.4 23.5412C132.294 23.5412 131.408 23.892 130.744 24.5924C130.088 25.3012 129.759 26.3607 129.759 27.7699V36.4989H126.64V27.2856C126.64 26.1126 126.37 25.1949 125.833 24.5334C125.288 23.8719 124.422 23.5412 123.236 23.5412C122.05 23.5412 121.187 23.9074 120.531 24.6397C119.875 25.3638 119.547 26.4587 119.547 27.9234V36.4989H116.463V21.1552ZM141.976 16.5485C141.976 16.265 142.023 15.9815 142.13 15.7099C142.237 15.4382 142.391 15.2019 142.593 14.9893C142.794 14.7885 143.043 14.6232 143.304 14.5168C143.577 14.4105 143.862 14.3633 144.158 14.3633C144.443 14.3515 144.739 14.3987 145.024 14.5168C145.297 14.6232 145.546 14.7767 145.747 14.9893C145.949 15.2019 146.115 15.4382 146.222 15.7099C146.329 15.9815 146.376 16.265 146.364 16.5603C146.376 16.8438 146.329 17.1273 146.222 17.399C146.115 17.6706 145.949 17.9187 145.747 18.1195C145.546 18.3321 145.297 18.4975 145.024 18.6038C144.739 18.7101 144.443 18.7573 144.158 18.7455C143.862 18.7573 143.565 18.7101 143.304 18.6038C143.031 18.4857 142.782 18.3321 142.581 18.1195C142.379 17.9069 142.225 17.6588 142.118 17.399C142.023 17.1273 141.964 16.8438 141.976 16.5485ZM142.604 21.1552H145.724V36.5107H142.604V21.1552ZM148.416 21.1552H151.453V23.2813C152.01 22.5017 152.745 21.8757 153.599 21.4387C154.465 21.0134 155.414 20.8126 156.375 20.8362C157.276 20.8244 158.178 20.978 159.02 21.2969C159.779 21.5922 160.467 22.0529 161.024 22.6317C161.582 23.2459 162.021 23.9782 162.281 24.7696C162.59 25.6791 162.732 26.6359 162.72 27.5927V36.4989H159.601V27.8289C159.601 26.5213 159.269 25.4783 158.605 24.6988C157.932 23.9192 156.948 23.5294 155.651 23.5294C155.094 23.5294 154.536 23.6357 154.014 23.8483C153.516 24.0491 153.066 24.3562 152.698 24.746C152.307 25.1476 152.01 25.6319 151.82 26.1634C151.607 26.754 151.5 27.3919 151.5 28.0297V36.4989H148.416V21.1552ZM163.124 21.1552H165.816V20.2693C165.792 19.2653 165.899 18.273 166.113 17.2927C166.279 16.5839 166.623 15.9343 167.121 15.4027C167.643 14.8948 168.295 14.5523 169.007 14.3869C169.991 14.1743 170.987 14.068 171.995 14.0916H172.743V16.9383H172.221C171.628 16.9229 171.035 16.9584 170.442 17.0446C170.05 17.0919 169.694 17.269 169.422 17.5289C169.173 17.8242 169.018 18.1786 168.959 18.5565C168.873 19.1318 168.837 19.7106 168.852 20.2929V21.1434H172.482V23.9074H168.852V36.4989H165.816V23.9074H163.124V21.1552ZM180.179 36.8178C179.088 36.8178 178.021 36.6052 177.036 36.18C175.115 35.3768 173.585 33.853 172.766 31.9513C172.351 30.9591 172.138 29.896 172.138 28.8211C172.138 27.7462 172.351 26.695 172.766 25.7028C173.573 23.7892 175.103 22.2655 177.036 21.4505C178.021 21.037 179.088 20.8244 180.168 20.8244C181.247 20.8244 182.314 21.037 183.311 21.4505C185.244 22.2537 186.786 23.7892 187.592 25.7028C188.008 26.695 188.221 27.7581 188.221 28.8211C188.221 29.8842 188.008 30.9591 187.592 31.9513C186.774 33.853 185.244 35.3768 183.311 36.18C182.326 36.6052 181.259 36.8178 180.179 36.806V36.8178ZM180.179 33.9475C180.856 33.9593 181.52 33.8176 182.137 33.5577C182.73 33.2979 183.263 32.9199 183.702 32.4592C184.165 31.9867 184.521 31.4434 184.77 30.841C185.161 29.896 185.256 28.8684 185.078 27.8644C184.888 26.8722 184.414 25.939 183.702 25.2067C183.251 24.746 182.718 24.368 182.125 24.1082C181.508 23.8483 180.832 23.7184 180.168 23.7184C179.503 23.7184 178.827 23.8483 178.211 24.1082C177.618 24.368 177.084 24.746 176.645 25.2067C176.194 25.6791 175.838 26.2343 175.601 26.8367C175.115 28.1242 175.115 29.5417 175.601 30.8292C175.85 31.4316 176.206 31.9749 176.645 32.4474C177.096 32.9081 177.629 33.286 178.222 33.5459C178.839 33.8176 179.515 33.9475 180.191 33.9475H180.179Z" fill="#949FC5"/>
<path d="M45.2387 0H6.86889C3.59361 0 0.938477 2.6442 0.938477 5.90598V44.094C0.938477 47.3558 3.59361 50 6.86889 50H45.2387C48.514 50 51.1691 47.3558 51.1691 44.094V5.90598C51.1691 2.6442 48.514 0 45.2387 0Z" fill="#949FC5"/>
<path fill-rule="evenodd" clip-rule="evenodd" d="M31.4681 13.6426H37.0782C37.2917 13.6426 37.4697 13.8198 37.4697 14.0442V19.4304C37.4815 19.6549 37.3036 19.832 37.0782 19.832H35.4889C35.2635 19.832 35.0856 19.6549 35.0856 19.4304V17.7768L18.1958 33.971H21.671C21.8964 33.971 22.0743 34.1599 22.0743 34.3726V35.9672C22.0743 36.1916 21.8964 36.3688 21.671 36.3688H15.0408C14.8273 36.3688 14.6494 36.1916 14.6494 35.9672V33.9828L33.3658 16.0286H31.4681C31.2546 16.0286 31.0767 15.8514 31.0767 15.627V14.0442C31.0767 13.8198 31.2546 13.6426 31.4681 13.6426ZM17.0216 19.5013C17.0216 19.7139 16.8437 19.8911 16.6302 19.9029H15.0408C14.8273 19.9029 14.6494 19.7139 14.6494 19.5013V14.0442C14.6494 13.8198 14.8273 13.6426 15.0408 13.6426H27.6726C27.898 13.6426 28.0759 13.8198 28.0759 14.0442V15.5679C28.0759 15.7924 27.898 15.9695 27.6726 15.9695H17.0216V19.5013ZM35.0856 30.3565C35.0856 30.1321 35.2635 29.9549 35.4889 29.9549H37.0782C37.2917 29.9549 37.4697 30.1321 37.4697 30.3565V35.979C37.4697 36.1916 37.2917 36.3806 37.0782 36.3806H25.4546C25.2411 36.3806 25.0632 36.1916 25.0632 35.979V34.3844C25.0632 34.1599 25.2411 33.9828 25.4546 33.9828H35.0856V30.3565Z" fill="white"/>
</g>
<defs>
<clipPath id="clip0_286_1756">
<rect width="186.667" height="50" fill="white" transform="translate(0.938477)"/>
</clipPath>
</defs>
</svg>
