<svg width="163" height="50" viewBox="0 0 163 50" fill="none" xmlns="http://www.w3.org/2000/svg">
<g clip-path="url(#clip0_803_2691)">
<path fill-rule="evenodd" clip-rule="evenodd" d="M13.1365 50H16.8972V30H13.1365V50ZM26.9221 49.7H30.2904V37.0812L44.4684 50V30.3H41.1095V42.7031L26.9221 30V49.7ZM52.1578 44.8563C53.9911 46.2781 56.1916 47.1 58.5507 47.1C60.8486 47.1 62.4605 46.3125 62.4605 44.5734C62.4605 43.0578 61.4325 42.4641 59.6321 41.8L56.7174 40.7922C54.0303 39.8422 51.9867 38.4547 51.9867 35.2656C51.9867 31.8547 55.0804 30 58.7799 30C61.0463 30 63.1119 30.5672 64.7254 31.5719V34.9547C63.0476 33.7203 61.2112 32.8703 58.8521 32.8703C56.821 32.8703 55.3032 33.625 55.3032 35.1984C55.3032 36.6203 56.256 37.1891 57.9339 37.7609L61.1813 38.8953C64.3283 39.9969 65.7723 41.7047 65.7723 44.5141C65.7723 48.0484 62.6489 50 58.5507 50C55.8573 50 53.5673 49.25 52.1578 48.3031V44.8563ZM74.5463 50H78.3054V30H74.5463V50ZM95.9412 46.9734C100.179 46.9734 102.444 44.2672 102.444 39.9953C102.444 35.6922 100.178 32.9953 95.9412 32.9953H91.7505V46.9734H95.9412ZM88.3288 30H96.0668C102.023 30 105.875 33.9062 105.875 39.9953C105.875 46.0891 102.023 50 96.0668 50H88.3288V30ZM124.676 30V32.9953H115.577V37.8078H123.737V40.7687H115.575V46.9734H124.676V50H112.142V30H124.676ZM138.02 39.0563H141.751C143.959 39.0563 145.204 37.85 145.204 35.9953C145.204 34.1406 143.959 32.9328 141.751 32.9328H138.02V39.0563ZM138.02 41.8844V50H134.7V30H141.814C145.87 30 148.494 32.0797 148.494 35.9953C148.494 39.3438 147.037 41.2672 143.934 41.7609L150.993 50H147.216L140.382 41.8859H138.022L138.02 41.8844ZM11.8228 10.2969C13.2935 9.76094 14.4393 8.15312 14.4393 5.94219C14.4393 2.25781 11.8228 0.348438 7.6367 0.348438H0.60498V20.9156H8.28964C12.4757 20.9156 15.0922 18.8719 15.0922 15.0203C15.0922 12.8422 13.7188 10.9328 11.8228 10.2969ZM3.90738 8.99063V3.36406H7.6053C9.92828 3.36406 11.1698 4.20156 11.1698 6.14375C11.1698 8.08594 9.92671 8.99063 7.6053 8.99063H3.90738ZM3.90738 11.8719H8.22372C10.5153 11.8719 11.7568 13.0094 11.7568 14.8859C11.7568 16.7281 10.5137 17.9016 8.22529 17.9016H3.90895V11.8703L3.90738 11.8719ZM30.4348 21.25C35.2425 21.25 38.4805 18.3687 38.4805 12.7422V0.348438H35.0792V12.3391C35.0792 16.2922 33.4437 18.1359 30.4348 18.1359C27.426 18.1359 25.792 16.2922 25.792 12.3391V0.348438H22.3907V12.7078C22.3907 18.3687 25.6602 21.25 30.4348 21.25ZM46.4885 19.4406C47.8948 20.4469 50.1849 21.25 52.8657 21.25C56.9545 21.25 60.0606 19.1719 60.0606 15.4219C60.0606 12.4406 58.6229 10.6312 55.4822 9.45937L52.2457 8.25313C50.5773 7.65156 49.6292 7.04844 49.6292 5.54063C49.6292 3.86562 51.1329 3.0625 53.1608 3.0625C55.5151 3.0625 57.3468 3.96563 59.0153 5.27344V1.6875C57.4128 0.617188 55.3519 0.0140625 53.0949 0.0140625C49.4001 0.0140625 46.3253 1.99062 46.3253 5.60781C46.3253 8.99063 48.3532 10.4641 51.034 11.4688L53.9456 12.5406C55.7443 13.2437 56.7583 13.8813 56.7583 15.4891C56.7583 17.3313 55.1557 18.1688 52.8657 18.1688C50.5113 18.1688 48.3202 17.2969 46.4885 15.7906V19.4406ZM72.2139 0.348438H68.8142V20.9141H72.2139V0.348438ZM81.917 20.8891H85.1943V7.50938L98.9878 21.2078V0.317187H95.7199V13.4688L81.917 0V20.8891ZM120.241 0.353125V3.43281H111.411V8.38281H119.33V11.4281H111.411V17.8078H120.241V20.9203H108.077V0.353125H120.241ZM128.16 19.4266C129.566 20.4328 131.855 21.2359 134.537 21.2359C138.624 21.2359 141.732 19.1594 141.732 15.4078C141.732 12.4266 140.293 10.6188 137.154 9.44531L133.916 8.24063C132.247 7.6375 131.299 7.03437 131.299 5.52656C131.299 3.85156 132.803 3.04844 134.831 3.04844C137.185 3.04844 139.017 3.95312 140.685 5.25938V1.675C139.083 0.603125 137.022 0 134.765 0C131.07 0 127.995 1.97656 127.995 5.59375C127.995 8.97656 130.023 10.45 132.704 11.4547L135.615 12.5266C137.414 13.2297 138.428 13.8672 138.428 15.475C138.428 17.3172 136.827 18.1547 134.536 18.1547C132.181 18.1547 129.99 17.2844 128.16 15.7766V19.4266ZM148.699 19.4266C150.106 20.4328 152.396 21.2359 155.077 21.2359C159.165 21.2359 162.272 19.1594 162.272 15.4078C162.272 12.4266 160.832 10.6188 157.693 9.44531L154.455 8.24063C152.788 7.6375 151.839 7.03437 151.839 5.52656C151.839 3.85156 153.344 3.04844 155.37 3.04844C157.725 3.04844 159.558 3.95312 161.225 5.25938V1.675C159.624 0.603125 157.563 0 155.306 0C151.609 0 148.536 1.97656 148.536 5.59375C148.536 8.97656 150.564 10.45 153.245 11.4547L156.157 12.5266C157.955 13.2297 158.969 13.8672 158.969 15.475C158.969 17.3172 157.367 18.1547 155.077 18.1547C152.722 18.1547 150.531 17.2844 148.699 15.7766V19.4266Z" fill="#949FC5"/>
</g>
<defs>
<clipPath id="clip0_803_2691">
<rect width="161.667" height="50" fill="white" transform="translate(0.60498)"/>
</clipPath>
</defs>
</svg>
