<svg width="347" height="51" viewBox="0 0 347 51" fill="none" xmlns="http://www.w3.org/2000/svg">
<path d="M239.483 20.1286C239.483 14.46 235.943 10.3857 229.396 10.3857H207.807V39.7914H214.885V29.6943H223.202L231.342 39.7914H239.306V39.0829L231.342 29.5171C236.474 28.4543 239.483 24.7343 239.483 20.1286ZM228.511 23.6714H214.885V16.4086H228.511C230.988 16.4086 232.581 17.8257 232.581 20.1286C232.758 22.4314 231.165 23.6714 228.511 23.6714Z" fill="#949FC5"/>
<path d="M346.367 10.2086H339.819V21.3686H321.946V10.2086H314.868V39.6143H321.946V28.1H339.819V39.6143H346.367V10.2086Z" fill="#949FC5"/>
<path d="M188.872 10.2086L181.086 34.8314H180.732L172.768 10.2086H160.204V39.6143H166.929V15.5229H167.283L175.069 39.6143H185.864L193.827 15.5229H194.181V39.6143H201.082V10.2086H188.872Z" fill="#949FC5"/>
<path d="M111.894 22.2543C109.417 22.0771 104.816 21.5457 102.161 21.3686C99.6838 21.1914 98.2682 20.3057 98.2682 18.7114C98.2682 17.1171 99.8608 15.8771 105.877 15.8771C111.186 15.8771 116.141 17.1171 120.565 19.0657V12.5114C116.318 10.3857 111.54 9.5 105.524 9.5C97.2064 9.5 91.3667 13.0429 91.3667 18.8886C91.3667 23.8486 94.7289 26.6829 101.63 27.3914C104.108 27.7457 108.355 28.1 111.186 28.2771C114.372 28.4543 115.256 29.5171 115.256 30.9343C115.256 32.8829 112.956 34.1229 107.47 34.1229C101.984 34.1229 95.9677 32.1743 91.7206 29.6943V36.4257C95.0829 38.7286 100.746 40.5 107.293 40.5C116.318 40.5 122.158 36.9571 122.158 30.7571C122.158 25.9743 119.149 22.9629 111.894 22.2543Z" fill="#949FC5"/>
<path d="M126.936 10.2086V39.6143H154.188V33.5914H133.66V27.5686H153.834V21.5457H133.66V16.2314H154.188V10.2086H126.936Z" fill="#949FC5"/>
<path d="M300.18 22.2543C297.703 22.0771 293.102 21.5457 290.447 21.3686C287.97 21.1914 286.554 20.3057 286.554 18.7114C286.554 17.1171 288.147 15.8771 294.163 15.8771C299.472 15.8771 304.427 16.94 308.851 19.0657V12.5114C304.604 10.3857 299.826 9.5 293.809 9.5C285.492 9.5 279.653 13.0429 279.653 18.8886C279.653 23.8486 283.015 26.6829 289.916 27.3914C292.394 27.7457 296.641 28.1 299.472 28.2771C302.657 28.4543 303.542 29.5171 303.542 30.9343C303.542 32.8829 301.242 34.1229 295.756 34.1229C290.27 34.1229 284.254 32.1743 280.007 29.6943V36.4257C283.369 38.7286 289.031 40.5 295.579 40.5C304.604 40.5 310.444 36.9571 310.444 30.7571C310.444 25.9743 307.258 22.9629 300.18 22.2543Z" fill="#949FC5"/>
<path d="M267.796 10.2086V25.2657C267.796 30.9343 264.257 34.1229 259.125 34.1229C253.993 34.1229 250.454 31.1114 250.454 25.2657V10.2086H243.376V24.5571C243.376 35.1857 250.1 40.5 259.125 40.5C268.15 40.5 274.698 35.3629 274.698 24.9114V10.2086H267.796Z" fill="#949FC5"/>
<path d="M66.8748 25.1462C66.8748 26.5615 66.1635 26.7385 64.3852 26.7385C62.4291 26.7385 62.0734 26.3846 61.8956 24.9692C61.5399 21.2538 59.0503 18.0692 54.7824 17.8923C53.5376 17.7154 53.1819 17.3615 53.1819 15.5923C53.1819 14 53.3598 13.2923 54.6046 13.2923C61.7177 13.4692 66.8748 19.3077 66.8748 25.1462ZM77.3667 25.1462C77.3667 14.1769 69.8979 2.5 52.4706 2.5H18.1496C17.4383 2.5 16.9048 2.85385 16.9048 3.56154C16.9048 3.91538 17.0826 4.26923 17.4383 4.44615C18.6831 5.50769 20.4614 6.56923 22.951 7.80769C25.2628 9.04615 27.2189 9.75385 28.9972 10.4615C29.7085 10.8154 30.0642 11.1692 30.0642 11.5231C30.0642 12.0538 29.7085 12.5846 28.8194 12.5846H1.6115C0.722357 12.4077 0.366699 12.9385 0.366699 13.4692C0.366699 14 0.544528 14.3538 0.900187 14.7077C3.03414 17.0077 6.59072 19.8385 11.7478 23.0231C16.1935 25.8538 21.884 28.8615 26.3297 30.9846C27.0411 31.3385 27.3967 31.6923 27.3967 32.2231C27.3967 32.7538 27.0411 33.1077 26.1519 33.1077H13.5261C12.8147 33.1077 12.4591 33.4615 12.4591 33.9923C12.4591 34.3462 12.6369 34.7 12.9926 35.0538C15.8378 37.7077 20.4614 40.3615 26.5076 43.0154C34.6877 46.3769 42.8679 48.5 52.115 48.5C69.72 48.5 77.3667 35.4077 77.3667 25.1462ZM54.4267 40.8923C45.8909 40.8923 38.6 33.9923 38.6 25.1462C38.6 16.3 45.7131 9.75385 54.4267 9.75385C63.1404 9.75385 70.2535 16.6538 70.2535 25.1462C70.2535 33.6385 63.3182 40.8923 54.4267 40.8923Z" fill="#949FC5"/>
</svg>
