<svg width="531" height="51" viewBox="0 0 531 51" fill="none" xmlns="http://www.w3.org/2000/svg">
<g clip-path="url(#clip0_803_2747)">
<path d="M322.502 33.4651C322.502 35.6769 321.938 37.8894 320.623 39.7325C319.307 41.5757 317.616 43.0502 315.172 44.1561C312.729 45.262 309.722 45.8157 306.151 45.8157C303.144 45.8157 300.325 45.4471 297.505 44.7098C294.686 43.9725 292.431 42.8667 290.74 41.5757L296.378 34.9404C297.505 35.4933 298.633 35.862 299.949 36.4149C302.204 37.1522 304.271 37.5208 306.339 37.5208C310.285 37.5208 312.353 36.4149 312.353 34.3875C312.353 33.2816 311.789 32.5443 310.662 31.9906C309.534 31.4376 307.655 30.8847 305.211 30.3318C302.392 29.7788 300.137 29.0416 298.257 28.3043C296.378 27.5671 294.874 26.4612 293.371 24.9867C292.055 23.5122 291.303 21.2996 291.303 18.7192C291.303 16.3224 291.867 14.2949 293.183 12.4518C294.498 10.6086 296.19 9.13412 298.633 8.02824C301.076 6.92235 304.083 6.36863 307.655 6.36863C310.097 6.36863 312.541 6.73725 314.796 7.2902C317.24 7.84314 319.307 8.76471 320.998 9.68627L315.172 16.5067C312.541 15.4008 309.909 14.8478 307.466 14.8478C305.399 14.8478 303.895 15.2165 302.956 15.7694C302.016 16.3224 301.452 17.2439 301.452 18.1663C301.452 19.2722 302.017 20.0094 303.144 20.378C304.271 20.931 306.151 21.4839 308.594 22.0369C310.97 22.4988 313.298 23.1775 315.548 24.0643C317.428 24.8016 318.931 25.9074 320.435 27.382C321.75 28.6729 322.502 30.8847 322.502 33.4651ZM530.367 33.4651C530.367 35.6769 529.803 37.8894 528.488 39.7325C527.172 41.5757 525.481 43.0502 523.038 44.1561C520.594 45.262 517.587 45.8157 514.016 45.8157C511.009 45.8157 508.19 45.4471 505.371 44.7098C502.552 43.9725 500.296 42.8667 498.604 41.5757L504.243 34.9404C505.371 35.4933 506.498 35.862 507.814 36.4149C510.069 37.1522 512.137 37.5208 514.204 37.5208C518.151 37.5208 520.219 36.4149 520.219 34.3875C520.219 33.2816 519.655 32.5443 518.527 31.9906C517.399 31.4376 515.519 30.8847 513.076 30.3318C510.7 29.8699 508.372 29.1912 506.123 28.3043C504.243 27.5671 502.74 26.4612 501.236 24.9867C499.921 23.5122 499.169 21.2996 499.169 18.7192C499.169 16.3224 499.733 14.2949 501.048 12.4518C502.364 10.6086 504.055 9.13412 506.498 8.02824C508.942 6.92235 511.949 6.36863 515.52 6.36863C517.963 6.36863 520.406 6.73725 522.662 7.2902C525.104 7.84314 527.172 8.76471 528.864 9.68627L523.038 16.5067C520.406 15.4008 517.775 14.8478 515.332 14.8478C513.264 14.8478 511.761 15.2165 510.821 15.7694C509.881 16.3224 509.317 17.2439 509.317 18.1663C509.317 19.2722 509.881 20.0094 511.009 20.378C512.137 20.931 514.017 21.4839 516.459 22.0369C518.836 22.4987 521.163 23.1774 523.413 24.0643C525.292 24.8016 526.796 25.9074 528.3 27.382C529.803 28.6729 530.367 30.8847 530.367 33.4651ZM70.0939 20.931C70.0939 23.88 69.3426 26.2769 68.0271 28.3035C66.7108 30.3318 64.832 31.9906 62.3883 33.0965C59.9446 34.2024 56.9375 34.7561 53.7433 34.7561H47.3531V44.709H36.8285V6.55373H53.7433C57.1264 6.55373 59.9454 7.10667 62.3883 8.21255C64.832 9.31843 66.7108 10.978 68.0271 13.1898C69.5306 15.5859 70.0939 18.1671 70.0939 20.931ZM59.5693 20.931C59.5693 19.0878 59.006 17.7976 57.8777 16.8761C56.7495 15.9545 55.2468 15.4016 52.9911 15.4016H47.1651V26.6455H52.9911C55.0587 26.6455 56.7503 26.0918 57.8785 25.171C59.0068 24.2502 59.5693 22.7741 59.5693 20.931ZM103.924 36.7835V45.0784H74.4172V6.92157H103.172V15.2165H84.7538V21.6682H99.4129V29.7788H84.7538V36.7827L103.924 36.7835ZM143.768 6.92157V45.0784H135.123L118.771 24.8016V45.0784H108.435V6.92157H117.08L133.431 27.1984V6.92157H143.768ZM210.488 36.4149V44.8933H184.364V6.73725H194.888V36.2306H210.488V36.4149ZM255.594 45.0784H244.693L241.874 37.7051H226.275L223.456 45.0776H212.743L229.094 6.92157H239.431L255.594 45.0784ZM238.867 29.5945L234.169 17.4282L229.47 29.5945H238.867ZM288.484 33.4651C288.484 35.6769 287.921 37.8894 286.604 39.7325C285.289 41.5757 283.597 43.0502 281.155 44.1561C278.711 45.262 275.704 45.8157 272.133 45.8157C269.126 45.8157 266.307 45.4471 263.488 44.7098C260.669 43.9725 258.413 42.8667 256.722 41.5757L262.36 34.9404C263.488 35.4933 264.615 35.862 265.931 36.4149C268.186 37.1522 270.254 37.5208 272.321 37.5208C276.268 37.5208 278.336 36.4149 278.336 34.3875C278.336 33.2816 277.771 32.5443 276.644 31.9906C275.517 31.4376 273.637 30.8847 271.193 30.3318C268.374 29.7788 266.119 29.0416 264.24 28.3043C262.36 27.5671 260.857 26.4612 259.353 24.9867C258.038 23.5122 257.285 21.2996 257.285 18.7192C257.285 16.3224 257.85 14.2949 259.165 12.4518C260.481 10.6086 262.172 9.13412 264.616 8.02824C267.059 6.92235 270.066 6.36863 273.637 6.36863C276.08 6.36863 278.524 6.73725 280.778 7.2902C283.222 7.84314 285.101 8.76471 286.981 9.68627L281.155 16.5067C278.524 15.4008 275.892 14.8478 273.449 14.8478C271.381 14.8478 269.878 15.2165 268.938 15.7694C267.998 16.3224 267.435 17.2439 267.435 18.1663C267.435 19.2722 267.998 20.0094 269.126 20.378C270.254 20.931 272.133 21.4839 274.576 22.0369C276.953 22.4988 279.281 23.1775 281.531 24.0643C283.409 24.8016 284.913 25.9074 286.416 27.382C287.733 28.6729 288.484 30.8847 288.484 33.4651ZM32.5052 25.9075C32.5052 36.7835 23.4841 45.8157 12.2073 45.8157C7.69674 45.8157 3.74951 44.3412 0.367188 41.9443L7.13341 34.0188C8.63693 34.9404 10.3285 35.4933 12.2073 35.4933C17.47 35.4933 21.7925 31.2533 21.7925 26.0926C21.7925 20.931 17.47 16.691 12.2081 16.691C10.3277 16.691 8.63693 17.2439 7.13341 18.1655L0.367188 10.2408C3.7503 7.84314 7.88478 6.36863 12.2073 6.36863C23.4841 6.18431 32.5052 15.0314 32.5052 25.9075ZM173.463 34.018L180.229 41.9451C176.846 44.3412 172.711 45.8157 168.388 45.8157C157.3 45.8157 148.09 36.9678 148.09 25.9075C148.09 15.0329 157.112 6 168.388 6C172.899 6 176.846 7.47451 180.229 9.87137L173.463 17.7969C171.959 16.8753 170.268 16.3224 168.388 16.3224C163.126 16.3224 158.803 20.5624 158.803 25.7231C158.803 30.8847 163.126 35.1247 168.388 35.1247C170.268 35.4933 171.959 34.9396 173.463 34.018ZM360.843 45.0784L352.573 33.2808C355.016 32.1749 356.707 30.5161 358.024 28.4886C359.339 26.4612 360.09 23.88 360.09 21.1153C360.09 18.1663 359.339 15.7694 358.024 13.5576C356.707 11.3459 354.828 9.87137 352.385 8.58039C349.942 7.47451 346.935 6.92157 343.74 6.92157H326.825V45.0784H337.162V35.1247H342.048L349.002 45.0776L360.843 45.0784ZM337.162 15.4008H343.176C345.243 15.4008 346.935 15.9537 348.062 16.8753C349.19 17.7969 349.754 19.2722 349.754 20.9302C349.754 22.7741 349.19 24.0643 348.062 24.9859C346.935 25.9075 345.431 26.4604 343.176 26.4604H337.162V15.4008ZM384.336 6.18431C395.424 6.18431 404.633 15.0322 404.633 26.0918C404.633 37.1514 395.612 46 384.336 46C373.247 46 364.038 37.1522 364.038 26.0918C364.038 15.0314 373.059 6.18431 384.336 6.18431ZM373.998 25.9075C373.998 31.4376 378.509 35.862 384.147 35.862C389.785 35.862 394.296 31.4384 394.296 25.9075C394.296 20.3765 389.785 15.9545 384.147 15.9545C378.697 15.9545 373.998 20.378 373.998 25.9075ZM427.938 6.18431C439.027 6.18431 448.236 15.0322 448.236 26.0918C448.236 37.1514 439.215 46 427.938 46C416.85 46 407.64 37.1522 407.64 26.0918C407.64 15.0314 416.85 6.18431 427.938 6.18431ZM417.789 25.9075C417.789 31.4376 422.3 35.862 427.938 35.862C433.576 35.862 438.087 31.4384 438.087 25.9075C438.087 20.3765 433.576 15.9545 427.938 15.9545C422.3 15.9545 417.789 20.378 417.789 25.9075ZM473.608 31.2533L461.204 6.92157H452.559V45.0784H461.768V28.3043L470.977 45.0784H476.428L485.637 28.3043V45.0784H494.846V6.92157H486.2L473.608 31.2533Z" fill="#949FC5"/>
</g>
<defs>
<clipPath id="clip0_803_2747">
<rect width="530" height="51" fill="white" transform="translate(0.367188)"/>
</clipPath>
</defs>
</svg>
