<svg width="174" height="51" viewBox="0 0 174 51" fill="none" xmlns="http://www.w3.org/2000/svg">
<path d="M35.1864 18.6948C38.4385 20.9902 42.4199 22.3429 46.7226 22.3429V14.1653C45.907 14.1653 45.0948 14.0834 44.2999 13.916V20.3515C39.9972 20.3515 36.0158 19.0022 32.7637 16.7067V33.3933C32.7637 41.7417 25.9139 48.5085 17.4639 48.5085C14.312 48.5085 11.3813 47.5657 8.94482 45.9534C11.7235 48.7613 15.5977 50.4999 19.8831 50.4999C28.3331 50.4999 35.1829 43.7331 35.1829 35.3847V18.6948H35.1864ZM38.1759 10.4455C36.5135 8.65212 35.4249 6.33616 35.1864 3.77426V2.72217H32.8916C33.4688 5.97749 35.4421 8.76143 38.1759 10.4455ZM14.2913 39.5418C13.3616 38.3394 12.8605 36.8672 12.864 35.3574C12.864 31.5384 15.9986 28.4437 19.8624 28.4437C20.5813 28.4437 21.3001 28.553 21.9844 28.7682V20.4095C21.1826 20.3002 20.3739 20.2558 19.5617 20.2729V26.7801C18.874 26.5649 18.1586 26.4556 17.4363 26.4556C13.569 26.4556 10.4378 29.5504 10.4378 33.3694C10.4378 36.0679 12.0034 38.4078 14.2878 39.5452L14.2913 39.5418Z" fill="#6C79A4"/>
<path d="M32.881 16.6339C36.1566 18.918 40.1667 20.2605 44.5005 20.2605V13.857C42.0812 13.354 39.9404 12.1201 38.3322 10.4071C35.5752 8.72804 33.5911 5.96133 33.0098 2.72217H26.9354V35.2191C26.9215 39.0089 23.7712 42.0747 19.8864 42.0747C17.596 42.0747 15.5631 41.0109 14.2751 39.359C11.9742 38.2272 10.3973 35.8989 10.3973 33.2138C10.3973 29.4138 13.5545 26.3344 17.4463 26.3344C18.1912 26.3344 18.9118 26.4465 19.5871 26.6573V20.1824C11.2258 20.3523 4.50049 27.0176 4.50049 35.2191C4.50049 39.3114 6.17484 43.023 8.89349 45.7353C11.3441 47.343 14.296 48.2777 17.4741 48.2777C25.9851 48.2777 32.8844 41.5445 32.8844 33.2376V16.6339H32.881Z" fill="#949FC5"/>
<path d="M44.5005 13.7799V12.0248C42.3325 12.0248 40.2025 11.426 38.3634 10.2835C39.9947 12.0558 42.1385 13.2774 44.5005 13.7799ZM33.0679 2.50626C33.0125 2.19311 32.9709 1.87651 32.9397 1.55991V0.5H24.5964V33.402C24.5826 37.239 21.4482 40.343 17.5831 40.343C16.4471 40.343 15.3769 40.0746 14.4279 39.5997C15.7094 41.2687 17.732 42.3493 20.0109 42.3493C23.876 42.3493 27.0104 39.2453 27.0243 35.4083V2.50626H33.0679ZM19.713 20.1841V18.3189C19.0169 18.2225 18.3138 18.1778 17.6108 18.1778C9.14277 18.1778 2.27832 24.995 2.27832 33.4054C2.27832 38.6775 4.9763 43.3232 9.07696 46.0556C6.37205 43.3094 4.70616 39.555 4.70616 35.4083C4.70616 27.1079 11.3974 20.3561 19.7165 20.1841H19.713Z" fill="#CAD1EA"/>
<path d="M139.433 41.6111C145.298 41.6111 150.056 36.8843 150.056 31.0556C150.056 25.2268 145.301 20.5 139.433 20.5H137.834C143.699 20.5 148.457 25.2268 148.457 31.0556C148.457 36.8843 143.702 41.6111 137.834 41.6111H139.433Z" fill="#6C79A4"/>
<path d="M137.834 20.5H136.235C130.37 20.5 125.612 25.2268 125.612 31.0556C125.612 36.8843 130.367 41.6111 136.235 41.6111H137.834C131.966 41.6111 127.211 36.8843 127.211 31.0556C127.211 25.2268 131.966 20.5 137.834 20.5Z" fill="#CAD1EA"/>
<path d="M55.6118 14.9478V20.4611H61.9828V41.4656H68.3538V20.6065H73.54L75.3188 14.9443H55.6152L55.6118 14.9478ZM107.761 14.9478V20.4611H114.132V41.4656H120.503V20.6065H125.689L127.468 14.9443H107.764L107.761 14.9478ZM76.5002 18.0765C76.5002 16.3495 77.8898 14.9478 79.6071 14.9478C81.3245 14.9478 82.7175 16.3495 82.7175 18.0765C82.7175 19.8035 81.3279 21.2052 79.6071 21.2052C77.8898 21.2052 76.5002 19.8035 76.5002 18.0765ZM76.5002 23.441H82.7209V41.4656H76.5002V23.441ZM85.3874 14.9513V41.4622H91.6116V34.6095L93.5372 32.8202L99.6112 41.611H106.276L97.5353 28.802L105.388 21.0564H97.8324L91.6116 27.3138V14.9478H85.3874V14.9513ZM152.498 14.9513V41.4622H158.722V34.6095L160.648 32.8202L166.722 41.611H173.39L164.649 28.802L172.502 21.0564H164.946L158.722 27.3138V14.9478H152.498V14.9513Z" fill="#949FC5"/>
<path d="M137.909 41.6111C144.002 41.6111 148.945 36.8843 148.945 31.0556C148.945 25.2268 144.005 20.5 137.909 20.5H137.759C131.666 20.5 126.723 25.2268 126.723 31.0556C126.723 36.8843 131.662 41.6111 137.759 41.6111H137.909ZM132.467 31.0556C132.467 28.2201 134.871 25.9222 137.836 25.9222C140.8 25.9222 143.2 28.2201 143.2 31.0556C143.2 33.891 140.797 36.1889 137.836 36.1889C134.871 36.1889 132.467 33.891 132.467 31.0556Z" fill="#949FC5"/>
</svg>
