<svg width="87" height="51" viewBox="0 0 87 51" fill="none" xmlns="http://www.w3.org/2000/svg">
<g clip-path="url(#clip0_295_1844)">
<path fill-rule="evenodd" clip-rule="evenodd" d="M11.3296 1.12073C15.8398 1.12073 19.1941 3.41002 19.1941 6.79271C19.1941 9.42938 17.5027 10.6936 16.005 11.2916C18.4594 12.0319 20.6861 13.4442 20.6861 16.5421C20.6861 21.1264 16.5859 22.6868 12.1439 22.6868H0.856934V1.12073H11.3296ZM7.77037 9.36105H10.3102C11.3182 9.36105 12.1383 8.541 12.1383 7.7779C12.1383 6.95216 11.3467 6.14351 10.3102 6.14351H7.77037V9.36105ZM7.77037 17.721H10.9253C12.3604 17.721 13.2829 16.8212 13.2829 15.7449C13.2829 14.7255 12.2977 13.8371 11.1246 13.8371H7.77037V17.721ZM16.9219 25.0387C21.4378 25.0387 24.7863 27.328 24.7863 30.7107C24.7863 33.3474 23.095 34.6116 21.5973 35.2096C24.0517 35.9499 26.2783 37.3622 26.2783 40.4601C26.2783 45.0444 22.1781 46.6048 17.7362 46.6048H6.44919V25.0387H16.9219ZM13.3626 33.279H15.9082C16.9105 33.279 17.7305 32.459 17.7305 31.6959C17.7305 30.8702 16.9389 30.0615 15.9082 30.0615H13.3626V33.279ZM13.3626 41.639H16.5175C17.9526 41.639 18.8752 40.7392 18.8752 39.6629C18.8752 38.6435 17.89 37.7551 16.7168 37.7551H13.3626V41.639ZM21.2328 22.6811V1.11503H38.6189V6.32574H28.1234V9.15034H36.6485V14.0364H28.1234V17.4932H38.6189V22.6811H21.2328ZM38.9549 19.7369L43.0608 15.8189C44.0574 16.6446 45.333 17.6185 46.9446 17.6185C48.3626 17.6185 49.1428 16.7984 49.1428 15.9841C49.1428 13.6663 39.7806 14.7369 39.7806 7.33941C39.7806 3.59795 43.1975 0.5 48.4196 0.5C51.8991 0.5 54.4788 1.80979 56.1132 3.36446L52.0301 7.25399C52.0301 7.25399 50.8455 6.17768 49.2168 6.17768C48.2715 6.17768 47.3433 6.64465 47.3433 7.52733C47.3433 9.79954 56.8421 8.67768 56.8421 15.9784C56.8421 20.5057 52.9298 23.2961 48.0323 23.2961C43.2658 23.2961 40.6064 21.3542 38.9549 19.7369ZM62.161 22.6811V6.30296H56.472V1.11503H74.7692V6.30296H69.0745V22.6811H62.161ZM26.5175 25.0216H33.4139V37.9431C33.4139 39.2528 34.718 40.4601 36.079 40.4601C37.3604 40.4601 38.6588 39.3667 38.6588 37.869V25.0216H45.5323V37.7836C45.5323 42.8462 41.3296 46.8895 35.8968 46.8895C30.4298 46.8895 26.5175 42.4932 26.5175 37.5103V25.0216ZM54.0289 46.582V38.877L45.931 25.0216H52.9014L57.4856 32.4476L62.087 25.0216H69.0745L60.9424 38.9567V46.582H54.0289Z" fill="#949FC5"/>
<path d="M86.2782 36.8267V50.4542H69.0744L65.0083 46.3882V40.8927L69.0744 36.8267H86.2782Z" fill="#CAD1EA"/>
<path d="M67.4916 44.5549C67.9979 44.5549 68.4084 44.1444 68.4084 43.638C68.4084 43.1317 67.9979 42.7212 67.4916 42.7212C66.9852 42.7212 66.5747 43.1317 66.5747 43.638C66.5747 44.1444 66.9852 44.5549 67.4916 44.5549Z" fill="#949FC5"/>
</g>
<defs>
<clipPath id="clip0_295_1844">
<rect width="85.4214" height="50" fill="white" transform="translate(0.856934 0.5)"/>
</clipPath>
</defs>
</svg>
