<svg width="282" height="40" viewBox="0 0 282 40" fill="none" xmlns="http://www.w3.org/2000/svg">
    <path fill-rule="evenodd" clip-rule="evenodd" d="M21.5155 0.501709L26.0941 3.02453L25.9458 3.29244L21.3672 0.769614L21.5155 0.501709Z" fill="#108CB9"/>
    <path d="M21.4553 1.22418C21.7941 1.22418 22.0688 0.950136 22.0688 0.612089C22.0688 0.274041 21.7941 0 21.4553 0C21.1165 0 20.8418 0.274041 20.8418 0.612089C20.8418 0.950136 21.1165 1.22418 21.4553 1.22418Z" fill="#108CB9"/>
    <path d="M26.0197 3.77056C26.3585 3.77056 26.6332 3.49652 26.6332 3.15848C26.6332 2.82043 26.3585 2.54639 26.0197 2.54639C25.6809 2.54639 25.4062 2.82043 25.4062 3.15848C25.4062 3.49652 25.6809 3.77056 26.0197 3.77056Z" fill="#108CB9"/>
    <path fill-rule="evenodd" clip-rule="evenodd" d="M21.5165 0.769036L16.9369 3.32553L16.7871 3.05844L21.3668 0.501953L21.5165 0.769036Z" fill="#108CB9"/>
    <path d="M16.8615 3.77056C17.2003 3.77056 17.475 3.49652 17.475 3.15848C17.475 2.82043 17.2003 2.54639 16.8615 2.54639C16.5227 2.54639 16.248 2.82043 16.248 3.15848C16.248 3.49652 16.5227 3.77056 16.8615 3.77056Z" fill="#108CB9"/>
    <path fill-rule="evenodd" clip-rule="evenodd" d="M21.3672 39.2306L25.9458 36.7068L26.0941 36.9747L21.5155 39.4985L21.3672 39.2306Z" fill="#108CB9"/>
    <path d="M21.4553 40.0001C21.7941 40.0001 22.0688 39.726 22.0688 39.388C22.0688 39.0499 21.7941 38.7759 21.4553 38.7759C21.1165 38.7759 20.8418 39.0499 20.8418 39.388C20.8418 39.726 21.1165 40.0001 21.4553 40.0001Z" fill="#108CB9"/>
    <path d="M26.0197 37.4527C26.3585 37.4527 26.6332 37.1787 26.6332 36.8406C26.6332 36.5026 26.3585 36.2285 26.0197 36.2285C25.6809 36.2285 25.4062 36.5026 25.4062 36.8406C25.4062 37.1787 25.6809 37.4527 26.0197 37.4527Z" fill="#108CB9"/>
    <path fill-rule="evenodd" clip-rule="evenodd" d="M21.3668 39.4979L16.7871 36.9414L16.9369 36.6743L21.5165 39.2308L21.3668 39.4979Z" fill="#108CB9"/>
    <path d="M16.8615 37.4527C17.2003 37.4527 17.475 37.1787 17.475 36.8406C17.475 36.5026 17.2003 36.2285 16.8615 36.2285C16.5227 36.2285 16.248 36.5026 16.248 36.8406C16.248 37.1787 16.5227 37.4527 16.8615 37.4527Z" fill="#108CB9"/>
    <path fill-rule="evenodd" clip-rule="evenodd" d="M4.53125 10.2267L9.00456 7.52026L9.16361 7.78195L4.6903 10.4884L4.53125 10.2267Z" fill="#108CB9"/>
    <path d="M4.59786 10.9451C4.93667 10.9451 5.21134 10.6711 5.21134 10.333C5.21134 9.99499 4.93667 9.72095 4.59786 9.72095C4.25904 9.72095 3.98438 9.99499 3.98438 10.333C3.98438 10.6711 4.25904 10.9451 4.59786 10.9451Z" fill="#108CB9"/>
    <path d="M1.06172 8.91925C1.40054 8.91925 1.67521 8.6452 1.67521 8.30716C1.67521 7.96911 1.40054 7.69507 1.06172 7.69507C0.722907 7.69507 0.448242 7.96911 0.448242 8.30716C0.448242 8.6452 0.722907 8.91925 1.06172 8.91925Z" fill="#108CB9"/>
    <path d="M9.08419 8.26324C9.423 8.26324 9.69767 7.9892 9.69767 7.65115C9.69767 7.3131 9.423 7.03906 9.08419 7.03906C8.74537 7.03906 8.4707 7.3131 8.4707 7.65115C8.4707 7.9892 8.74537 8.26324 9.08419 8.26324Z" fill="#108CB9"/>
    <path fill-rule="evenodd" clip-rule="evenodd" d="M4.76446 10.3594L4.70516 15.5938L4.39844 15.5903L4.45774 10.356L4.76446 10.3594Z" fill="#108CB9"/>
    <path d="M4.52266 16.1878C4.86148 16.1878 5.13614 15.9138 5.13614 15.5757C5.13614 15.2377 4.86148 14.9636 4.52266 14.9636C4.18384 14.9636 3.90918 15.2377 3.90918 15.5757C3.90918 15.9138 4.18384 16.1878 4.52266 16.1878Z" fill="#108CB9"/>
    <path fill-rule="evenodd" clip-rule="evenodd" d="M1.0297 8.12964L4.68708 10.225L4.53433 10.4904L0.876953 8.39504L1.0297 8.12964Z" fill="#108CB9"/>
    <path fill-rule="evenodd" clip-rule="evenodd" d="M38.1182 29.6399L38.2061 24.4219L38.5128 24.427L38.4249 29.6451L38.1182 29.6399Z" fill="#108CB9"/>
    <path d="M38.299 30.2545C38.6378 30.2545 38.9125 29.9804 38.9125 29.6424C38.9125 29.3043 38.6378 29.0303 38.299 29.0303C37.9602 29.0303 37.6855 29.3043 37.6855 29.6424C37.6855 29.9804 37.9602 30.2545 38.299 30.2545Z" fill="#108CB9"/>
    <path d="M41.8342 32.2796C42.173 32.2796 42.4477 32.0056 42.4477 31.6675C42.4477 31.3295 42.173 31.0554 41.8342 31.0554C41.4954 31.0554 41.2207 31.3295 41.2207 31.6675C41.2207 32.0056 41.4954 32.2796 41.8342 32.2796Z" fill="#108CB9"/>
    <path d="M38.3596 25.0364C38.6984 25.0364 38.9731 24.7624 38.9731 24.4243C38.9731 24.0863 38.6984 23.8123 38.3596 23.8123C38.0208 23.8123 37.7461 24.0863 37.7461 24.4243C37.7461 24.7624 38.0208 25.0364 38.3596 25.0364Z" fill="#108CB9"/>
    <path fill-rule="evenodd" clip-rule="evenodd" d="M38.3499 29.7738L33.848 32.4629L33.6904 32.2003L38.1924 29.5112L38.3499 29.7738Z" fill="#108CB9"/>
    <path d="M33.7981 32.961C34.1369 32.961 34.4115 32.687 34.4115 32.3489C34.4115 32.0109 34.1369 31.7368 33.7981 31.7368C33.4592 31.7368 33.1846 32.0109 33.1846 32.3489C33.1846 32.687 33.4592 32.961 33.7981 32.961Z" fill="#108CB9"/>
    <path fill-rule="evenodd" clip-rule="evenodd" d="M41.8527 31.8706L38.1953 29.7752L38.3481 29.5098L42.0054 31.6052L41.8527 31.8706Z" fill="#108CB9"/>
    <path fill-rule="evenodd" clip-rule="evenodd" d="M4.49599 29.7128L4.38965 24.4947L4.69633 24.4885L4.80267 29.7066L4.49599 29.7128Z" fill="#108CB9"/>
    <path d="M4.62129 30.3218C4.96011 30.3218 5.23478 30.0478 5.23478 29.7097C5.23478 29.3717 4.96011 29.0977 4.62129 29.0977C4.28248 29.0977 4.00781 29.3717 4.00781 29.7097C4.00781 30.0478 4.28248 30.3218 4.62129 30.3218Z" fill="#108CB9"/>
    <path d="M1.09395 32.3602C1.43277 32.3602 1.70743 32.0861 1.70743 31.7481C1.70743 31.41 1.43277 31.136 1.09395 31.136C0.755134 31.136 0.480469 31.41 0.480469 31.7481C0.480469 32.0861 0.755134 32.3602 1.09395 32.3602Z" fill="#108CB9"/>
    <path d="M4.54317 25.1038C4.88199 25.1038 5.15665 24.8298 5.15665 24.4917C5.15665 24.1537 4.88199 23.8796 4.54317 23.8796C4.20435 23.8796 3.92969 24.1537 3.92969 24.4917C3.92969 24.8298 4.20435 25.1038 4.54317 25.1038Z" fill="#108CB9"/>
    <path fill-rule="evenodd" clip-rule="evenodd" d="M4.72693 29.5781L9.23807 32.2509L9.08145 32.5141L4.57031 29.8413L4.72693 29.5781Z" fill="#108CB9"/>
    <path d="M9.13204 33.012C9.47085 33.012 9.74552 32.738 9.74552 32.3999C9.74552 32.0619 9.47085 31.7878 9.13204 31.7878C8.79322 31.7878 8.51855 32.0619 8.51855 32.3999C8.51855 32.738 8.79322 33.012 9.13204 33.012Z" fill="#108CB9"/>
    <path fill-rule="evenodd" clip-rule="evenodd" d="M0.922852 31.686L4.57205 29.5774L4.72578 29.8422L1.07658 31.9509L0.922852 31.686Z" fill="#108CB9"/>
    <path fill-rule="evenodd" clip-rule="evenodd" d="M38.1603 10.4326L33.6777 7.74348L33.8358 7.4812L38.3183 10.1703L38.1603 10.4326Z" fill="#108CB9"/>
    <path d="M38.2531 10.8899C38.5919 10.8899 38.8666 10.6159 38.8666 10.2779C38.8666 9.93981 38.5919 9.66577 38.2531 9.66577C37.9143 9.66577 37.6396 9.93981 37.6396 10.2779C37.6396 10.6159 37.9143 10.8899 38.2531 10.8899Z" fill="#108CB9"/>
    <path d="M41.7815 8.85186C42.1203 8.85186 42.3949 8.57782 42.3949 8.23977C42.3949 7.90173 42.1203 7.62769 41.7815 7.62769C41.4426 7.62769 41.168 7.90173 41.168 8.23977C41.168 8.57782 41.4426 8.85186 41.7815 8.85186Z" fill="#108CB9"/>
    <path d="M33.757 8.22442C34.0959 8.22442 34.3705 7.95038 34.3705 7.61233C34.3705 7.27429 34.0959 7.00024 33.757 7.00024C33.4182 7.00024 33.1436 7.27429 33.1436 7.61233C33.1436 7.95038 33.4182 8.22442 33.757 8.22442Z" fill="#108CB9"/>
    <path fill-rule="evenodd" clip-rule="evenodd" d="M38.3926 10.2991L38.4704 15.5345L38.1636 15.539L38.0859 10.3036L38.3926 10.2991Z" fill="#108CB9"/>
    <path d="M38.3459 16.1316C38.6847 16.1316 38.9594 15.8576 38.9594 15.5196C38.9594 15.1815 38.6847 14.9075 38.3459 14.9075C38.0071 14.9075 37.7324 15.1815 37.7324 15.5196C37.7324 15.8576 38.0071 16.1316 38.3459 16.1316Z" fill="#108CB9"/>
    <path fill-rule="evenodd" clip-rule="evenodd" d="M41.9659 8.32615L38.3168 10.4338L38.1631 10.1689L41.8123 8.06128L41.9659 8.32615Z" fill="#108CB9"/>
    <path d="M26.0825 11.3073L21.4231 8.62329L16.7637 11.3073L21.4231 13.9913L26.0825 11.3073Z" fill="#9589EA"/>
    <path d="M21.4231 19.3594V13.9914L16.7637 11.3074V16.6754L21.4231 19.3594Z" fill="#6559A2"/>
    <path d="M21.4229 19.3594V13.9914L26.0823 11.3074V16.6754L21.4229 19.3594Z" fill="#6559A2"/>
    <path d="M21.4228 8.50586L16.6611 11.249V16.7344L21.4228 19.4776L26.1844 16.7344V11.249L21.4228 8.50586ZM25.8777 11.3072L21.4228 13.8739L16.9679 11.3082L21.4228 8.74151L25.8777 11.3082V11.3072ZM16.8656 11.4837L21.3205 14.0493V19.1817L16.8656 16.615V11.4827V11.4837ZM21.525 19.1817V14.0493L25.9799 11.4827V16.615L21.525 19.1817Z" fill="#1C2135"/>
    <path d="M20.9702 20.2846L16.3108 17.6006L11.6514 20.2846L16.3108 22.9686L20.9702 20.2846Z" fill="#6559A2"/>
    <path d="M16.3108 28.3367V22.9687L11.6514 20.2847V25.6527L16.3108 28.3367Z" fill="#9589EA"/>
    <path d="M16.3105 28.3367V22.9687L20.97 20.2847V25.6527L16.3105 28.3367Z" fill="#6559A2"/>
    <path d="M16.3105 17.4832L11.5488 20.2263V25.7117L16.3105 28.4548L21.0721 25.7117V20.2263L16.3105 17.4832ZM20.7654 20.2845L16.3105 22.8512L11.8556 20.2855L16.3105 17.7188L20.7654 20.2855V20.2845ZM11.7533 20.461L16.2082 23.0266V28.159L11.7533 25.5923V20.4599V20.461ZM16.4127 28.159V23.0266L20.8676 20.4599V25.5923L16.4127 28.159Z" fill="#1C2135"/>
    <path d="M31.1948 20.2846L26.5354 17.6006L21.876 20.2846L26.5354 22.9686L31.1948 20.2846Z" fill="#6559A2"/>
    <path d="M26.5354 28.3367V22.9687L21.876 20.2847V25.6527L26.5354 28.3367Z" fill="#6559A2"/>
    <path d="M26.5352 28.3367V22.9687L31.1946 20.2847V25.6527L26.5352 28.3367Z" fill="#9589EA"/>
    <path d="M26.5361 17.4832L21.7744 20.2263V25.7117L26.5361 28.4548L31.2977 25.7117V20.2263L26.5361 17.4832ZM30.991 20.2845L26.5361 22.8512L22.0812 20.2855L26.5361 17.7188L30.991 20.2855V20.2845ZM21.9789 20.461L26.4338 23.0266V28.159L21.9789 25.5933V20.461ZM26.6383 28.16V23.0277L31.0932 20.461V25.5933L26.6383 28.16Z" fill="#1C2135"/>
    <path d="M31.1948 14.3676L26.5354 11.6836L21.876 14.3676L26.5354 17.0516L31.1948 14.3676Z" fill="#9589EA"/>
    <path d="M26.5354 22.4197V17.0517L21.876 14.3677V19.7357L26.5354 22.4197Z" fill="#6559A2"/>
    <path d="M26.5352 22.4197V17.0517L31.1946 14.3677V19.7357L26.5352 22.4197Z" fill="#9589EA"/>
    <path d="M26.5361 11.5664L21.7744 14.3096V19.7949L26.5361 22.5381L31.2977 19.7949V14.3096L26.5361 11.5664ZM30.991 14.3677L26.5361 16.9344L22.0812 14.3688L26.5361 11.8021L30.991 14.3688V14.3677ZM21.9789 14.5442L26.4338 17.1099V22.2423L21.9789 19.6766V14.5442ZM26.6383 22.2433V17.1109L31.0932 14.5442V19.6766L26.6383 22.2433Z" fill="#1C2135"/>
    <path d="M20.9702 14.3676L16.3108 11.6836L11.6514 14.3676L16.3108 17.0516L20.9702 14.3676Z" fill="#9589EA"/>
    <path d="M16.3108 22.4197V17.0517L11.6514 14.3677V19.7357L16.3108 22.4197Z" fill="#9589EA"/>
    <path d="M16.3105 22.4197V17.0517L20.97 14.3677V19.7357L16.3105 22.4197Z" fill="#6559A2"/>
    <path d="M16.3105 11.5664L11.5488 14.3096V19.7949L16.3105 22.5381L21.0721 19.7949V14.3096L16.3105 11.5664ZM20.7654 14.3677L16.3105 16.9344L11.8556 14.3688L16.3105 11.8021L20.7654 14.3688V14.3677ZM11.7533 14.5442L16.2082 17.1099V22.2423L11.7533 19.6756V14.5432V14.5442ZM16.4127 22.2423V17.1099L20.8676 14.5432V19.6756L16.4127 22.2423Z" fill="#1C2135"/>
    <path d="M26.0825 23.2428L21.4231 20.5588L16.7637 23.2428L21.4231 25.9269L26.0825 23.2428Z" fill="#6559A2"/>
    <path d="M21.4231 31.2949V25.9269L16.7637 23.2429V28.6109L21.4231 31.2949Z" fill="#9589EA"/>
    <path d="M21.4229 31.2949V25.9269L26.0823 23.2429V28.6109L21.4229 31.2949Z" fill="#9589EA"/>
    <path d="M21.4228 20.4417L16.6611 23.1848V28.6702L21.4228 31.4133L26.1844 28.6702V23.1848L21.4228 20.4417ZM25.8777 23.243L21.4228 25.8097L16.9679 23.244L21.4228 20.6773L25.8777 23.244V23.243ZM16.8656 23.4195L21.3205 25.9851V31.1175L16.8656 28.5518V23.4195ZM21.525 31.1185V25.9862L25.9799 23.4195V28.5518L21.525 31.1185Z" fill="#1C2135"/>
    <path d="M26.0825 17.4282L21.4231 14.7441L16.7637 17.4282L21.4231 20.1122L26.0825 17.4282Z" fill="#9589EA"/>
    <path d="M21.4231 25.4803V20.1122L16.7637 17.4282V22.7962L21.4231 25.4803Z" fill="#9589EA"/>
    <path d="M21.4229 25.4803V20.1122L26.0823 17.4282V22.7962L21.4229 25.4803Z" fill="#9589EA"/>
    <path d="M21.4228 25.5984L16.6611 22.8552V17.3699L21.4228 14.6267L26.1844 17.3699V22.8552L21.4228 25.5984ZM16.8656 22.7379L21.4228 25.3627L25.9799 22.7379V17.4872L21.4228 14.8624L16.8656 17.4872V22.7369V22.7379Z" fill="#1C2135"/>
    <path d="M16.8161 17.3423L16.7139 17.519L21.3733 20.2031L21.4755 20.0264L16.8161 17.3423Z" fill="#1C2135"/>
    <path d="M26.0349 17.3507L21.375 20.0339L21.4772 20.2106L26.1371 17.5275L26.0349 17.3507Z" fill="#1C2135"/>
    <path d="M21.5248 20.1121H21.3203V25.4801H21.5248V20.1121Z" fill="#1C2135"/>
    <path d="M36.2146 11.2636L21.6465 2.87183V8.17252L31.6135 13.9139L36.2146 11.2636Z" fill="#71BEDB"/>
    <path d="M21.851 3.2246L35.8067 11.2634L31.6145 13.6781L21.851 8.05398V3.2246ZM21.6465 2.87163V8.17231L31.6145 13.9137L36.2157 11.2634L21.6465 2.87061V2.87163Z" fill="#1C2135"/>
    <path d="M11.2408 13.93L21.2375 8.17227V2.87158L6.63965 11.2796L11.2408 13.93Z" fill="#71BEDB"/>
    <path d="M21.0329 3.22455V8.05393L11.2417 13.6943L7.04961 11.2796L21.0329 3.22455ZM21.2374 2.87158L6.64062 11.2796L11.2417 13.93L21.2374 8.17227V2.87158Z" fill="#1C2135"/>
    <path d="M31.8096 14.2717V25.779L36.4107 28.4293V11.6213L31.8096 14.2717Z" fill="#71BEDB"/>
    <path d="M36.2062 11.9753V28.0763L32.0141 25.6616V14.39L36.2062 11.9753ZM36.4107 11.6224L31.8096 14.2727V25.779L36.4107 28.4293V11.6213V11.6224Z" fill="#1C2135"/>
    <path d="M11.0728 14.3044L6.47168 11.6541V28.3967L11.0728 25.7464V14.3044Z" fill="#71BEDB"/>
    <path d="M6.67617 12.007L10.8683 14.4217V25.628L6.67617 28.0427V12.007ZM6.47168 11.6541V28.3967L11.0728 25.7464V14.3044L6.47168 11.6541Z" fill="#1C2135"/>
    <path d="M6.68457 28.7456L21.2374 37.1281V31.8274L11.2857 26.0952L6.68457 28.7456Z" fill="#71BEDB"/>
    <path d="M11.2857 26.3309L21.0329 31.9458V36.7751L7.09356 28.7456L11.2857 26.3309ZM11.2857 26.0952L6.68457 28.7456L21.2374 37.1281V31.8274L11.2857 26.0952Z" fill="#1C2135"/>
    <path d="M21.6465 31.8275V37.1282L36.1707 28.7619L31.5696 26.1116L21.6465 31.8275Z" fill="#71BEDB"/>
    <path d="M31.5696 26.3472L35.7617 28.7619L21.85 36.7752V31.9458L31.5696 26.3472ZM31.5696 26.1116L21.6455 31.8285V37.1292L36.1707 28.7619L31.5696 26.1116Z" fill="#1C2135"/>
    <path d="M26.0825 17.4282L21.4231 14.7441L16.7637 17.4282L21.4231 20.1122L26.0825 17.4282Z" fill="#9589EA"/>
    <path d="M21.4231 25.4803V20.1122L16.7637 17.4282V22.7962L21.4231 25.4803Z" fill="#9589EA"/>
    <path d="M21.4229 25.4803V20.1122L26.0823 17.4282V22.7962L21.4229 25.4803Z" fill="#9589EA"/>
    <path d="M21.4228 14.6267L16.6611 17.3699V22.8552L21.4228 25.5984L26.1844 22.8552V17.3699L21.4228 14.6267ZM25.8777 17.428L21.4228 19.9947L16.9679 17.4291L21.4228 14.8624L25.8777 17.4291V17.428ZM16.8656 17.6045L21.3205 20.1702V25.3026L16.8656 22.7359V17.6035V17.6045ZM21.525 25.3026V20.1702L25.9799 17.6035V22.7359L21.525 25.3026Z" fill="#1C2135"/>
    <path d="M54.5 31.509V8.49105H57.709L62.5074 26.9514H61.69L66.4884 8.49105H69.6974V31.509H66.443V18.0972L66.8516 18.1739L63.2642 31.509H60.9331L57.3457 18.1739L57.7544 18.0972V31.509H54.5Z" fill="#1C2135"/>
    <path d="M79.6181 32C77.943 32 76.6009 31.4783 75.5917 30.4348C74.5927 29.3913 74.0932 28.0205 74.0932 26.3223V13.6777C74.0932 11.9693 74.5927 10.5985 75.5917 9.56522C76.6009 8.52174 77.943 8 79.6181 8C81.3034 8 82.6455 8.52174 83.6445 9.56522C84.6436 10.5985 85.1431 11.9693 85.1431 13.6777V26.3223C85.1431 28.0205 84.6436 29.3913 83.6445 30.4348C82.6455 31.4783 81.3034 32 79.6181 32ZM79.6181 28.4706C80.2539 28.4706 80.7534 28.2762 81.1167 27.8875C81.48 27.4885 81.6616 26.9668 81.6616 26.3223V13.6777C81.6616 13.0332 81.48 12.5166 81.1167 12.1279C80.7534 11.7289 80.2539 11.5294 79.6181 11.5294C78.9824 11.5294 78.4829 11.7289 78.1196 12.1279C77.7563 12.5166 77.5747 13.0332 77.5747 13.6777V26.3223C77.5747 26.9668 77.7563 27.4885 78.1196 27.8875C78.4829 28.2762 78.9824 28.4706 79.6181 28.4706Z" fill="#1C2135"/>
    <path d="M89.5335 31.509V8.49105H94.9827C96.668 8.49105 98.0101 9.01279 99.0091 10.0563C100.008 11.0895 100.508 12.4604 100.508 14.1688V25.8312C100.508 27.5294 100.008 28.9003 99.0091 29.9437C98.0101 30.9872 96.668 31.509 94.9827 31.509H89.5335ZM93.0149 27.9795H94.9827C95.6185 27.9795 96.118 27.7852 96.4813 27.3964C96.8445 26.9974 97.0262 26.4757 97.0262 25.8312V14.1688C97.0262 13.5243 96.8445 13.0077 96.4813 12.6189C96.118 12.2199 95.6185 12.0205 94.9827 12.0205H93.0149V27.9795Z" fill="#1C2135"/>
    <path d="M115.687 8.49105V26.3223C115.687 28.0205 115.188 29.3913 114.189 30.4348C113.189 31.4783 111.847 32 110.162 32C108.487 32 107.145 31.4783 106.136 30.4348C105.137 29.3913 104.637 28.0205 104.637 26.3223V8.49105H108.119V26.3223C108.119 26.9668 108.3 27.4885 108.664 27.8875C109.027 28.2762 109.526 28.4706 110.162 28.4706C110.798 28.4706 111.297 28.2762 111.661 27.8875C112.024 27.4885 112.206 26.9668 112.206 26.3223V8.49105H115.687Z" fill="#1C2135"/>
    <path d="M123.732 8.49105V27.9795H128.954V31.509H120.251V8.49105H123.732Z" fill="#1C2135"/>
    <path d="M141.149 8.49105V12.0205H135.321V17.7749H140.331V21.3043H135.321V27.9795H141.149V31.509H131.84V8.49105H141.149Z" fill="#1C2135"/>
    <path d="M151.825 31.509V8.49105H161.134V12.0205H155.306V20.0767H160.317V23.6061H155.306V31.509H151.825Z" fill="#1C2135"/>
    <path d="M173.581 8.49105V12.0205H167.753V17.7749H172.763V21.3043H167.753V27.9795H173.581V31.509H164.272V8.49105H173.581Z" fill="#1C2135"/>
    <path d="M177.25 31.509V8.49105H182.699C184.385 8.49105 185.727 9.01279 186.726 10.0563C187.725 11.0895 188.224 12.4604 188.224 14.1688V25.8312C188.224 27.5294 187.725 28.9003 186.726 29.9437C185.727 30.9872 184.385 31.509 182.699 31.509H177.25ZM180.732 27.9795H182.699C183.335 27.9795 183.835 27.7852 184.198 27.3964C184.561 26.9974 184.743 26.4757 184.743 25.8312V14.1688C184.743 13.5243 184.561 13.0077 184.198 12.6189C183.835 12.2199 183.335 12.0205 182.699 12.0205H180.732V27.9795Z" fill="#1C2135"/>
    <path d="M201.814 8.49105V12.0205H195.987V17.7749H200.997V21.3043H195.987V27.9795H201.814V31.509H192.505V8.49105H201.814Z" fill="#1C2135"/>
    <path d="M205.484 31.509V8.49105H211.084C212.729 8.49105 214.036 8.99744 215.005 10.0102C215.974 11.0128 216.458 12.3478 216.458 14.0153V17.4987C216.458 18.5831 216.246 19.5345 215.822 20.3529C215.398 21.1714 214.793 21.821 214.006 22.3018L213.764 21.1816C214.621 21.4987 215.282 21.9795 215.747 22.624C216.221 23.2685 216.458 24.0409 216.458 24.9412V31.509H212.977V24.9412C212.977 24.3683 212.81 23.9079 212.477 23.5601C212.144 23.202 211.68 23.023 211.084 23.023H208.965V31.509H205.484ZM208.965 19.4936H211.084C211.68 19.4936 212.144 19.3146 212.477 18.9565C212.81 18.5882 212.977 18.1023 212.977 17.4987V14.0153C212.977 13.4118 212.81 12.9309 212.477 12.5729C212.144 12.2046 211.68 12.0205 211.084 12.0205H208.965V19.4936Z" fill="#1C2135"/>
    <path d="M219.041 31.509L223.552 8.49105H227.306L231.756 31.509H228.184L227.518 27.5806H223.295L222.614 31.509H219.041ZM223.84 24.0512H226.973L225.187 13.3095H225.671L223.84 24.0512Z" fill="#1C2135"/>
    <path d="M235.72 31.509V12.0205H232.193V8.49105H242.713V12.0205H239.202V31.509H235.72Z" fill="#1C2135"/>
    <path d="M248.936 31.509H245.455V8.49105H248.936V31.509Z" fill="#1C2135"/>
    <path d="M258.865 32C257.19 32 255.848 31.4783 254.839 30.4348C253.84 29.3913 253.34 28.0205 253.34 26.3223V13.6777C253.34 11.9693 253.84 10.5985 254.839 9.56522C255.848 8.52174 257.19 8 258.865 8C260.551 8 261.893 8.52174 262.892 9.56522C263.891 10.5985 264.39 11.9693 264.39 13.6777V26.3223C264.39 28.0205 263.891 29.3913 262.892 30.4348C261.893 31.4783 260.551 32 258.865 32ZM258.865 28.4706C259.501 28.4706 260.001 28.2762 260.364 27.8875C260.727 27.4885 260.909 26.9668 260.909 26.3223V13.6777C260.909 13.0332 260.727 12.5166 260.364 12.1279C260.001 11.7289 259.501 11.5294 258.865 11.5294C258.23 11.5294 257.73 11.7289 257.367 12.1279C257.003 12.5166 256.822 13.0332 256.822 13.6777V26.3223C256.822 26.9668 257.003 27.4885 257.367 27.8875C257.73 28.2762 258.23 28.4706 258.865 28.4706Z" fill="#1C2135"/>
    <path d="M268.781 31.509V8.49105H271.475L277.288 24.6803L276.349 24.7263V8.49105H279.603V31.509H276.924L271.097 15.3043L272.035 15.2583V31.509H268.781Z" fill="#1C2135"/>
    </svg>
    