<svg width="345" height="40" xmlns="http://www.w3.org/2000/svg">
 <g class="layer">
  <title>Layer 1</title>
  <path id="svg_1" fill-rule="evenodd" fill="#108CB9" d="m21.52,0.5l4.57,2.52l-0.14,0.27l-4.58,-2.52l0.15,-0.27z" clip-rule="evenodd"/>
  <path id="svg_2" fill="#108CB9" d="m21.46,1.22c0.33,0 0.61,-0.27 0.61,-0.61c0,-0.34 -0.28,-0.61 -0.61,-0.61c-0.34,0 -0.62,0.27 -0.62,0.61c0,0.34 0.28,0.61 0.62,0.61z"/>
  <path id="svg_3" fill="#108CB9" d="m26.02,3.77c0.34,0 0.61,-0.27 0.61,-0.61c0,-0.34 -0.27,-0.61 -0.61,-0.61c-0.34,0 -0.61,0.27 -0.61,0.61c0,0.34 0.27,0.61 0.61,0.61z"/>
  <path id="svg_4" fill-rule="evenodd" fill="#108CB9" d="m21.52,0.77l-4.58,2.56l-0.15,-0.27l4.58,-2.56l0.15,0.27z" clip-rule="evenodd"/>
  <path id="svg_5" fill="#108CB9" d="m16.86,3.77c0.34,0 0.62,-0.27 0.62,-0.61c0,-0.34 -0.28,-0.61 -0.62,-0.61c-0.34,0 -0.61,0.27 -0.61,0.61c0,0.34 0.27,0.61 0.61,0.61z"/>
  <path id="svg_6" fill-rule="evenodd" fill="#108CB9" d="m21.37,39.23l4.58,-2.52l0.14,0.26l-4.57,2.53l-0.15,-0.27z" clip-rule="evenodd"/>
  <path id="svg_7" fill="#108CB9" d="m21.46,40c0.33,0 0.61,-0.27 0.61,-0.61c0,-0.34 -0.28,-0.61 -0.61,-0.61c-0.34,0 -0.62,0.27 -0.62,0.61c0,0.34 0.28,0.61 0.62,0.61z"/>
  <path id="svg_8" fill="#108CB9" d="m26.02,37.45c0.34,0 0.61,-0.27 0.61,-0.61c0,-0.34 -0.27,-0.61 -0.61,-0.61c-0.34,0 -0.61,0.27 -0.61,0.61c0,0.34 0.27,0.61 0.61,0.61z"/>
  <path id="svg_9" fill-rule="evenodd" fill="#108CB9" d="m21.37,39.5l-4.58,-2.56l0.15,-0.27l4.58,2.56l-0.15,0.27z" clip-rule="evenodd"/>
  <path id="svg_10" fill="#108CB9" d="m16.86,37.45c0.34,0 0.62,-0.27 0.62,-0.61c0,-0.34 -0.28,-0.61 -0.62,-0.61c-0.34,0 -0.61,0.27 -0.61,0.61c0,0.34 0.27,0.61 0.61,0.61z"/>
  <path id="svg_11" fill-rule="evenodd" fill="#108CB9" d="m4.53,10.23l4.47,-2.71l0.16,0.26l-4.47,2.71l-0.16,-0.26z" clip-rule="evenodd"/>
  <path id="svg_12" fill="#108CB9" d="m4.6,10.95c0.34,0 0.61,-0.28 0.61,-0.62c0,-0.34 -0.27,-0.61 -0.61,-0.61c-0.34,0 -0.62,0.27 -0.62,0.61c0,0.34 0.28,0.62 0.62,0.62z"/>
  <path id="svg_13" fill="#108CB9" d="m1.06,8.92c0.34,0 0.62,-0.27 0.62,-0.61c0,-0.34 -0.28,-0.61 -0.62,-0.61c-0.34,0 -0.61,0.27 -0.61,0.61c0,0.34 0.27,0.61 0.61,0.61z"/>
  <path id="svg_14" fill="#108CB9" d="m9.08,8.26c0.34,0 0.62,-0.27 0.62,-0.61c0,-0.34 -0.28,-0.61 -0.62,-0.61c-0.33,0 -0.61,0.27 -0.61,0.61c0,0.34 0.28,0.61 0.61,0.61z"/>
  <path id="svg_15" fill-rule="evenodd" fill="#108CB9" d="m4.76,10.36l-0.05,5.23l-0.31,0l0.06,-5.23l0.3,0z" clip-rule="evenodd"/>
  <path id="svg_16" fill="#108CB9" d="m4.52,16.19c0.34,0 0.62,-0.28 0.62,-0.61c0,-0.34 -0.28,-0.62 -0.62,-0.62c-0.34,0 -0.61,0.28 -0.61,0.62c0,0.33 0.27,0.61 0.61,0.61z"/>
  <path id="svg_17" fill-rule="evenodd" fill="#108CB9" d="m1.03,8.13l3.66,2.09l-0.16,0.27l-3.65,-2.09l0.15,-0.27z" clip-rule="evenodd"/>
  <path id="svg_18" fill-rule="evenodd" fill="#108CB9" d="m38.12,29.64l0.09,-5.22l0.3,0.01l-0.09,5.22l-0.3,-0.01z" clip-rule="evenodd"/>
  <path id="svg_19" fill="#108CB9" d="m38.3,30.25c0.34,0 0.61,-0.27 0.61,-0.61c0,-0.34 -0.27,-0.61 -0.61,-0.61c-0.34,0 -0.61,0.27 -0.61,0.61c0,0.34 0.27,0.61 0.61,0.61z"/>
  <path id="svg_20" fill="#108CB9" d="m41.83,32.28c0.34,0 0.62,-0.27 0.62,-0.61c0,-0.34 -0.28,-0.61 -0.62,-0.61c-0.33,0 -0.61,0.27 -0.61,0.61c0,0.34 0.28,0.61 0.61,0.61z"/>
  <path id="svg_21" fill="#108CB9" d="m38.36,25.04c0.34,0 0.61,-0.28 0.61,-0.62c0,-0.33 -0.27,-0.61 -0.61,-0.61c-0.34,0 -0.61,0.28 -0.61,0.61c0,0.34 0.27,0.62 0.61,0.62z"/>
  <path id="svg_22" fill-rule="evenodd" fill="#108CB9" d="m38.35,29.77l-4.5,2.69l-0.16,-0.26l4.5,-2.69l0.16,0.26z" clip-rule="evenodd"/>
  <path id="svg_23" fill="#108CB9" d="m33.8,32.96c0.34,0 0.61,-0.27 0.61,-0.61c0,-0.34 -0.27,-0.61 -0.61,-0.61c-0.34,0 -0.62,0.27 -0.62,0.61c0,0.34 0.28,0.61 0.62,0.61z"/>
  <path id="svg_24" fill-rule="evenodd" fill="#108CB9" d="m41.85,31.87l-3.65,-2.09l0.15,-0.27l3.66,2.1l-0.16,0.26z" clip-rule="evenodd"/>
  <path id="svg_25" fill-rule="evenodd" fill="#108CB9" d="m4.5,29.71l-0.11,-5.22l0.31,0l0.1,5.22l-0.3,0z" clip-rule="evenodd"/>
  <path id="svg_26" fill="#108CB9" d="m4.62,30.32c0.34,0 0.61,-0.27 0.61,-0.61c0,-0.34 -0.27,-0.61 -0.61,-0.61c-0.34,0 -0.61,0.27 -0.61,0.61c0,0.34 0.27,0.61 0.61,0.61z"/>
  <path id="svg_27" fill="#108CB9" d="m1.09,32.36c0.34,0 0.62,-0.27 0.62,-0.61c0,-0.34 -0.28,-0.61 -0.62,-0.61c-0.33,0 -0.61,0.27 -0.61,0.61c0,0.34 0.28,0.61 0.61,0.61z"/>
  <path id="svg_28" fill="#108CB9" d="m4.54,25.1c0.34,0 0.62,-0.27 0.62,-0.61c0,-0.34 -0.28,-0.61 -0.62,-0.61c-0.34,0 -0.61,0.27 -0.61,0.61c0,0.34 0.27,0.61 0.61,0.61z"/>
  <path id="svg_29" fill-rule="evenodd" fill="#108CB9" d="m4.73,29.58l4.51,2.67l-0.16,0.26l-4.51,-2.67l0.16,-0.26z" clip-rule="evenodd"/>
  <path id="svg_30" fill="#108CB9" d="m9.13,33.01c0.34,0 0.62,-0.27 0.62,-0.61c0,-0.34 -0.28,-0.61 -0.62,-0.61c-0.34,0 -0.61,0.27 -0.61,0.61c0,0.34 0.27,0.61 0.61,0.61z"/>
  <path id="svg_31" fill-rule="evenodd" fill="#108CB9" d="m0.92,31.69l3.65,-2.11l0.16,0.26l-3.65,2.11l-0.16,-0.26z" clip-rule="evenodd"/>
  <path id="svg_32" fill-rule="evenodd" fill="#108CB9" d="m38.16,10.43l-4.48,-2.69l0.16,-0.26l4.48,2.69l-0.16,0.26z" clip-rule="evenodd"/>
  <path id="svg_33" fill="#108CB9" d="m38.25,10.89c0.34,0 0.62,-0.27 0.62,-0.61c0,-0.34 -0.28,-0.61 -0.62,-0.61c-0.34,0 -0.61,0.27 -0.61,0.61c0,0.34 0.27,0.61 0.61,0.61z"/>
  <path id="svg_34" fill="#108CB9" d="m41.78,8.85c0.34,0 0.61,-0.27 0.61,-0.61c0,-0.34 -0.27,-0.61 -0.61,-0.61c-0.34,0 -0.61,0.27 -0.61,0.61c0,0.34 0.27,0.61 0.61,0.61z"/>
  <path id="svg_35" fill="#108CB9" d="m33.76,8.22c0.34,0 0.61,-0.27 0.61,-0.61c0,-0.34 -0.27,-0.61 -0.61,-0.61c-0.34,0 -0.62,0.27 -0.62,0.61c0,0.34 0.28,0.61 0.62,0.61z"/>
  <path id="svg_36" fill-rule="evenodd" fill="#108CB9" d="m38.39,10.3l0.08,5.23l-0.31,0.01l-0.07,-5.24l0.3,0z" clip-rule="evenodd"/>
  <path id="svg_37" fill="#108CB9" d="m38.35,16.13c0.33,0 0.61,-0.27 0.61,-0.61c0,-0.34 -0.28,-0.61 -0.61,-0.61c-0.34,0 -0.62,0.27 -0.62,0.61c0,0.34 0.28,0.61 0.62,0.61z"/>
  <path id="svg_38" fill-rule="evenodd" fill="#108CB9" d="m41.97,8.33l-3.65,2.1l-0.16,-0.26l3.65,-2.11l0.16,0.27z" clip-rule="evenodd"/>
  <path id="svg_39" fill="#9589EA" d="m26.08,11.31l-4.66,-2.69l-4.66,2.69l4.66,2.68l4.66,-2.68z"/>
  <path id="svg_40" fill="#6559A2" d="m21.42,19.36l0,-5.37l-4.66,-2.68l0,5.37l4.66,2.68z"/>
  <path id="svg_41" fill="#6559A2" d="m21.42,19.36l0,-5.37l4.66,-2.68l0,5.37l-4.66,2.68z"/>
  <path id="svg_42" fill="#1C2135" d="m21.42,8.51l-4.76,2.74l0,5.48l4.76,2.75l4.76,-2.75l0,-5.48l-4.76,-2.74zm4.46,2.8l-4.46,2.56l-4.45,-2.56l4.45,-2.57l4.46,2.57l0,0zm-9.01,0.17l4.45,2.57l0,5.13l-4.45,-2.57l0,-5.13l0,0zm4.65,7.7l0,-5.13l4.46,-2.57l0,5.13l-4.46,2.57z"/>
  <path id="svg_43" fill="#6559A2" d="m20.97,20.28l-4.66,-2.68l-4.66,2.68l4.66,2.69l4.66,-2.69z"/>
  <path id="svg_44" fill="#9589EA" d="m16.31,28.34l0,-5.37l-4.66,-2.69l0,5.37l4.66,2.69z"/>
  <path id="svg_45" fill="#6559A2" d="m16.31,28.34l0,-5.37l4.66,-2.69l0,5.37l-4.66,2.69z"/>
  <path id="svg_46" fill="#1C2135" d="m16.31,17.48l-4.76,2.75l0,5.48l4.76,2.74l4.76,-2.74l0,-5.48l-4.76,-2.75zm4.46,2.8l-4.46,2.57l-4.45,-2.56l4.45,-2.57l4.46,2.57l0,-0.01zm-9.02,0.18l4.46,2.57l0,5.13l-4.46,-2.57l0,-5.13l0,0zm4.66,7.7l0,-5.13l4.46,-2.57l0,5.13l-4.46,2.57z"/>
  <path id="svg_47" fill="#6559A2" d="m31.19,20.28l-4.65,-2.68l-4.66,2.68l4.66,2.69l4.65,-2.69z"/>
  <path id="svg_48" fill="#6559A2" d="m26.54,28.34l0,-5.37l-4.66,-2.69l0,5.37l4.66,2.69z"/>
  <path id="svg_49" fill="#9589EA" d="m26.54,28.34l0,-5.37l4.65,-2.69l0,5.37l-4.65,2.69z"/>
  <path id="svg_50" fill="#1C2135" d="m26.54,17.48l-4.77,2.75l0,5.48l4.77,2.74l4.76,-2.74l0,-5.48l-4.76,-2.75zm4.45,2.8l-4.45,2.57l-4.46,-2.56l4.46,-2.57l4.45,2.57l0,-0.01zm-9.01,0.18l4.45,2.57l0,5.13l-4.45,-2.57l0,-5.13zm4.66,7.7l0,-5.13l4.45,-2.57l0,5.13l-4.45,2.57z"/>
  <path id="svg_51" fill="#9589EA" d="m31.19,14.37l-4.65,-2.69l-4.66,2.69l4.66,2.68l4.65,-2.68z"/>
  <path id="svg_52" fill="#6559A2" d="m26.54,22.42l0,-5.37l-4.66,-2.68l0,5.37l4.66,2.68z"/>
  <path id="svg_53" fill="#9589EA" d="m26.54,22.42l0,-5.37l4.65,-2.68l0,5.37l-4.65,2.68z"/>
  <path id="svg_54" fill="#1C2135" d="m26.54,11.57l-4.77,2.74l0,5.48l4.77,2.75l4.76,-2.75l0,-5.48l-4.76,-2.74zm4.45,2.8l-4.45,2.56l-4.46,-2.56l4.46,-2.57l4.45,2.57l0,0zm-9.01,0.17l4.45,2.57l0,5.13l-4.45,-2.56l0,-5.14zm4.66,7.7l0,-5.13l4.45,-2.57l0,5.14l-4.45,2.56z"/>
  <path id="svg_55" fill="#9589EA" d="m20.97,14.37l-4.66,-2.69l-4.66,2.69l4.66,2.68l4.66,-2.68z"/>
  <path id="svg_56" fill="#9589EA" d="m16.31,22.42l0,-5.37l-4.66,-2.68l0,5.37l4.66,2.68z"/>
  <path id="svg_57" fill="#6559A2" d="m16.31,22.42l0,-5.37l4.66,-2.68l0,5.37l-4.66,2.68z"/>
  <path id="svg_58" fill="#1C2135" d="m16.31,11.57l-4.76,2.74l0,5.48l4.76,2.75l4.76,-2.75l0,-5.48l-4.76,-2.74zm4.46,2.8l-4.46,2.56l-4.45,-2.56l4.45,-2.57l4.46,2.57l0,0zm-9.02,0.17l4.46,2.57l0,5.13l-4.46,-2.56l0,-5.14l0,0zm4.66,7.7l0,-5.13l4.46,-2.57l0,5.14l-4.46,2.56z"/>
  <path id="svg_59" fill="#6559A2" d="m26.08,23.24l-4.66,-2.68l-4.66,2.68l4.66,2.69l4.66,-2.69z"/>
  <path id="svg_60" fill="#9589EA" d="m21.42,31.29l0,-5.36l-4.66,-2.69l0,5.37l4.66,2.68z"/>
  <path id="svg_61" fill="#9589EA" d="m21.42,31.29l0,-5.36l4.66,-2.69l0,5.37l-4.66,2.68z"/>
  <path id="svg_62" fill="#1C2135" d="m21.42,20.44l-4.76,2.74l0,5.49l4.76,2.74l4.76,-2.74l0,-5.49l-4.76,-2.74zm4.46,2.8l-4.46,2.57l-4.45,-2.57l4.45,-2.56l4.46,2.56l0,0zm-9.01,0.18l4.45,2.57l0,5.13l-4.45,-2.57l0,-5.13zm4.65,7.7l0,-5.13l4.46,-2.57l0,5.13l-4.46,2.57z"/>
  <path id="svg_63" fill="#9589EA" d="m26.08,17.43l-4.66,-2.69l-4.66,2.69l4.66,2.68l4.66,-2.68z"/>
  <path id="svg_64" fill="#9589EA" d="m21.42,25.48l0,-5.37l-4.66,-2.68l0,5.37l4.66,2.68z"/>
  <path id="svg_65" fill="#9589EA" d="m21.42,25.48l0,-5.37l4.66,-2.68l0,5.37l-4.66,2.68z"/>
  <path id="svg_66" fill="#1C2135" d="m21.42,25.6l-4.76,-2.74l0,-5.49l4.76,-2.74l4.76,2.74l0,5.49l-4.76,2.74zm-4.55,-2.86l4.55,2.62l4.56,-2.62l0,-5.25l-4.56,-2.63l-4.55,2.63l0,5.25l0,0z"/>
  <path id="svg_67" fill="#1C2135" d="m16.82,17.34l-0.11,0.18l4.66,2.68l0.11,-0.17l-4.66,-2.69z"/>
  <path id="svg_68" fill="#1C2135" d="m26.03,17.35l-4.65,2.68l0.1,0.18l4.66,-2.68l-0.11,-0.18z"/>
  <path id="svg_69" fill="#1C2135" d="m21.52,20.11l-0.2,0l0,5.37l0.2,0l0,-5.37z"/>
  <path id="svg_70" fill="#71BEDB" d="m36.21,11.26l-14.56,-8.39l0,5.3l9.96,5.74l4.6,-2.65z"/>
  <path id="svg_71" fill="#1C2135" d="m21.85,3.22l13.96,8.04l-4.2,2.42l-9.76,-5.63l0,-4.83zm-0.2,-0.35l0,5.3l9.96,5.74l4.61,-2.65l-14.57,-8.39l0,0z"/>
  <path id="svg_72" fill="#71BEDB" d="m11.24,13.93l10,-5.76l0,-5.3l-14.6,8.41l4.6,2.65z"/>
  <path id="svg_73" fill="#1C2135" d="m21.03,3.22l0,4.83l-9.79,5.64l-4.19,-2.41l13.98,-8.06zm0.21,-0.35l-14.6,8.41l4.6,2.65l10,-5.76l0,-5.3z"/>
  <path id="svg_74" fill="#71BEDB" d="m31.81,14.27l0,11.51l4.6,2.65l0,-16.81l-4.6,2.65z"/>
  <path id="svg_75" fill="#1C2135" d="m36.21,11.98l0,16.1l-4.2,-2.42l0,-11.27l4.2,-2.41zm0.2,-0.36l-4.6,2.65l0,11.51l4.6,2.65l0,-16.81l0,0z"/>
  <path id="svg_76" fill="#71BEDB" d="m11.07,14.3l-4.6,-2.65l0,16.75l4.6,-2.65l0,-11.45z"/>
  <path id="svg_77" fill="#1C2135" d="m6.68,12.01l4.19,2.41l0,11.21l-4.19,2.41l0,-16.03zm-0.21,-0.36l0,16.75l4.6,-2.65l0,-11.45l-4.6,-2.65z"/>
  <path id="svg_78" fill="#71BEDB" d="m6.68,28.75l14.56,8.38l0,-5.3l-9.95,-5.73l-4.61,2.65z"/>
  <path id="svg_79" fill="#1C2135" d="m11.29,26.33l9.74,5.62l0,4.83l-13.94,-8.03l4.2,-2.42zm0,-0.23l-4.61,2.65l14.56,8.38l0,-5.3l-9.95,-5.73z"/>
  <path id="svg_80" fill="#71BEDB" d="m21.65,31.83l0,5.3l14.52,-8.37l-4.6,-2.65l-9.92,5.72z"/>
  <path id="svg_81" fill="#1C2135" d="m31.57,26.35l4.19,2.41l-13.91,8.02l0,-4.83l9.72,-5.6zm0,-0.24l-9.92,5.72l0,5.3l14.52,-8.37l-4.6,-2.65z"/>
  <path id="svg_82" fill="#9589EA" d="m26.08,17.43l-4.66,-2.69l-4.66,2.69l4.66,2.68l4.66,-2.68z"/>
  <path id="svg_83" fill="#9589EA" d="m21.42,25.48l0,-5.37l-4.66,-2.68l0,5.37l4.66,2.68z"/>
  <path id="svg_84" fill="#9589EA" d="m21.42,25.48l0,-5.37l4.66,-2.68l0,5.37l-4.66,2.68z"/>
  <path id="svg_85" fill="#1C2135" d="m21.42,14.63l-4.76,2.74l0,5.49l4.76,2.74l4.76,-2.74l0,-5.49l-4.76,-2.74zm4.46,2.8l-4.46,2.56l-4.45,-2.56l4.45,-2.57l4.46,2.57l0,0zm-9.01,0.17l4.45,2.57l0,5.13l-4.45,-2.56l0,-5.14l0,0zm4.65,7.7l0,-5.13l4.46,-2.57l0,5.14l-4.46,2.56z"/>
  <path id="svg_86" fill="#ffffff" d="m54.5,31.51l0,-23.02l3.21,0l4.8,18.46l-0.82,0l4.8,-18.46l3.21,0l0,23.02l-3.26,0l0,-13.41l0.41,0.07l-3.59,13.34l-2.33,0l-3.58,-13.34l0.4,-0.07l0,13.41l-3.25,0z"/>
  <path id="svg_87" fill="#ffffff" d="m79.62,32c-1.68,0 -3.02,-0.52 -4.03,-1.57c-1,-1.04 -1.5,-2.41 -1.5,-4.11l0,-12.64c0,-1.71 0.5,-3.08 1.5,-4.11c1.01,-1.05 2.35,-1.57 4.03,-1.57c1.68,0 3.03,0.52 4.02,1.57c1,1.03 1.5,2.4 1.5,4.11l0,12.64c0,1.7 -0.5,3.07 -1.5,4.11c-0.99,1.05 -2.34,1.57 -4.02,1.57zm0,-3.53c0.63,0 1.13,-0.19 1.5,-0.58c0.36,-0.4 0.54,-0.92 0.54,-1.57l0,-12.64c0,-0.65 -0.18,-1.16 -0.54,-1.55c-0.37,-0.4 -0.87,-0.6 -1.5,-0.6c-0.64,0 -1.14,0.2 -1.5,0.6c-0.36,0.39 -0.55,0.9 -0.55,1.55l0,12.64c0,0.65 0.19,1.17 0.55,1.57c0.36,0.39 0.86,0.58 1.5,0.58z"/>
  <path id="svg_88" fill="#ffffff" d="m89.53,31.51l0,-23.02l5.45,0c1.69,0 3.03,0.52 4.03,1.57c1,1.03 1.5,2.4 1.5,4.11l0,11.66c0,1.7 -0.5,3.07 -1.5,4.11c-1,1.05 -2.34,1.57 -4.03,1.57l-5.45,0zm3.48,-3.53l1.97,0c0.64,0 1.14,-0.19 1.5,-0.58c0.36,-0.4 0.55,-0.92 0.55,-1.57l0,-11.66c0,-0.65 -0.19,-1.16 -0.55,-1.55c-0.36,-0.4 -0.86,-0.6 -1.5,-0.6l-1.97,0l0,15.96z"/>
  <path id="svg_89" fill="#ffffff" d="m115.69,8.49l0,17.83c0,1.7 -0.5,3.07 -1.5,4.11c-1,1.05 -2.34,1.57 -4.03,1.57c-1.67,0 -3.02,-0.52 -4.02,-1.57c-1,-1.04 -1.5,-2.41 -1.5,-4.11l0,-17.83l3.48,0l0,17.83c0,0.65 0.18,1.17 0.54,1.57c0.37,0.39 0.87,0.58 1.5,0.58c0.64,0 1.14,-0.19 1.5,-0.58c0.36,-0.4 0.55,-0.92 0.55,-1.57l0,-17.83l3.48,0z"/>
  <path id="svg_90" fill="#ffffff" d="m123.73,8.49l0,19.49l5.22,0l0,3.53l-8.7,0l0,-23.02l3.48,0z"/>
  <path id="svg_91" fill="#ffffff" d="m141.15,8.49l0,3.53l-5.83,0l0,5.75l5.01,0l0,3.53l-5.01,0l0,6.68l5.83,0l0,3.53l-9.31,0l0,-23.02l9.31,0z"/>
  <path id="svg_92" fill="#ffffff" d="m151.82,31.51l0,-23.02l9.31,0l0,3.53l-5.82,0l0,8.06l5.01,0l0,3.53l-5.01,0l0,7.9l-3.49,0z"/>
  <path id="svg_93" fill="#ffffff" d="m173.58,8.49l0,3.53l-5.83,0l0,5.75l5.01,0l0,3.53l-5.01,0l0,6.68l5.83,0l0,3.53l-9.31,0l0,-23.02l9.31,0z"/>
  <path id="svg_94" fill="#ffffff" d="m177.25,31.51l0,-23.02l5.45,0c1.68,0 3.03,0.52 4.03,1.57c0.99,1.03 1.49,2.4 1.49,4.11l0,11.66c0,1.7 -0.5,3.07 -1.49,4.11c-1,1.05 -2.35,1.57 -4.03,1.57l-5.45,0zm3.48,-3.53l1.97,0c0.64,0 1.14,-0.19 1.5,-0.58c0.36,-0.4 0.54,-0.92 0.54,-1.57l0,-11.66c0,-0.65 -0.18,-1.16 -0.54,-1.55c-0.36,-0.4 -0.86,-0.6 -1.5,-0.6l-1.97,0l0,15.96z"/>
  <path id="svg_95" fill="#ffffff" d="m201.81,8.49l0,3.53l-5.82,0l0,5.75l5.01,0l0,3.53l-5.01,0l0,6.68l5.82,0l0,3.53l-9.31,0l0,-23.02l9.31,0z"/>
  <path id="svg_96" fill="#ffffff" d="m205.48,31.51l0,-23.02l5.6,0c1.65,0 2.96,0.51 3.92,1.52c0.97,1 1.46,2.34 1.46,4.01l0,3.48c0,1.08 -0.21,2.03 -0.64,2.85c-0.42,0.82 -1.03,1.47 -1.81,1.95l-0.25,-1.12c0.86,0.32 1.52,0.8 1.99,1.44c0.47,0.65 0.71,1.42 0.71,2.32l0,6.57l-3.48,0l0,-6.57c0,-0.57 -0.17,-1.03 -0.5,-1.38c-0.34,-0.36 -0.8,-0.54 -1.4,-0.54l-2.11,0l0,8.49l-3.49,0zm3.49,-12.02l2.11,0c0.6,0 1.06,-0.18 1.4,-0.53c0.33,-0.37 0.5,-0.86 0.5,-1.46l0,-3.48c0,-0.61 -0.17,-1.09 -0.5,-1.45c-0.34,-0.37 -0.8,-0.55 -1.4,-0.55l-2.11,0l0,7.47z"/>
  <path id="svg_97" fill="#ffffff" d="m219.04,31.51l4.51,-23.02l3.76,0l4.45,23.02l-3.58,0l-0.66,-3.93l-4.23,0l-0.68,3.93l-3.57,0zm4.8,-7.46l3.13,0l-1.78,-10.74l0.48,0l-1.83,10.74z"/>
  <path id="svg_98" fill="#ffffff" d="m235.72,31.51l0,-19.49l-3.53,0l0,-3.53l10.52,0l0,3.53l-3.51,0l0,19.49l-3.48,0z"/>
  <path id="svg_99" fill="#ffffff" d="m248.94,31.51l-3.48,0l0,-23.02l3.48,0l0,23.02z"/>
  <path id="svg_100" fill="#ffffff" d="m258.87,32c-1.68,0 -3.02,-0.52 -4.03,-1.57c-1,-1.04 -1.5,-2.41 -1.5,-4.11l0,-12.64c0,-1.71 0.5,-3.08 1.5,-4.11c1.01,-1.05 2.35,-1.57 4.03,-1.57c1.68,0 3.02,0.52 4.02,1.57c1,1.03 1.5,2.4 1.5,4.11l0,12.64c0,1.7 -0.5,3.07 -1.5,4.11c-1,1.05 -2.34,1.57 -4.02,1.57zm0,-3.53c0.63,0 1.13,-0.19 1.49,-0.58c0.37,-0.4 0.55,-0.92 0.55,-1.57l0,-12.64c0,-0.65 -0.18,-1.16 -0.55,-1.55c-0.36,-0.4 -0.86,-0.6 -1.49,-0.6c-0.64,0 -1.14,0.2 -1.5,0.6c-0.37,0.39 -0.55,0.9 -0.55,1.55l0,12.64c0,0.65 0.18,1.17 0.55,1.57c0.36,0.39 0.86,0.58 1.5,0.58z"/>
  <path id="svg_101" fill="#ffffff" d="m268.78,31.51l0,-23.02l2.7,0l5.81,16.19l-0.94,0.05l0,-16.24l3.25,0l0,23.02l-2.68,0l-5.82,-16.21l0.94,-0.04l0,16.25l-3.26,0z"/>
  <text font-weight="bold" xml:space="preserve" text-anchor="start" font-family="'Encode Sans'" font-size="30" stroke-width="0" id="svg_103" y="30.5" x="290" fill="#ffffff">2.0</text>
 </g>

</svg>