<svg width="330" height="40" xmlns="http://www.w3.org/2000/svg" fill="none">

 <g>
  <title>Layer 1</title>
  <path id="svg_1" fill="#108CB9" d="m21.5155,0.50171l4.5786,2.52282l-0.1483,0.26791l-4.5786,-2.52283l0.1483,-0.2679z" clip-rule="evenodd" fill-rule="evenodd"/>
  <path id="svg_2" fill="#108CB9" d="m21.4553,1.22418c0.3388,0 0.6135,-0.27404 0.6135,-0.61209c0,-0.33805 -0.2747,-0.61209 -0.6135,-0.61209c-0.3388,0 -0.6135,0.27404 -0.6135,0.61209c0,0.33805 0.2747,0.61209 0.6135,0.61209z"/>
  <path id="svg_3" fill="#108CB9" d="m26.0197,3.77056c0.3388,0 0.6135,-0.27404 0.6135,-0.61208c0,-0.33805 -0.2747,-0.61209 -0.6135,-0.61209c-0.3388,0 -0.6135,0.27404 -0.6135,0.61209c0,0.33804 0.2747,0.61208 0.6135,0.61208z"/>
  <path id="svg_4" fill="#108CB9" d="m21.5165,0.76904l-4.5796,2.55649l-0.1498,-0.26709l4.5797,-2.55649l0.1497,0.26709z" clip-rule="evenodd" fill-rule="evenodd"/>
  <path id="svg_5" fill="#108CB9" d="m16.8615,3.77056c0.3388,0 0.6135,-0.27404 0.6135,-0.61208c0,-0.33805 -0.2747,-0.61209 -0.6135,-0.61209c-0.3388,0 -0.6135,0.27404 -0.6135,0.61209c0,0.33804 0.2747,0.61208 0.6135,0.61208z"/>
  <path id="svg_6" fill="#108CB9" d="m21.3672,39.2306l4.5786,-2.5238l0.1483,0.2679l-4.5786,2.5238l-0.1483,-0.2679z" clip-rule="evenodd" fill-rule="evenodd"/>
  <path id="svg_7" fill="#108CB9" d="m21.4553,40.0001c0.3388,0 0.6135,-0.2741 0.6135,-0.6121c0,-0.3381 -0.2747,-0.6121 -0.6135,-0.6121c-0.3388,0 -0.6135,0.274 -0.6135,0.6121c0,0.338 0.2747,0.6121 0.6135,0.6121z"/>
  <path id="svg_8" fill="#108CB9" d="m26.0197,37.4527c0.3388,0 0.6135,-0.274 0.6135,-0.6121c0,-0.338 -0.2747,-0.6121 -0.6135,-0.6121c-0.3388,0 -0.6135,0.2741 -0.6135,0.6121c0,0.3381 0.2747,0.6121 0.6135,0.6121z"/>
  <path id="svg_9" fill="#108CB9" d="m21.3668,39.4979l-4.5797,-2.5565l0.1498,-0.2671l4.5796,2.5565l-0.1497,0.2671z" clip-rule="evenodd" fill-rule="evenodd"/>
  <path id="svg_10" fill="#108CB9" d="m16.8615,37.4527c0.3388,0 0.6135,-0.274 0.6135,-0.6121c0,-0.338 -0.2747,-0.6121 -0.6135,-0.6121c-0.3388,0 -0.6135,0.2741 -0.6135,0.6121c0,0.3381 0.2747,0.6121 0.6135,0.6121z"/>
  <path id="svg_11" fill="#108CB9" d="m4.53125,10.2267l4.47331,-2.70644l0.15905,0.26169l-4.47331,2.70645l-0.15905,-0.2617z" clip-rule="evenodd" fill-rule="evenodd"/>
  <path id="svg_12" fill="#108CB9" d="m4.59786,10.9451c0.33881,0 0.61348,-0.274 0.61348,-0.6121c0,-0.33801 -0.27467,-0.61205 -0.61348,-0.61205c-0.33882,0 -0.61348,0.27404 -0.61348,0.61205c0,0.3381 0.27466,0.6121 0.61348,0.6121z"/>
  <path id="svg_13" fill="#108CB9" d="m1.06172,8.91925c0.33882,0 0.61349,-0.27405 0.61349,-0.61209c0,-0.33805 -0.27467,-0.61209 -0.61349,-0.61209c-0.33881,0 -0.61348,0.27404 -0.61348,0.61209c0,0.33804 0.27467,0.61209 0.61348,0.61209z"/>
  <path id="svg_14" fill="#108CB9" d="m9.08419,8.26324c0.33881,0 0.61348,-0.27404 0.61348,-0.61209c0,-0.33805 -0.27467,-0.61209 -0.61348,-0.61209c-0.33882,0 -0.61349,0.27404 -0.61349,0.61209c0,0.33805 0.27467,0.61209 0.61349,0.61209z"/>
  <path id="svg_15" fill="#108CB9" d="m4.76446,10.3594l-0.0593,5.2344l-0.30672,-0.0035l0.0593,-5.2343l0.30672,0.0034z" clip-rule="evenodd" fill-rule="evenodd"/>
  <path id="svg_16" fill="#108CB9" d="m4.52266,16.1878c0.33882,0 0.61348,-0.274 0.61348,-0.6121c0,-0.338 -0.27466,-0.6121 -0.61348,-0.6121c-0.33882,0 -0.61348,0.2741 -0.61348,0.6121c0,0.3381 0.27466,0.6121 0.61348,0.6121z"/>
  <path id="svg_17" fill="#108CB9" d="m1.0297,8.12964l3.65738,2.09536l-0.15275,0.2654l-3.65738,-2.09536l0.15275,-0.2654z" clip-rule="evenodd" fill-rule="evenodd"/>
  <path id="svg_18" fill="#108CB9" d="m38.1182,29.6399l0.0879,-5.218l0.3067,0.0051l-0.0879,5.2181l-0.3067,-0.0052z" clip-rule="evenodd" fill-rule="evenodd"/>
  <path id="svg_19" fill="#108CB9" d="m38.299,30.2545c0.3388,0 0.6135,-0.2741 0.6135,-0.6121c0,-0.3381 -0.2747,-0.6121 -0.6135,-0.6121c-0.3388,0 -0.6135,0.274 -0.6135,0.6121c0,0.338 0.2747,0.6121 0.6135,0.6121z"/>
  <path id="svg_20" fill="#108CB9" d="m41.8342,32.2796c0.3388,0 0.6135,-0.274 0.6135,-0.6121c0,-0.338 -0.2747,-0.6121 -0.6135,-0.6121c-0.3388,0 -0.6135,0.2741 -0.6135,0.6121c0,0.3381 0.2747,0.6121 0.6135,0.6121z"/>
  <path id="svg_21" fill="#108CB9" d="m38.3596,25.0364c0.3388,0 0.6135,-0.274 0.6135,-0.6121c0,-0.338 -0.2747,-0.612 -0.6135,-0.612c-0.3388,0 -0.6135,0.274 -0.6135,0.612c0,0.3381 0.2747,0.6121 0.6135,0.6121z"/>
  <path id="svg_22" fill="#108CB9" d="m38.3499,29.7738l-4.5019,2.6891l-0.1576,-0.2626l4.502,-2.6891l0.1575,0.2626z" clip-rule="evenodd" fill-rule="evenodd"/>
  <path id="svg_23" fill="#108CB9" d="m33.7981,32.961c0.3388,0 0.6134,-0.274 0.6134,-0.6121c0,-0.338 -0.2746,-0.6121 -0.6134,-0.6121c-0.3389,0 -0.6135,0.2741 -0.6135,0.6121c0,0.3381 0.2746,0.6121 0.6135,0.6121z"/>
  <path id="svg_24" fill="#108CB9" d="m41.8527,31.8706l-3.6574,-2.0954l0.1528,-0.2654l3.6573,2.0954l-0.1527,0.2654z" clip-rule="evenodd" fill-rule="evenodd"/>
  <path id="svg_25" fill="#108CB9" d="m4.49599,29.7128l-0.10634,-5.2181l0.30668,-0.0062l0.10634,5.2181l-0.30668,0.0062z" clip-rule="evenodd" fill-rule="evenodd"/>
  <path id="svg_26" fill="#108CB9" d="m4.62129,30.3218c0.33882,0 0.61349,-0.274 0.61349,-0.6121c0,-0.338 -0.27467,-0.612 -0.61349,-0.612c-0.33881,0 -0.61348,0.274 -0.61348,0.612c0,0.3381 0.27467,0.6121 0.61348,0.6121z"/>
  <path id="svg_27" fill="#108CB9" d="m1.09395,32.3602c0.33882,0 0.61348,-0.2741 0.61348,-0.6121c0,-0.3381 -0.27466,-0.6121 -0.61348,-0.6121c-0.33882,0 -0.61348,0.274 -0.61348,0.6121c0,0.338 0.27466,0.6121 0.61348,0.6121z"/>
  <path id="svg_28" fill="#108CB9" d="m4.54317,25.1038c0.33882,0 0.61348,-0.274 0.61348,-0.6121c0,-0.338 -0.27466,-0.6121 -0.61348,-0.6121c-0.33882,0 -0.61348,0.2741 -0.61348,0.6121c0,0.3381 0.27466,0.6121 0.61348,0.6121z"/>
  <path id="svg_29" fill="#108CB9" d="m4.72693,29.5781l4.51114,2.6728l-0.15662,0.2632l-4.51114,-2.6728l0.15662,-0.2632z" clip-rule="evenodd" fill-rule="evenodd"/>
  <path id="svg_30" fill="#108CB9" d="m9.13204,33.012c0.33881,0 0.61348,-0.274 0.61348,-0.6121c0,-0.338 -0.27467,-0.6121 -0.61348,-0.6121c-0.33882,0 -0.61349,0.2741 -0.61349,0.6121c0,0.3381 0.27467,0.6121 0.61349,0.6121z"/>
  <path id="svg_31" fill="#108CB9" d="m0.92285,31.686l3.6492,-2.1086l0.15373,0.2648l-3.6492,2.1087l-0.15373,-0.2649z" clip-rule="evenodd" fill-rule="evenodd"/>
  <path id="svg_32" fill="#108CB9" d="m38.1603,10.4326l-4.4826,-2.68912l0.1581,-0.26228l4.4825,2.6891l-0.158,0.2623z" clip-rule="evenodd" fill-rule="evenodd"/>
  <path id="svg_33" fill="#108CB9" d="m38.2531,10.8899c0.3388,0 0.6135,-0.274 0.6135,-0.612c0,-0.33809 -0.2747,-0.61213 -0.6135,-0.61213c-0.3388,0 -0.6135,0.27404 -0.6135,0.61213c0,0.338 0.2747,0.612 0.6135,0.612z"/>
  <path id="svg_34" fill="#108CB9" d="m41.7815,8.85186c0.3388,0 0.6134,-0.27404 0.6134,-0.61209c0,-0.33804 -0.2746,-0.61208 -0.6134,-0.61208c-0.3389,0 -0.6135,0.27404 -0.6135,0.61208c0,0.33805 0.2746,0.61209 0.6135,0.61209z"/>
  <path id="svg_35" fill="#108CB9" d="m33.757,8.22442c0.3389,0 0.6135,-0.27404 0.6135,-0.61209c0,-0.33804 -0.2746,-0.61209 -0.6135,-0.61209c-0.3388,0 -0.6134,0.27405 -0.6134,0.61209c0,0.33805 0.2746,0.61209 0.6134,0.61209z"/>
  <path id="svg_36" fill="#108CB9" d="m38.3926,10.2991l0.0778,5.2354l-0.3068,0.0045l-0.0777,-5.2354l0.3067,-0.0045z" clip-rule="evenodd" fill-rule="evenodd"/>
  <path id="svg_37" fill="#108CB9" d="m38.3459,16.1316c0.3388,0 0.6135,-0.274 0.6135,-0.612c0,-0.3381 -0.2747,-0.6121 -0.6135,-0.6121c-0.3388,0 -0.6135,0.274 -0.6135,0.6121c0,0.338 0.2747,0.612 0.6135,0.612z"/>
  <path id="svg_38" fill="#108CB9" d="m41.9659,8.32615l-3.6491,2.10765l-0.1537,-0.2649l3.6492,-2.10762l0.1536,0.26487z" clip-rule="evenodd" fill-rule="evenodd"/>
  <path id="svg_39" fill="#9589EA" d="m26.0825,11.3073l-4.6594,-2.68401l-4.6594,2.68401l4.6594,2.684l4.6594,-2.684z"/>
  <path id="svg_40" fill="#6559A2" d="m21.4231,19.3594l0,-5.368l-4.6594,-2.684l0,5.368l4.6594,2.684z"/>
  <path id="svg_41" fill="#6559A2" d="m21.4229,19.3594l0,-5.368l4.6594,-2.684l0,5.368l-4.6594,2.684z"/>
  <path id="svg_42" fill="#1C2135" d="m21.4228,8.50586l-4.7617,2.74314l0,5.4854l4.7617,2.7432l4.7616,-2.7432l0,-5.4854l-4.7616,-2.74314zm4.4549,2.80134l-4.4549,2.5667l-4.4549,-2.5657l4.4549,-2.56669l4.4549,2.56669l0,-0.001zm-9.0121,0.1765l4.4549,2.5656l0,5.1324l-4.4549,-2.5667l0,-5.1323l0,0.001zm4.6594,7.698l0,-5.1324l4.4549,-2.5666l0,5.1323l-4.4549,2.5667z"/>
  <path id="svg_43" fill="#6559A2" d="m20.9702,20.2846l-4.6594,-2.684l-4.6594,2.684l4.6594,2.684l4.6594,-2.684z"/>
  <path id="svg_44" fill="#9589EA" d="m16.3108,28.3367l0,-5.368l-4.6594,-2.684l0,5.368l4.6594,2.684z"/>
  <path id="svg_45" fill="#6559A2" d="m16.3105,28.3367l0,-5.368l4.6595,-2.684l0,5.368l-4.6595,2.684z"/>
  <path id="svg_46" fill="#1C2135" d="m16.3105,17.4832l-4.7617,2.7431l0,5.4854l4.7617,2.7431l4.7616,-2.7431l0,-5.4854l-4.7616,-2.7431zm4.4549,2.8013l-4.4549,2.5667l-4.4549,-2.5657l4.4549,-2.5667l4.4549,2.5667l0,-0.001zm-9.0121,0.1765l4.4549,2.5656l0,5.1324l-4.4549,-2.5667l0,-5.1324l0,0.0011zm4.6594,7.698l0,-5.1324l4.4549,-2.5667l0,5.1324l-4.4549,2.5667z"/>
  <path id="svg_47" fill="#6559A2" d="m31.1948,20.2846l-4.6594,-2.684l-4.6594,2.684l4.6594,2.684l4.6594,-2.684z"/>
  <path id="svg_48" fill="#6559A2" d="m26.5354,28.3367l0,-5.368l-4.6594,-2.684l0,5.368l4.6594,2.684z"/>
  <path id="svg_49" fill="#9589EA" d="m26.5352,28.3367l0,-5.368l4.6594,-2.684l0,5.368l-4.6594,2.684z"/>
  <path id="svg_50" fill="#1C2135" d="m26.5361,17.4832l-4.7617,2.7431l0,5.4854l4.7617,2.7431l4.7616,-2.7431l0,-5.4854l-4.7616,-2.7431zm4.4549,2.8013l-4.4549,2.5667l-4.4549,-2.5657l4.4549,-2.5667l4.4549,2.5667l0,-0.001zm-9.0121,0.1765l4.4549,2.5656l0,5.1324l-4.4549,-2.5657l0,-5.1323zm4.6594,7.699l0,-5.1323l4.4549,-2.5667l0,5.1323l-4.4549,2.5667z"/>
  <path id="svg_51" fill="#9589EA" d="m31.1948,14.3676l-4.6594,-2.684l-4.6594,2.684l4.6594,2.684l4.6594,-2.684z"/>
  <path id="svg_52" fill="#6559A2" d="m26.5354,22.4197l0,-5.368l-4.6594,-2.684l0,5.368l4.6594,2.684z"/>
  <path id="svg_53" fill="#9589EA" d="m26.5352,22.4197l0,-5.368l4.6594,-2.684l0,5.368l-4.6594,2.684z"/>
  <path id="svg_54" fill="#1C2135" d="m26.5361,11.5664l-4.7617,2.7432l0,5.4853l4.7617,2.7432l4.7616,-2.7432l0,-5.4853l-4.7616,-2.7432zm4.4549,2.8013l-4.4549,2.5667l-4.4549,-2.5656l4.4549,-2.5667l4.4549,2.5667l0,-0.0011zm-9.0121,0.1765l4.4549,2.5657l0,5.1324l-4.4549,-2.5657l0,-5.1324zm4.6594,7.6991l0,-5.1324l4.4549,-2.5667l0,5.1324l-4.4549,2.5667z"/>
  <path id="svg_55" fill="#9589EA" d="m20.9702,14.3676l-4.6594,-2.684l-4.6594,2.684l4.6594,2.684l4.6594,-2.684z"/>
  <path id="svg_56" fill="#9589EA" d="m16.3108,22.4197l0,-5.368l-4.6594,-2.684l0,5.368l4.6594,2.684z"/>
  <path id="svg_57" fill="#6559A2" d="m16.3105,22.4197l0,-5.368l4.6595,-2.684l0,5.368l-4.6595,2.684z"/>
  <path id="svg_58" fill="#1C2135" d="m16.3105,11.5664l-4.7617,2.7432l0,5.4853l4.7617,2.7432l4.7616,-2.7432l0,-5.4853l-4.7616,-2.7432zm4.4549,2.8013l-4.4549,2.5667l-4.4549,-2.5656l4.4549,-2.5667l4.4549,2.5667l0,-0.0011zm-9.0121,0.1765l4.4549,2.5657l0,5.1324l-4.4549,-2.5667l0,-5.1324l0,0.001zm4.6594,7.6981l0,-5.1324l4.4549,-2.5667l0,5.1324l-4.4549,2.5667z"/>
  <path id="svg_59" fill="#6559A2" d="m26.0825,23.2428l-4.6594,-2.684l-4.6594,2.684l4.6594,2.6841l4.6594,-2.6841z"/>
  <path id="svg_60" fill="#9589EA" d="m21.4231,31.2949l0,-5.368l-4.6594,-2.684l0,5.368l4.6594,2.684z"/>
  <path id="svg_61" fill="#9589EA" d="m21.4229,31.2949l0,-5.368l4.6594,-2.684l0,5.368l-4.6594,2.684z"/>
  <path id="svg_62" fill="#1C2135" d="m21.4228,20.4417l-4.7617,2.7431l0,5.4854l4.7617,2.7431l4.7616,-2.7431l0,-5.4854l-4.7616,-2.7431zm4.4549,2.8013l-4.4549,2.5667l-4.4549,-2.5657l4.4549,-2.5667l4.4549,2.5667l0,-0.001zm-9.0121,0.1765l4.4549,2.5656l0,5.1324l-4.4549,-2.5657l0,-5.1323zm4.6594,7.699l0,-5.1323l4.4549,-2.5667l0,5.1323l-4.4549,2.5667z"/>
  <path id="svg_63" fill="#9589EA" d="m26.0825,17.4282l-4.6594,-2.6841l-4.6594,2.6841l4.6594,2.684l4.6594,-2.684z"/>
  <path id="svg_64" fill="#9589EA" d="m21.4231,25.4803l0,-5.3681l-4.6594,-2.684l0,5.368l4.6594,2.6841z"/>
  <path id="svg_65" fill="#9589EA" d="m21.4229,25.4803l0,-5.3681l4.6594,-2.684l0,5.368l-4.6594,2.6841z"/>
  <path id="svg_66" fill="#1C2135" d="m21.4228,25.5984l-4.7617,-2.7432l0,-5.4853l4.7617,-2.7432l4.7616,2.7432l0,5.4853l-4.7616,2.7432zm-4.5572,-2.8605l4.5572,2.6248l4.5571,-2.6248l0,-5.2507l-4.5571,-2.6248l-4.5572,2.6248l0,5.2497l0,0.001z"/>
  <path id="svg_67" fill="#1C2135" d="m16.8161,17.3423l-0.1022,0.1767l4.6594,2.6841l0.1022,-0.1767l-4.6594,-2.6841z"/>
  <path id="svg_68" fill="#1C2135" d="m26.0349,17.3507l-4.6599,2.6832l0.1022,0.1767l4.6599,-2.6831l-0.1022,-0.1768z"/>
  <path id="svg_69" fill="#1C2135" d="m21.5248,20.1121l-0.2045,0l0,5.368l0.2045,0l0,-5.368z"/>
  <path id="svg_70" fill="#71BEDB" d="m36.2146,11.2636l-14.5681,-8.39177l0,5.30069l9.967,5.74138l4.6011,-2.6503z"/>
  <path id="svg_71" fill="#1C2135" d="m21.851,3.2246l13.9557,8.0388l-4.1922,2.4147l-9.7635,-5.62412l0,-4.82938zm-0.2045,-0.35297l0,5.30068l9.968,5.74139l4.6012,-2.6503l-14.5692,-8.39279l0,0.00102z"/>
  <path id="svg_72" fill="#71BEDB" d="m11.2408,13.93l9.9967,-5.75773l0,-5.30069l-14.59785,8.40802l4.60115,2.6504z"/>
  <path id="svg_73" fill="#1C2135" d="m21.0329,3.22455l0,4.82938l-9.7912,5.64037l-4.19209,-2.4147l13.98329,-8.05505zm0.2045,-0.35297l-14.59678,8.40802l4.60108,2.6504l9.9957,-5.75773l0,-5.30069z"/>
  <path id="svg_74" fill="#71BEDB" d="m31.8096,14.2717l0,11.5073l4.6011,2.6503l0,-16.808l-4.6011,2.6504z"/>
  <path id="svg_75" fill="#1C2135" d="m36.2062,11.9753l0,16.101l-4.1921,-2.4147l0,-11.2716l4.1921,-2.4147zm0.2045,-0.3529l-4.6011,2.6503l0,11.5063l4.6011,2.6503l0,-16.808l0,0.0011z"/>
  <path id="svg_76" fill="#71BEDB" d="m11.0728,14.3044l-4.60112,-2.6503l0,16.7426l4.60112,-2.6503l0,-11.442z"/>
  <path id="svg_77" fill="#1C2135" d="m6.67617,12.007l4.19213,2.4147l0,11.2063l-4.19213,2.4147l0,-16.0357zm-0.20449,-0.3529l0,16.7426l4.60112,-2.6503l0,-11.442l-4.60112,-2.6503z"/>
  <path id="svg_78" fill="#71BEDB" d="m6.68457,28.7456l14.55283,8.3825l0,-5.3007l-9.9517,-5.7322l-4.60113,2.6504z"/>
  <path id="svg_79" fill="#1C2135" d="m11.2857,26.3309l9.7472,5.6149l0,4.8293l-13.93934,-8.0295l4.19214,-2.4147zm0,-0.2357l-4.60113,2.6504l14.55283,8.3825l0,-5.3007l-9.9517,-5.7322z"/>
  <path id="svg_80" fill="#71BEDB" d="m21.6465,31.8275l0,5.3007l14.5242,-8.3663l-4.6011,-2.6503l-9.9231,5.7159z"/>
  <path id="svg_81" fill="#1C2135" d="m31.5696,26.3472l4.1921,2.4147l-13.9117,8.0133l0,-4.8294l9.7196,-5.5986zm0,-0.2356l-9.9241,5.7169l0,5.3007l14.5252,-8.3673l-4.6011,-2.6503z"/>
  <path id="svg_82" fill="#9589EA" d="m26.0825,17.4282l-4.6594,-2.6841l-4.6594,2.6841l4.6594,2.684l4.6594,-2.684z"/>
  <path id="svg_83" fill="#9589EA" d="m21.4231,25.4803l0,-5.3681l-4.6594,-2.684l0,5.368l4.6594,2.6841z"/>
  <path id="svg_84" fill="#9589EA" d="m21.4229,25.4803l0,-5.3681l4.6594,-2.684l0,5.368l-4.6594,2.6841z"/>
  <path id="svg_85" fill="#1C2135" d="m21.4228,14.6267l-4.7617,2.7432l0,5.4853l4.7617,2.7432l4.7616,-2.7432l0,-5.4853l-4.7616,-2.7432zm4.4549,2.8013l-4.4549,2.5667l-4.4549,-2.5656l4.4549,-2.5667l4.4549,2.5667l0,-0.0011zm-9.0121,0.1765l4.4549,2.5657l0,5.1324l-4.4549,-2.5667l0,-5.1324l0,0.001zm4.6594,7.6981l0,-5.1324l4.4549,-2.5667l0,5.1324l-4.4549,2.5667z"/>
  <path id="svg_86" fill="#1C2135" d="m54.5,31.509l0,-23.01795l3.209,0l4.7984,18.46035l-0.8174,0l4.7984,-18.46035l3.209,0l0,23.01795l-3.2544,0l0,-13.4118l0.4086,0.0767l-3.5874,13.3351l-2.3311,0l-3.5874,-13.3351l0.4087,-0.0767l0,13.4118l-3.2544,0z"/>
  <path id="svg_87" fill="#1C2135" d="m79.6181,32c-1.6751,0 -3.0172,-0.5217 -4.0264,-1.5652c-0.999,-1.0435 -1.4985,-2.4143 -1.4985,-4.1125l0,-12.6446c0,-1.7084 0.4995,-3.0792 1.4985,-4.11248c1.0092,-1.04348 2.3513,-1.56522 4.0264,-1.56522c1.6853,0 3.0274,0.52174 4.0264,1.56522c0.9991,1.03328 1.4986,2.40408 1.4986,4.11248l0,12.6446c0,1.6982 -0.4995,3.069 -1.4986,4.1125c-0.999,1.0435 -2.3411,1.5652 -4.0264,1.5652zm0,-3.5294c0.6358,0 1.1353,-0.1944 1.4986,-0.5831c0.3633,-0.399 0.5449,-0.9207 0.5449,-1.5652l0,-12.6446c0,-0.6445 -0.1816,-1.1611 -0.5449,-1.5498c-0.3633,-0.399 -0.8628,-0.5985 -1.4986,-0.5985c-0.6357,0 -1.1352,0.1995 -1.4985,0.5985c-0.3633,0.3887 -0.5449,0.9053 -0.5449,1.5498l0,12.6446c0,0.6445 0.1816,1.1662 0.5449,1.5652c0.3633,0.3887 0.8628,0.5831 1.4985,0.5831z"/>
  <path id="svg_88" fill="#1C2135" d="m89.5335,31.509l0,-23.01795l5.4492,0c1.6853,0 3.0274,0.52174 4.0264,1.56525c0.9989,1.0332 1.4989,2.4041 1.4989,4.1125l0,11.6624c0,1.6982 -0.5,3.0691 -1.4989,4.1125c-0.999,1.0435 -2.3411,1.5653 -4.0264,1.5653l-5.4492,0zm3.4814,-3.5295l1.9678,0c0.6358,0 1.1353,-0.1943 1.4986,-0.5831c0.3632,-0.399 0.5449,-0.9207 0.5449,-1.5652l0,-11.6624c0,-0.6445 -0.1817,-1.1611 -0.5449,-1.5499c-0.3633,-0.399 -0.8628,-0.5984 -1.4986,-0.5984l-1.9678,0l0,15.959z"/>
  <path id="svg_89" fill="#1C2135" d="m115.687,8.49105l0,17.83125c0,1.6982 -0.499,3.069 -1.498,4.1125c-1,1.0435 -2.342,1.5652 -4.027,1.5652c-1.675,0 -3.017,-0.5217 -4.026,-1.5652c-0.999,-1.0435 -1.499,-2.4143 -1.499,-4.1125l0,-17.83125l3.482,0l0,17.83125c0,0.6445 0.181,1.1662 0.545,1.5652c0.363,0.3887 0.862,0.5831 1.498,0.5831c0.636,0 1.135,-0.1944 1.499,-0.5831c0.363,-0.399 0.545,-0.9207 0.545,-1.5652l0,-17.83125l3.481,0z"/>
  <path id="svg_90" fill="#1C2135" d="m123.732,8.49105l0,19.48845l5.222,0l0,3.5295l-8.703,0l0,-23.01795l3.481,0z"/>
  <path id="svg_91" fill="#1C2135" d="m141.149,8.49105l0,3.52945l-5.828,0l0,5.7544l5.01,0l0,3.5294l-5.01,0l0,6.6752l5.828,0l0,3.5295l-9.309,0l0,-23.01795l9.309,0z"/>
  <path id="svg_92" fill="#1C2135" d="m151.825,31.509l0,-23.01795l9.309,0l0,3.52945l-5.828,0l0,8.0562l5.011,0l0,3.5294l-5.011,0l0,7.9029l-3.481,0z"/>
  <path id="svg_93" fill="#1C2135" d="m173.581,8.49105l0,3.52945l-5.828,0l0,5.7544l5.01,0l0,3.5294l-5.01,0l0,6.6752l5.828,0l0,3.5295l-9.309,0l0,-23.01795l9.309,0z"/>
  <path id="svg_94" fill="#1C2135" d="m177.25,31.509l0,-23.01795l5.449,0c1.686,0 3.028,0.52174 4.027,1.56525c0.999,1.0332 1.498,2.4041 1.498,4.1125l0,11.6624c0,1.6982 -0.499,3.0691 -1.498,4.1125c-0.999,1.0435 -2.341,1.5653 -4.027,1.5653l-5.449,0zm3.482,-3.5295l1.967,0c0.636,0 1.136,-0.1943 1.499,-0.5831c0.363,-0.399 0.545,-0.9207 0.545,-1.5652l0,-11.6624c0,-0.6445 -0.182,-1.1611 -0.545,-1.5499c-0.363,-0.399 -0.863,-0.5984 -1.499,-0.5984l-1.967,0l0,15.959z"/>
  <path id="svg_95" fill="#1C2135" d="m201.814,8.49105l0,3.52945l-5.827,0l0,5.7544l5.01,0l0,3.5294l-5.01,0l0,6.6752l5.827,0l0,3.5295l-9.309,0l0,-23.01795l9.309,0z"/>
  <path id="svg_96" fill="#1C2135" d="m205.484,31.509l0,-23.01795l5.6,0c1.645,0 2.952,0.50639 3.921,1.51915c0.969,1.0026 1.453,2.3376 1.453,4.0051l0,3.4834c0,1.0844 -0.212,2.0358 -0.636,2.8542c-0.424,0.8185 -1.029,1.4681 -1.816,1.9489l-0.242,-1.1202c0.857,0.3171 1.518,0.7979 1.983,1.4424c0.474,0.6445 0.711,1.4169 0.711,2.3172l0,6.5678l-3.481,0l0,-6.5678c0,-0.5729 -0.167,-1.0333 -0.5,-1.3811c-0.333,-0.3581 -0.797,-0.5371 -1.393,-0.5371l-2.119,0l0,8.486l-3.481,0zm3.481,-12.0154l2.119,0c0.596,0 1.06,-0.179 1.393,-0.5371c0.333,-0.3683 0.5,-0.8542 0.5,-1.4578l0,-3.4834c0,-0.6035 -0.167,-1.0844 -0.5,-1.4424c-0.333,-0.3683 -0.797,-0.5524 -1.393,-0.5524l-2.119,0l0,7.4731z"/>
  <path id="svg_97" fill="#1C2135" d="m219.041,31.509l4.511,-23.01795l3.754,0l4.45,23.01795l-3.572,0l-0.666,-3.9284l-4.223,0l-0.681,3.9284l-3.573,0zm4.799,-7.4578l3.133,0l-1.786,-10.7417l0.484,0l-1.831,10.7417z"/>
  <path id="svg_98" fill="#1C2135" d="m235.72,31.509l0,-19.4885l-3.527,0l0,-3.52945l10.52,0l0,3.52945l-3.511,0l0,19.4885l-3.482,0z"/>
  <path id="svg_99" fill="#1C2135" d="m248.936,31.509l-3.481,0l0,-23.01795l3.481,0l0,23.01795z"/>
  <path id="svg_100" fill="#1C2135" d="m258.865,32c-1.675,0 -3.017,-0.5217 -4.026,-1.5652c-0.999,-1.0435 -1.499,-2.4143 -1.499,-4.1125l0,-12.6446c0,-1.7084 0.5,-3.0792 1.499,-4.11248c1.009,-1.04348 2.351,-1.56522 4.026,-1.56522c1.686,0 3.028,0.52174 4.027,1.56522c0.999,1.03328 1.498,2.40408 1.498,4.11248l0,12.6446c0,1.6982 -0.499,3.069 -1.498,4.1125c-0.999,1.0435 -2.341,1.5652 -4.027,1.5652zm0,-3.5294c0.636,0 1.136,-0.1944 1.499,-0.5831c0.363,-0.399 0.545,-0.9207 0.545,-1.5652l0,-12.6446c0,-0.6445 -0.182,-1.1611 -0.545,-1.5498c-0.363,-0.399 -0.863,-0.5985 -1.499,-0.5985c-0.635,0 -1.135,0.1995 -1.498,0.5985c-0.364,0.3887 -0.545,0.9053 -0.545,1.5498l0,12.6446c0,0.6445 0.181,1.1662 0.545,1.5652c0.363,0.3887 0.863,0.5831 1.498,0.5831z"/>
  <path id="svg_101" fill="#1C2135" d="m268.781,31.509l0,-23.01795l2.694,0l5.813,16.18925l-0.939,0.046l0,-16.23525l3.254,0l0,23.01795l-2.679,0l-5.827,-16.2047l0.938,-0.046l0,16.2507l-3.254,0z"/>
  <text font-weight="bold" xml:space="preserve" text-anchor="start" font-family="'Encode Sans'" font-size="28" id="svg_102" y="30.5" x="290" stroke="#000" fill="#000000">2.0</text>
 </g>
</svg>