<svg width="31" height="29" viewBox="0 0 31 29" fill="none" xmlns="http://www.w3.org/2000/svg">
    <path d="M15.5001 0C7.21682 0 0.5 6.54134 0.5 14.6107C0.5 21.0662 4.79797 26.5429 10.758 28.4749C11.5076 28.6101 11.7829 28.1579 11.7829 27.772C11.7829 27.4237 11.7689 26.2726 11.7625 25.0518C7.5894 25.9356 6.70884 23.3279 6.70884 23.3279C6.02651 21.6391 5.04337 21.1901 5.04337 21.1901C3.68248 20.2832 5.14595 20.3018 5.14595 20.3018C6.65225 20.4049 7.4454 21.8075 7.4454 21.8075C8.78324 24.0412 10.9545 23.3954 11.8104 23.0222C11.945 22.0777 12.3338 21.4333 12.7627 21.0684C9.4311 20.6989 5.92863 19.4461 5.92863 13.8477C5.92863 12.2526 6.51461 10.9491 7.47422 9.92597C7.31846 9.55791 6.80507 8.07191 7.61951 6.05938C7.61951 6.05938 8.87912 5.66668 11.7456 7.55706C12.942 7.23323 14.2253 7.07097 15.5001 7.06547C16.7748 7.07097 18.059 7.23323 19.2578 7.55706C22.1209 5.66668 23.3787 6.05938 23.3787 6.05938C24.1952 8.07191 23.6815 9.55791 23.5258 9.92597C24.4875 10.9491 25.0695 12.2525 25.0695 13.8477C25.0695 19.4594 21.5604 20.6951 18.2203 21.0567C18.7583 21.5102 19.2377 22.3994 19.2377 23.7624C19.2377 25.7173 19.2203 27.2907 19.2203 27.772C19.2203 28.1608 19.4903 28.6164 20.2507 28.473C26.2074 26.5388 30.5 21.0641 30.5 14.6107C30.5 6.54134 23.7841 0 15.5001 0Z" fill="#1C2135"/>
    <path d="M6.11793 20.8134C6.08499 20.8859 5.96758 20.9077 5.86088 20.8579C5.75206 20.8103 5.69089 20.7113 5.72618 20.6384C5.75853 20.5637 5.87594 20.5428 5.98452 20.593C6.09358 20.6406 6.15569 20.7405 6.11793 20.8134ZM6.85579 21.4546C6.78426 21.5192 6.64438 21.4892 6.54944 21.3871C6.45133 21.2852 6.43298 21.1491 6.50556 21.0835C6.57933 21.0189 6.71497 21.0491 6.81332 21.1511C6.91143 21.2541 6.93061 21.3893 6.85579 21.4546ZM7.362 22.2751C7.27001 22.3373 7.11966 22.279 7.02684 22.149C6.93496 22.0192 6.93496 21.8633 7.02884 21.8009C7.12201 21.7384 7.27001 21.7946 7.36412 21.9235C7.45588 22.0556 7.456 22.2114 7.362 22.2751ZM8.21797 23.2254C8.13574 23.3136 7.96069 23.29 7.83246 23.1694C7.7014 23.0516 7.66482 22.8845 7.74728 22.7961C7.83046 22.7076 8.00657 22.7325 8.13574 22.852C8.26597 22.9696 8.30562 23.138 8.21797 23.2254ZM9.32429 23.5462C9.28817 23.6606 9.11947 23.7126 8.94959 23.664C8.77995 23.6139 8.6689 23.4799 8.70313 23.3642C8.73843 23.2491 8.90783 23.1949 9.079 23.2469C9.24841 23.2967 9.35958 23.4298 9.32429 23.5462ZM10.5835 23.6822C10.5878 23.8028 10.4437 23.9027 10.2653 23.9049C10.0859 23.9087 9.94086 23.8111 9.93897 23.6927C9.93897 23.571 10.0798 23.472 10.2591 23.4691C10.4374 23.4657 10.5835 23.5625 10.5835 23.6822ZM11.8204 23.636C11.8418 23.7536 11.7179 23.8744 11.5408 23.9065C11.3667 23.9374 11.2055 23.8649 11.1833 23.7483C11.1616 23.6278 11.288 23.5071 11.4617 23.4758C11.6391 23.4458 11.7978 23.5165 11.8204 23.636Z" fill="#1C2135"/>
    </svg>
    