<svg width="31" height="24" viewBox="0 0 31 24" fill="none" xmlns="http://www.w3.org/2000/svg">
    <path
        d="M25.935 2.02698C29.3231 7.25721 30.9963 13.1568 30.3708 19.9485C30.3682 19.9773 30.354 20.0036 30.3315 20.021C27.7657 21.999 25.2798 23.1995 22.8289 23.9956C22.8098 24.0017 22.7893 24.0014 22.7705 23.9947C22.7516 23.988 22.7351 23.9752 22.7235 23.9582C22.1572 23.131 21.6427 22.2589 21.192 21.3431C21.1661 21.2892 21.1897 21.2242 21.243 21.2029C22.0601 20.8797 22.8371 20.4923 23.5845 20.0336C23.6434 19.9973 23.6471 19.9088 23.5927 19.8662C23.4341 19.7426 23.277 19.6127 23.1266 19.4827C23.0985 19.4587 23.0606 19.454 23.0287 19.4701C18.1766 21.8227 12.8614 21.8227 7.95188 19.4701C7.92 19.4552 7.88213 19.4603 7.85475 19.4839C7.70475 19.6139 7.54725 19.7426 7.39013 19.8662C7.33575 19.9088 7.34025 19.9973 7.3995 20.0336C8.14688 20.4836 8.92387 20.8797 9.73987 21.2045C9.79275 21.2258 9.81787 21.2892 9.79162 21.3431C9.35062 22.2601 8.83612 23.1322 8.25938 23.9594C8.23425 23.9929 8.193 24.0082 8.154 23.9956C5.71463 23.1995 3.22876 21.999 0.663013 20.021C0.641638 20.0036 0.626263 19.9761 0.624013 19.9473C0.101264 14.0726 1.16664 8.12419 5.05576 2.0258C5.06513 2.00965 5.07938 1.99705 5.09588 1.98957C7.0095 1.06747 9.05962 0.389085 11.2024 0.00165975C11.2414 -0.00463984 11.2804 0.0142589 11.3006 0.0504816C11.5654 0.542637 11.868 1.17378 12.0727 1.68956C14.3314 1.32733 16.6252 1.32733 18.9311 1.68956C19.1359 1.1848 19.428 0.542637 19.6916 0.0504816C19.701 0.0325119 19.7155 0.0181156 19.7332 0.00934791C19.7508 0.000580239 19.7707 -0.00211053 19.7899 0.00165975C21.9337 0.390266 23.9838 1.06865 25.896 1.98957C25.9128 1.99705 25.9267 2.00965 25.935 2.02698ZM13.221 13.1969C13.2446 11.4602 12.0386 10.0231 10.5247 10.0231C9.02325 10.0231 7.82888 11.4476 7.82888 13.1969C7.82888 14.9459 9.04687 16.3704 10.5247 16.3704C12.0266 16.3704 13.221 14.9459 13.221 13.1969ZM23.1892 13.1969C23.2129 11.4602 22.0069 10.0231 20.4934 10.0231C18.9915 10.0231 17.7971 11.4476 17.7971 13.1969C17.7971 14.9459 19.0151 16.3704 20.4934 16.3704C22.0069 16.3704 23.1892 14.9459 23.1892 13.1969Z"
        fill="#1C2135" />
</svg>
    