<svg width="66" height="66" viewBox="0 0 66 66" fill="none" xmlns="http://www.w3.org/2000/svg">
    <path d="M65.4066 20.155V1.24658H1.98926V63.9685H65.1266V38.0103" stroke="#1C2135"/>
    <path d="M7.00244 25.5396C7.00244 22.5203 7.00244 21.0107 7.59002 19.8576C8.10686 18.8432 8.93157 18.0185 9.94594 17.5016C11.0991 16.9141 12.6087 16.9141 15.6279 16.9141H30.7225C33.7417 16.9141 35.2513 16.9141 36.4045 17.5016C37.4189 18.0185 38.2436 18.8432 38.7604 19.8576C39.348 21.0107 39.348 22.5203 39.348 25.5396V27.2432C39.348 30.2624 39.348 31.772 38.7604 32.9252C38.2436 33.9396 37.4189 34.7643 36.4045 35.2811C35.2513 35.8687 33.7417 35.8687 30.7225 35.8687H26.2009C25.0795 35.8687 24.5188 35.8687 23.9825 35.9788C23.5066 36.0764 23.0462 36.2379 22.6137 36.4589C22.1261 36.708 21.6883 37.0583 20.8126 37.7588L16.526 41.1881C15.7783 41.7863 15.4044 42.0854 15.0898 42.0857C14.8162 42.086 14.5573 41.9616 14.3866 41.7477C14.1903 41.5018 14.1903 41.0231 14.1903 40.0656V35.8687C12.5192 35.8687 11.6836 35.8687 10.9981 35.685C9.13773 35.1865 7.68462 33.7334 7.18613 31.8731C7.00244 31.1875 7.00244 30.3519 7.00244 28.6808V25.5396Z" fill="#CAD1EA" stroke="#1C2135" stroke-linecap="round" stroke-linejoin="round"/>
    <path d="M11.1904 24.7974H20.1753M11.1904 28.0868H25.5662" stroke="#1C2135" stroke-linecap="round" stroke-linejoin="round"/>
    <path d="M65.1265 35.0898C65.1265 32.0706 65.1265 30.561 64.5389 29.4079C64.022 28.3935 63.1973 27.5688 62.183 27.0519C61.0298 26.4644 59.5202 26.4644 56.501 26.4644H41.4064C38.3872 26.4644 36.8776 26.4644 35.7244 27.0519C34.71 27.5688 33.8853 28.3935 33.3685 29.4079C32.7809 30.561 32.7809 32.0706 32.7809 35.0898V36.7935C32.7809 39.8127 32.7809 41.3223 33.3685 42.4755C33.8853 43.4899 34.71 44.3146 35.7244 44.8314C36.8776 45.419 38.3872 45.419 41.4064 45.419H45.928C47.0494 45.419 47.6101 45.419 48.1464 45.5291C48.6223 45.6267 49.0827 45.7882 49.5153 46.0092C50.0028 46.2583 50.4406 46.6086 51.3163 47.3091L55.6029 50.7384C56.3506 51.3366 56.7245 51.6356 57.0391 51.636C57.3127 51.6363 57.5716 51.5119 57.7423 51.298C57.9386 51.0521 57.9386 50.5734 57.9386 49.6158V45.419C59.6097 45.419 60.4453 45.419 61.1308 45.2353C62.9912 44.7368 64.4443 43.2837 64.9428 41.4234C65.1265 40.7378 65.1265 39.9022 65.1265 38.2311V35.0898Z" fill="#B4E6D9"/>
    <path d="M60.9386 34.3477H51.9537M60.9386 37.6371H46.5627M57.9386 45.419V49.6158C57.9386 50.5734 57.9386 51.0521 57.7423 51.298C57.5716 51.5119 57.3127 51.6363 57.0391 51.636C56.7245 51.6356 56.3506 51.3366 55.6029 50.7384L51.3163 47.3091C50.4406 46.6086 50.0028 46.2583 49.5153 46.0092C49.0827 45.7882 48.6223 45.6267 48.1464 45.5291C47.6101 45.419 47.0494 45.419 45.928 45.419H41.4064C38.3872 45.419 36.8776 45.419 35.7244 44.8314C34.71 44.3146 33.8853 43.4899 33.3685 42.4755C32.7809 41.3223 32.7809 39.8127 32.7809 36.7935V35.0898C32.7809 32.0706 32.7809 30.561 33.3685 29.4079C33.8853 28.3935 34.71 27.5688 35.7244 27.0519C36.8776 26.4644 38.3872 26.4644 41.4064 26.4644H56.501C59.5202 26.4644 61.0298 26.4644 62.183 27.0519C63.1973 27.5688 64.022 28.3935 64.5389 29.4079C65.1265 30.561 65.1265 32.0706 65.1265 35.0898V38.2311C65.1265 39.9022 65.1265 40.7378 64.9428 41.4234C64.4443 43.2837 62.9912 44.7368 61.1308 45.2353C60.4453 45.419 59.6097 45.419 57.9386 45.419Z" stroke="#1C2135" stroke-linecap="round" stroke-linejoin="round"/>
    <path d="M39.3479 26.4746V27.2433C39.3479 30.2625 39.3479 31.7721 38.7603 32.9253C38.2435 33.9397 37.4188 34.7644 36.4044 35.2812C35.5493 35.717 34.4981 35.8296 32.7808 35.8587V35.09C32.7808 32.0707 32.7808 30.5611 33.3683 29.408C33.8852 28.3936 34.7099 27.5689 35.7243 27.052C36.5794 26.6163 37.6305 26.5037 39.3479 26.4746Z" fill="#71BEDB" stroke="#1C2135" stroke-linecap="round" stroke-linejoin="round"/>
    </svg>
    