<svg width="66" height="66" viewBox="0 0 66 66" fill="none" xmlns="http://www.w3.org/2000/svg">
    <path d="M65.1266 43.9276V64.4685H1.98926V1.74658H65.1266V31.1297" stroke="#1C2135"/>
    <path d="M1.90039 35.9583L57.2402 35.9581" stroke="#1C2135"/>
    <rect width="8" height="8" rx="2" transform="matrix(1 0 0 -1 8.25146 39.9583)" fill="#949FC5" stroke="#1C2135"/>
    <rect width="4.98768" height="9.14409" rx="2" transform="matrix(1 0 0 -1 42.3447 52.5837)" fill="#CAD1EA" stroke="#1C2135"/>
    <line x1="44.8203" y1="46.1252" x2="44.8203" y2="50.0291" stroke="#1C2135" stroke-linecap="round"/>
    <path d="M44.8389 43.4395L44.8389 37.9579C44.8389 36.8534 43.9434 35.9579 42.8389 35.9579L37.3573 35.9579" stroke="#1C2135"/>
    <rect x="35.7095" y="19.3323" width="4.98768" height="9.14409" rx="2" fill="#CAD1EA" stroke="#1C2135"/>
    <line x1="0.5" y1="-0.5" x2="4.40381" y2="-0.5" transform="matrix(4.37114e-08 -1 -1 -4.37114e-08 37.6851 26.2908)" stroke="#1C2135" stroke-linecap="round"/>
    <path d="M38.2036 28.4766L38.2036 33.9581C38.2036 35.0627 37.3082 35.9581 36.2036 35.9581L30.7221 35.9581" stroke="#1C2135"/>
    <rect x="24.3696" y="13.5134" width="4.98768" height="14.9631" rx="2" fill="#B4E6D9" stroke="#1C2135"/>
    <path d="M26.8633 28.4766L26.8633 33.9581C26.8633 35.0627 25.9678 35.9581 24.8633 35.9581L20.213 35.9581" stroke="#1C2135"/>
    <line x1="26.8311" y1="17.6296" x2="26.8311" y2="25.6855" stroke="#1C2135" stroke-linecap="round"/>
    <rect x="45.1519" y="16.8386" width="4.98768" height="11.6379" rx="2" fill="#B4E6D9" stroke="#1C2135"/>
    <path d="M47.6455 28.4766L47.6455 33.9581C47.6455 35.0627 46.7501 35.9581 45.6455 35.9581L40.9953 35.9581" stroke="#1C2135"/>
    <line x1="47.6108" y1="21.2217" x2="47.6108" y2="25.6855" stroke="#1C2135" stroke-linecap="round"/>
    <path d="M65.1265 43.9644C65.1265 39.5426 61.5419 35.958 57.1201 35.958" stroke="#1C2135"/>
    </svg>
    