<svg width="101" height="101" viewBox="0 0 101 101" fill="none" xmlns="http://www.w3.org/2000/svg">
    <path d="M0.849609 1H100.033V99.5947H0.849609V1Z" stroke="#1C2135"/>
    <path d="M16.8921 35.8801C16.8921 30.2317 16.8921 27.4074 17.9906 25.25C18.957 23.3523 20.4989 21.8094 22.3954 20.8424C24.5514 19.7432 27.3738 19.7432 33.0186 19.7432H67.9594C73.6043 19.7432 76.4267 19.7432 78.5827 20.8424C80.4792 21.8094 82.0211 23.3523 82.9874 25.25C84.086 27.4074 84.086 30.2317 84.086 35.8801V50.6724C84.086 56.3208 84.086 59.1451 82.9874 61.3025C82.0211 63.2002 80.4792 64.7431 78.5827 65.7101C76.4267 66.8093 73.6043 66.8093 67.9594 66.8093H33.0186C27.3738 66.8093 24.5514 66.8093 22.3954 65.7101C20.4989 64.7431 18.957 63.2002 17.9906 61.3025C16.8921 59.1451 16.8921 56.3208 16.8921 50.6724V35.8801Z" fill="#CAD1EA"/>
    <path d="M37.0503 80.2568H63.9278M50.489 66.8093V80.2568M33.0186 66.8093H67.9594C73.6043 66.8093 76.4267 66.8093 78.5827 65.7101C80.4792 64.7431 82.0211 63.2002 82.9874 61.3025C84.086 59.1451 84.086 56.3208 84.086 50.6724V35.8801C84.086 30.2317 84.086 27.4074 82.9874 25.25C82.0211 23.3523 80.4792 21.8094 78.5827 20.8424C76.4267 19.7432 73.6043 19.7432 67.9594 19.7432H33.0186C27.3738 19.7432 24.5514 19.7432 22.3954 20.8424C20.4989 21.8094 18.957 23.3523 17.9906 25.25C16.8921 27.4074 16.8921 30.2317 16.8921 35.8801V50.6724C16.8921 56.3208 16.8921 59.1451 17.9906 61.3025C18.957 63.2002 20.4989 64.7431 22.3954 65.7101C24.5514 66.8093 27.3738 66.8093 33.0186 66.8093Z" stroke="#1C2135" stroke-linecap="square" stroke-linejoin="round"/>
    <path d="M43.2036 34.9581C43.2036 33.6423 43.2036 32.9844 43.4778 32.6217C43.7167 32.3057 44.0817 32.1102 44.4769 32.0866C44.9306 32.0595 45.4777 32.4245 46.5718 33.1544L60.8103 42.6528C61.7143 43.2559 62.1664 43.5575 62.3239 43.9375C62.4616 44.2698 62.4616 44.6433 62.3239 44.9756C62.1664 45.3557 61.7143 45.6572 60.8103 46.2603L46.5718 55.7588C45.4777 56.4887 44.9306 56.8536 44.4769 56.8265C44.0817 56.8029 43.7167 56.6074 43.4778 56.2915C43.2036 55.9288 43.2036 55.2709 43.2036 53.955V34.9581Z" fill="#B4E6D9" stroke="#1C2135" stroke-linecap="round" stroke-linejoin="round"/>
    </svg>
    