<svg width="96" height="97" viewBox="0 0 96 97" fill="none" xmlns="http://www.w3.org/2000/svg">
<path d="M86.6833 20.8121L50.1302 86.0931C49.3755 87.4409 47.4366 87.4488 46.6706 86.1076L9.39275 20.8184C8.55821 19.3567 9.80963 17.5863 11.468 17.8824L48.0602 24.4148C48.2936 24.4564 48.5326 24.456 48.766 24.4136L84.593 17.8917C86.2458 17.5908 87.5032 19.3476 86.6833 20.8121Z" fill="url(#paint0_linear_445_3174)"/>
<path d="M65.4903 9.31408L38.44 14.6078C37.9954 14.6948 37.6662 15.0711 37.6394 15.5227L35.9754 43.5906C35.9363 44.2517 36.5442 44.7648 37.1902 44.616L44.7214 42.8801C45.4261 42.7178 46.0628 43.3376 45.918 44.0453L43.6805 54.9882C43.5299 55.7247 44.2222 56.3545 44.9423 56.1361L49.594 54.7246C50.3151 54.5059 51.008 55.1375 50.8555 55.8745L47.2996 73.0634C47.0771 74.1386 48.5091 74.7249 49.1063 73.8031L49.5052 73.1874L71.5473 29.2538C71.9164 28.5182 71.2799 27.6795 70.471 27.8354L62.7188 29.3296C61.9904 29.4699 61.3705 28.7923 61.5761 28.0805L66.6358 10.5626C66.8416 9.84954 66.2196 9.17138 65.4903 9.31408Z" fill="url(#paint1_linear_445_3174)"/>
<defs>
<linearGradient id="paint0_linear_445_3174" x1="8.48258" y1="15.5493" x2="53.9015" y2="77.3095" gradientUnits="userSpaceOnUse">
<stop stop-color="#41D1FF"/>
<stop offset="1" stop-color="#BD34FE"/>
</linearGradient>
<linearGradient id="paint1_linear_445_3174" x1="45.9593" y1="10.7513" x2="54.1685" y2="67.1367" gradientUnits="userSpaceOnUse">
<stop stop-color="#FFEA83"/>
<stop offset="0.0833333" stop-color="#FFDD35"/>
<stop offset="1" stop-color="#FFA800"/>
</linearGradient>
</defs>
</svg>
