<svg width="96" height="97" viewBox="0 0 96 97" fill="none" xmlns="http://www.w3.org/2000/svg">
<path d="M48.3463 0.5L91.2731 24.4973V72.5027L48.3463 96.5L5.41943 72.5027V24.4973L48.3463 0.5Z" fill="white"/>
<path d="M83.6084 70.8475L49.7661 89.7691V75.0353L70.8524 63.5683L83.6084 70.8475ZM85.9267 68.7756V29.2114L73.5478 36.2823V61.7156L85.9267 68.7756ZM12.9511 70.8475L46.7934 89.7691V75.0353L25.696 63.5683L12.9511 70.8475ZM10.6328 68.7756V29.2114L23.0117 36.2823V61.7156L10.6328 68.7756ZM12.0859 26.6461L46.7934 7.24219V21.4827L24.5535 33.5745L24.3761 33.6732L12.0859 26.6461ZM84.4736 26.6461L49.7661 7.24219V21.4827L72.006 33.5635L72.1835 33.6622L84.4736 26.6461Z" fill="#8ED6FB"/>
<path d="M46.7933 71.6803L25.9844 60.3669V37.9702L46.7933 49.8427V71.6803ZM49.7661 71.6803L70.575 60.3778V37.9702L49.7661 49.8427V71.6803ZM27.3931 35.383L48.2797 24.0366L69.1663 35.383L48.2797 47.2994L27.3931 35.383Z" fill="#1C78C0"/>
</svg>
