<svg width="96" height="97" viewBox="0 0 96 97" fill="none" xmlns="http://www.w3.org/2000/svg">
<path d="M76.1595 35.4226C76.1595 31.1475 75.0398 27.1395 73.0676 23.666C67.8382 18.2838 56.4632 17.0369 53.6386 23.6405C50.7376 30.4095 58.5117 37.942 61.909 37.3439C66.235 36.5805 61.1455 26.656 61.1455 26.656C67.7618 39.1252 66.235 35.3082 54.2747 46.7594C42.3145 58.2107 30.0998 82.373 28.3185 83.3909C28.2421 83.4418 28.1658 83.48 28.0767 83.5181H74.9889C75.8159 83.5181 76.3503 82.6402 75.9814 81.9022L63.7157 57.6254C63.4486 57.1037 63.6394 56.4548 64.1483 56.1622C71.3245 52.0397 76.1595 44.3037 76.1595 35.4226Z" fill="url(#paint0_linear_445_3177)"/>
<path d="M76.1595 35.4226C76.1595 31.1475 75.0398 27.1395 73.0676 23.666C67.8382 18.2838 56.4632 17.0369 53.6386 23.6405C50.7376 30.4095 58.5117 37.942 61.909 37.3439C66.235 36.5805 61.1455 26.656 61.1455 26.656C67.7618 39.1252 66.235 35.3082 54.2747 46.7594C42.3145 58.2107 30.0998 82.373 28.3185 83.3909C28.2421 83.4418 28.1658 83.48 28.0767 83.5181H74.9889C75.8159 83.5181 76.3503 82.6402 75.9814 81.9022L63.7157 57.6254C63.4486 57.1037 63.6394 56.4548 64.1483 56.1622C71.3245 52.0397 76.1595 44.3037 76.1595 35.4226Z" fill="url(#paint1_linear_445_3177)"/>
<path d="M28.3181 83.3916C30.0995 82.3737 42.3142 58.1988 54.2744 46.7475C66.2346 35.2961 67.7615 39.1132 61.1452 26.644C61.1452 26.644 35.8251 62.1431 26.6641 79.7018" fill="url(#paint2_linear_445_3177)"/>
<path d="M31.8814 51.582C48.982 20.1418 51.2213 16.9736 60.1279 16.9736C64.8103 16.9736 69.5307 19.0857 72.5844 22.8392C68.4238 16.1338 61.0567 11.6424 52.6209 11.5151H23.5729C22.9621 11.5151 22.4658 12.0114 22.4658 12.6221V71.1765C24.1963 66.7104 27.1354 60.3232 31.8814 51.582Z" fill="url(#paint3_linear_445_3177)"/>
<path d="M54.2744 46.7475C42.3141 58.1988 30.0994 82.3738 28.3181 83.3917C26.5368 84.4096 23.5467 84.5368 21.9562 82.7555C20.264 80.8597 17.6302 77.7933 31.8808 51.5825C48.9813 20.1423 51.2207 16.9741 60.1273 16.9741C64.8096 16.9741 69.5301 19.0863 72.5838 22.8398C72.7492 23.107 72.9146 23.3868 73.08 23.6668C67.8506 18.2847 56.4756 17.0377 53.6509 23.6413C50.7499 30.4103 58.5241 37.9427 61.9213 37.3447C66.2474 36.5814 61.1579 26.6568 61.1579 26.6568C67.7615 39.1133 66.2347 35.2962 54.2744 46.7475Z" fill="url(#paint4_linear_445_3177)"/>
<path opacity="0.3" d="M33.2803 52.9822C50.3809 21.5419 52.6203 18.3737 61.5269 18.3737C65.3821 18.3737 69.2629 19.8115 72.2148 22.4071C69.1611 18.9208 64.6315 16.9741 60.1273 16.9741C51.2207 16.9741 48.9813 20.1423 31.8807 51.5825C17.6302 77.7933 20.264 80.8597 21.9562 82.7555C22.1981 83.0227 22.4779 83.2518 22.7705 83.4426C21.2819 81.2796 20.6203 76.2537 33.2803 52.9822Z" fill="url(#paint5_linear_445_3177)"/>
<defs>
<linearGradient id="paint0_linear_445_3177" x1="40.9745" y1="50.1886" x2="60.569" y2="54.7691" gradientUnits="userSpaceOnUse">
<stop stop-color="#FF6533"/>
<stop offset="0.157" stop-color="#FF5633"/>
<stop offset="0.434" stop-color="#FF4333"/>
<stop offset="0.714" stop-color="#FF3733"/>
<stop offset="1" stop-color="#FF3333"/>
</linearGradient>
<linearGradient id="paint1_linear_445_3177" x1="37.9099" y1="43.6933" x2="73.0273" y2="70.922" gradientUnits="userSpaceOnUse">
<stop stop-color="#BF3338"/>
<stop offset="1" stop-color="#FF3333"/>
</linearGradient>
<linearGradient id="paint2_linear_445_3177" x1="39.0551" y1="49.0576" x2="44.1446" y2="54.4015" gradientUnits="userSpaceOnUse">
<stop stop-color="#FF6533"/>
<stop offset="0.157" stop-color="#FF5633"/>
<stop offset="0.434" stop-color="#FF4333"/>
<stop offset="0.714" stop-color="#FF3733"/>
<stop offset="1" stop-color="#FF3333"/>
</linearGradient>
<linearGradient id="paint3_linear_445_3177" x1="48.3091" y1="58.2564" x2="46.7822" y2="36.3717" gradientUnits="userSpaceOnUse">
<stop stop-color="#FF6533"/>
<stop offset="0.157" stop-color="#FF5633"/>
<stop offset="0.434" stop-color="#FF4333"/>
<stop offset="0.714" stop-color="#FF3733"/>
<stop offset="1" stop-color="#FF3333"/>
</linearGradient>
<linearGradient id="paint4_linear_445_3177" x1="41.6939" y1="48.6826" x2="48.9232" y2="53.5987" gradientUnits="userSpaceOnUse">
<stop stop-color="#FBB040"/>
<stop offset="1" stop-color="#FB8840"/>
</linearGradient>
<linearGradient id="paint5_linear_445_3177" x1="49.1" y1="20.8876" x2="41.7203" y2="102.065" gradientUnits="userSpaceOnUse">
<stop stop-color="white"/>
<stop offset="1" stop-color="white" stop-opacity="0"/>
</linearGradient>
</defs>
</svg>
