<svg width="196" height="114" viewBox="0 0 196 114" fill="none" xmlns="http://www.w3.org/2000/svg">
  <path d="M147.662 58.4926C147.335 58.3232 147.007 58.1538 146.625 58.0973C144.333 57.589 142.15 57.9279 139.912 58.1538C138.329 58.3232 135.545 58.3797 135.709 56.0642C136.091 51.2638 142.095 51.2073 145.097 49.1742C145.479 48.9483 145.752 48.4965 145.806 48.0447C145.806 47.7623 145.752 47.4799 145.643 47.1975C142.695 39.291 135.327 34.2082 127.959 31.328C122.337 29.1254 117.261 28.2783 111.312 29.6337C109.947 29.9726 108.583 30.3679 107.218 30.8762C106.127 31.2715 104.926 31.7798 103.725 32.2881C101.651 33.3611 97.8849 35.1683 96.6842 32.1186C94.501 26.5276 91.3353 20.6541 87.2418 16.1926C84.6765 13.4253 80.9105 12.1264 77.3082 12.8605C73.1601 13.7641 71.0315 17.1527 68.4662 20.3153C67.1563 21.8966 62.8444 26.7535 61.1525 22.8567C60.4975 21.3883 60.9341 19.7505 60.6066 18.2257C59.6788 13.8206 55.4761 12.5782 51.6555 12.6346C48.2715 12.6911 44.8875 13.3123 41.6673 14.4983C38.4471 15.6843 35.4997 17.6045 32.1158 18.4516C27.4219 19.6376 22.728 14.8372 17.652 16.8703C16.5058 17.2656 15.4688 17.8304 14.4864 18.621C12.6306 20.0329 11.3207 22.1225 10.8295 24.4945C10.7749 24.6639 10.7749 24.7768 10.7203 24.9463C9.68331 32.1751 7.55468 38.7827 5.53521 45.2209C3.18826 52.5062 0.78673 60.0739 0.0771874 68.3193C0.0226072 69.0535 -0.0319722 69.7877 0.022608 70.5219C0.022608 70.5219 0.022608 70.5783 0.022608 70.6348C0.295509 76.7342 4.33444 81.8734 10.0654 83.3418C11.6482 84.9231 13.9406 86.5609 17.0516 86.5609C17.1608 86.5609 17.3245 86.5609 17.4337 86.5609C19.6715 86.3914 21.8001 85.4314 23.4375 83.7936C25.2387 81.6475 26.9852 79.445 28.6772 77.2424C31.8975 81.3651 37.6284 83.5112 42.486 82.777C42.8135 82.777 43.141 82.777 43.4685 82.777C48.5444 83.2288 53.1837 80.2356 57.8776 80.2356C62.6807 80.6874 67.5383 80.8004 72.1231 80.0662C73.6513 79.8403 75.125 79.5014 76.5986 79.0496C77.199 80.4051 78.3452 81.4216 79.7097 81.8734C81.1834 82.2687 82.7116 82.3817 84.2399 82.1558C87.6784 81.4781 91.772 79.6709 94.1189 80.8569C97.5575 82.6076 101.433 82.89 105.472 82.5511C106.782 82.4382 108.146 82.2123 109.511 81.9864C119.335 80.2921 129.869 78.4849 137.456 71.1996C137.456 75.3223 128.341 76.8471 131.07 81.4781C131.343 81.9864 139.475 78.3155 140.294 77.9201C142.804 76.7906 146.243 75.5482 147.662 72.9503C147.826 72.6679 147.935 72.3291 147.99 71.9338C148.099 70.4089 146.134 69.5053 145.479 68.2629C144.66 66.851 144.769 65.0438 145.806 63.8013C146.461 63.0106 147.171 62.3329 147.99 61.7682C149.081 60.9775 149.19 59.4527 147.662 58.4926Z" fill="#E22741"/>
  <path d="M53.3522 27.2065C54.1163 26.5288 54.4438 25.9641 54.3892 25.1169C54.2255 21.559 49.4224 18.9047 46.3659 19.0741C45.0014 19.1306 43.5823 19.6388 42.982 20.9942C37.0327 30.0303 23.988 54.4841 17.8205 63.1813C17.5476 63.4637 17.2201 63.5767 16.838 63.6331C16.5651 63.6331 16.4014 63.5202 16.4014 63.1813C16.4014 63.0119 16.4014 62.899 16.456 62.7295C18.2025 57.4208 23.8243 37.8239 28.9548 30.1997C29.4461 29.6915 29.719 29.0137 29.719 28.336C29.5552 25.3428 24.3701 23.4227 21.7503 23.5356C20.222 23.5921 18.0388 24.2698 17.6567 26.19C15.2552 42.4549 8.26894 54.9359 7.01359 69.2242C6.95901 69.6195 6.95901 70.0149 7.01359 70.4102C7.23191 74.4764 10.2884 76.6225 13.6178 76.7354C14.9823 78.4862 16.0193 79.5027 17.0564 79.4462C17.9842 79.3898 18.9121 78.5426 20.1128 76.5095C25.7346 66.7957 36.4869 43.415 53.3522 27.2065Z" fill="white"/>
  <path d="M128.884 44.8254C128.666 44.8254 128.557 44.9948 128.339 45.2772C127.138 47.0844 120.643 55.8946 118.732 58.2665C116.058 61.5986 112.456 65.6648 111.746 66.286C111.309 66.8508 110.764 67.1896 110.109 67.3591C109.672 67.3591 109.29 67.0202 109.29 66.2296C109.072 61.5986 115.949 52.732 118.187 49.5129C118.678 48.8352 118.951 48.0445 119.005 47.2538C118.896 44.5995 113.711 44.4866 111.637 43.1311C111.801 43.1311 112.783 40.5333 112.674 38.5002C112.619 37.0883 111.964 35.8458 110.163 35.9588C104.105 36.2976 99.3018 40.7027 99.4656 44.3171C99.5747 46.2938 100.994 48.0445 104.378 48.8916C104.269 49.0611 104.105 49.2305 103.941 49.4564C102.904 50.7553 101.649 52.2237 100.666 53.4661C98.5377 56.177 96.1908 57.3065 94.2259 57.4194H94.0621C96.7366 52.4496 98.5377 47.988 98.4831 46.6891C98.374 44.3736 95.6995 41.5498 92.0972 41.7193C90.1869 40.7027 89.0407 38.5566 87.4033 38.6696C83.2552 38.839 76.4327 49.9647 73.8129 59.7914C73.6491 60.0173 73.4308 60.2432 73.3216 60.4126C71.3022 63.2928 68.9007 65.9472 66.2808 68.2627C66.1171 68.3756 65.9533 68.4886 65.7896 68.4886C65.3529 68.4886 65.1346 68.0368 65.08 67.4156C64.8617 63.4058 76.269 39.9685 83.5281 30.6501C85.4384 28.1652 86.148 26.1885 86.0934 24.6637C85.9297 20.7669 81.0175 19.468 78.6159 19.5809C76.5965 19.6939 75.9961 19.9762 76.0507 20.4281C76.0507 20.9363 76.8148 21.6705 76.8694 22.5176C76.8694 22.8 76.8148 23.1389 76.651 23.3648C71.3022 33.3609 60.6045 54.991 58.9125 64.2529C58.8579 64.2529 58.8033 64.1965 58.8033 64.1965C58.1483 64.9871 55.4193 67.8109 53.9457 67.8674C53.0724 67.9238 52.3628 67.2461 52.3083 66.3425C52.1991 63.6882 56.893 55.6122 58.3667 53.5226C58.6396 53.1838 58.8033 52.732 58.8579 52.3366C58.8033 50.8683 56.1835 49.5129 53.127 49.6823C52.3628 49.6823 51.5441 49.8517 50.8346 50.0776C49.8522 56.6288 42.975 70.7476 38.7724 70.9735C38.2811 70.9735 38.0628 70.4652 38.0083 69.5616C37.7899 64.5918 43.3025 49.0611 53.6182 48.5528C54.7644 48.4963 55.9106 48.6657 57.0567 48.9481C57.3296 49.0046 57.6025 49.0611 57.8209 49.0611C59.0216 49.0046 60.0587 46.802 59.9495 44.4866C59.8403 41.9452 58.3667 39.4038 54.2732 39.5732C41.938 40.138 32.4411 60.3561 32.9323 70.8605C33.096 74.1361 36.0979 75.9433 39.209 75.8304C41.1193 75.7174 44.285 73.4019 47.1231 69.844C47.4506 72.5548 48.9243 73.7973 51.0529 73.7408C53.3453 73.6278 56.3472 71.7641 58.967 68.0933C59.6766 71.1994 62.2419 75.0397 64.9163 74.9268C65.6804 74.8703 66.39 74.5314 66.9358 73.9667C68.6823 72.3854 70.9201 69.4487 72.885 66.7943C72.885 67.1896 72.885 67.585 72.885 67.9238C73.1033 72.103 75.0136 74.9268 79.4892 74.7009C83.0369 74.5314 87.84 68.4321 91.7698 61.9374C92.261 62.0504 92.8068 62.0504 93.3526 61.9939C96.6274 61.8245 100.393 59.8478 103.122 55.6687C104.487 53.5791 105.851 51.3765 106.943 49.5129C107.543 49.6258 108.198 49.6258 108.853 49.6823C106.343 55.2169 102.631 64.8177 102.904 70.3523C103.013 72.9501 104.05 74.5879 106.452 74.475C110.927 74.2491 117.859 65.6083 120.806 61.0903C124.572 55.4993 128.448 49.4564 130.194 46.3502C130.03 46.0679 129.539 44.7689 128.884 44.8254ZM86.5301 56.1205C86.5846 57.0241 86.803 57.9277 87.2396 58.7748C84.8381 64.1965 80.4717 70.5782 78.5613 70.6911C78.1247 70.6911 77.8518 70.4652 77.7972 69.844C77.4152 61.8245 84.4014 51.2071 87.4033 51.0377H87.6217C86.8575 52.5625 86.4755 54.3697 86.5301 56.1205Z" fill="white"/>
  <path d="M17.0493 95.5417H13.5562V94.751C13.5562 94.0168 13.3925 93.2262 13.0104 92.6049C12.5738 91.9837 11.8642 91.6449 11.1001 91.7013C10.718 91.7013 10.2814 91.7578 9.95392 91.9837C9.68102 92.1531 9.40811 92.379 9.24437 92.7179C9.08063 93.0568 8.91689 93.3956 8.86231 93.7909C8.80773 94.1863 8.75315 94.5816 8.75315 95.0334C8.75315 95.4287 8.75315 95.8805 8.80773 96.2758C8.86231 96.5582 8.91689 96.8971 9.08063 97.1794C9.24437 97.4618 9.40811 97.6877 9.68102 97.8572C10.0085 98.0831 10.3906 98.2525 10.7726 98.4219L13.447 99.4949C14.102 99.7208 14.757 100.116 15.3574 100.568C15.8486 100.963 16.2306 101.472 16.5035 101.98C16.7764 102.601 16.9402 103.222 16.9948 103.9C17.1039 104.691 17.1585 105.538 17.1039 106.385C17.1039 107.401 16.9948 108.362 16.7764 109.322C16.6127 110.169 16.2852 110.959 15.794 111.637C15.3028 112.315 14.6478 112.823 13.8837 113.218C13.0104 113.614 12.028 113.84 11.0455 113.783C10.2268 113.783 9.40811 113.614 8.69857 113.331C7.98903 113.049 7.33407 112.597 6.78826 112.032C6.24246 111.468 5.8604 110.846 5.53292 110.112C5.20544 109.378 5.0417 108.587 5.09628 107.74V106.385H8.58941V107.514C8.58941 108.136 8.75315 108.813 9.13521 109.322C9.62644 109.886 10.336 110.169 11.0455 110.112C11.5367 110.112 11.9734 110.056 12.41 109.83C12.7375 109.66 13.0104 109.378 13.1741 109.096C13.3925 108.757 13.5016 108.305 13.5016 107.91C13.5562 107.458 13.5562 106.95 13.5562 106.385C13.5562 105.82 13.5562 105.312 13.5016 104.747C13.5016 104.408 13.3925 104.013 13.2287 103.731C13.065 103.448 12.8467 103.279 12.5738 103.109C12.2463 102.883 11.8642 102.714 11.5367 102.601L9.02605 101.528C7.49781 100.907 6.51537 100.06 5.96956 98.9867C5.42376 97.7442 5.15086 96.3888 5.20544 95.0334C5.20544 94.1298 5.3146 93.2262 5.5875 92.3226C5.80582 91.5319 6.18788 90.7977 6.73369 90.12C7.22491 89.4988 7.87987 88.9905 8.58941 88.6517C9.40811 88.2563 10.336 88.0869 11.2638 88.0869C12.0825 88.0869 12.9012 88.2563 13.6654 88.5952C14.3749 88.934 14.9753 89.3294 15.5211 89.8941C16.5035 90.9107 17.1039 92.3226 17.1039 93.7909L17.0493 95.5417Z" fill="#010101"/>
  <path d="M19.4516 94.2429C19.4516 93.3393 19.6154 92.3793 19.9429 91.5321C20.2703 90.798 20.707 90.1202 21.3074 89.5555C21.8532 89.0472 22.5081 88.6519 23.1631 88.426C25.2371 87.6353 27.5841 88.0871 29.2761 89.5555C29.8219 90.1202 30.3131 90.7415 30.586 91.5321C30.9681 92.3793 31.1318 93.2829 31.0772 94.2429V107.571C31.0772 108.531 30.9135 109.435 30.586 110.282C30.2585 111.016 29.8219 111.637 29.2761 112.146C28.7303 112.654 28.0753 113.049 27.3658 113.332C26.0013 113.84 24.5276 113.84 23.1631 113.332C22.4536 113.049 21.8532 112.654 21.3074 112.146C20.707 111.637 20.2703 111.016 19.9429 110.282C19.5608 109.435 19.3971 108.475 19.4516 107.571V94.2429ZM22.9448 107.571C22.8902 108.305 23.1631 108.983 23.6543 109.491C24.6368 110.338 26.0013 110.338 26.9837 109.491C27.4749 108.983 27.7478 108.305 27.6933 107.571V94.2429C27.7478 93.5088 27.4749 92.8311 26.9837 92.3228C26.0013 91.4757 24.6368 91.4757 23.6543 92.3228C23.1631 92.8311 22.8902 93.5088 22.9448 94.2429V107.571Z" fill="#010101"/>
  <path d="M34.248 113.502V88.2578H44.6729V91.6463H37.7412V99.327H43.745V102.716H37.7412V113.502H34.248Z" fill="#010101"/>
  <path d="M50.4022 113.502V91.6463H46.3633V88.2578H57.9343V91.6463H53.8953V113.502H50.4022Z" fill="#010101"/>
  <path d="M78.7278 88.3125L75.071 113.557H71.7962L69.1217 97.1791H69.0672L66.4473 113.557H63.1725L59.5156 88.3125H63.2271L64.9736 104.351H65.0282L67.7572 88.3125H70.4317L73.2698 104.747H73.3244L75.0164 88.3125H78.7278Z" fill="#010101"/>
  <path d="M78.3438 113.502L83.8018 88.2578H86.6945L92.1526 113.502H88.6594L87.6224 108.081H82.8739L81.8369 113.502H78.3438ZM86.9674 104.692L85.2754 95.5431H85.2209L83.5289 104.692H86.9674Z" fill="#010101"/>
  <path d="M95.0449 113.502V88.2578H100.667C104.76 88.2578 106.834 90.7427 106.834 95.6561C106.889 96.955 106.616 98.254 106.179 99.4399C105.688 100.513 104.869 101.417 103.832 101.981L107.598 113.502H103.887L100.612 102.716H98.5381V113.502H95.0449ZM98.5381 91.7028V99.5529H100.503C100.994 99.5529 101.485 99.4964 101.977 99.2705C102.304 99.1011 102.632 98.8187 102.85 98.4799C103.068 98.0845 103.177 97.6892 103.232 97.2374C103.341 96.1079 103.341 94.9784 103.232 93.8489C103.177 93.3971 103.014 93.0017 102.795 92.6064C102.359 91.9287 101.54 91.5899 100.339 91.5899L98.5381 91.7028Z" fill="#010101"/>
  <path d="M110.227 113.502V88.2578H120.651V91.6463H113.72V99.0446H119.724V102.433H113.72V109.888H120.651V113.502H110.227Z" fill="#010101"/>
  <path d="M160.542 13.8232H149.189V20.4873H160.542V13.8232Z" fill="#FECB3D"/>
  <path d="M178.007 93.4521L172.549 93.0004L168.947 89.7812L152.3 91.9838L144.168 92.0403L144.004 109.774H155.848C156.667 109.491 164.144 107.74 167.473 107.91C170.803 108.079 176.425 109.152 178.062 109.774C178.062 109.774 183.738 109.604 185.812 109.152C187.886 108.7 192.471 106.272 192.471 106.272L178.007 93.4521Z" fill="#E22741"/>
  <path d="M143.62 110.338C142.092 110.338 140.673 111.297 140.127 112.821C140.127 112.821 151.043 112.877 151.316 112.877C151.916 112.765 152.462 112.426 152.844 111.974C153.062 111.467 153.281 110.902 153.39 110.338H143.62Z" fill="#FFEFD1"/>
  <path d="M194.488 111.241C194.161 110.902 193.724 110.619 193.288 110.45C192.851 110.281 192.414 110.168 191.923 110.168C191.814 110.168 191.705 110.168 191.541 110.168H191.104C190.886 110.168 190.613 110.168 190.395 110.111C189.413 109.998 188.485 109.659 187.611 109.151L187.448 109.038L182.535 110.281C182.481 110.902 182.59 111.523 182.808 112.088C183.136 112.765 184.664 112.991 185.21 112.991L194.98 112.878V112.427C195.034 111.975 194.816 111.579 194.488 111.241Z" fill="#FFEFD1"/>
  <path d="M177.248 87.2959L180.414 80.9707C180.414 80.9707 183.306 81.5355 184.671 82.3261C185.108 82.552 186.854 83.738 187.018 84.3027C187.182 84.8675 186.363 86.8441 186.308 87.1265C187.018 87.6913 187.291 88.6513 186.963 89.4985C186.472 90.515 184.453 90.1762 183.634 90.0632C182.815 89.9503 177.248 87.2959 177.248 87.2959Z" fill="#FFEFD1"/>
  <path d="M151.32 69.1128C147.609 69.1128 143.952 68.6045 140.404 67.475C139.204 67.0796 138.057 66.6278 136.966 66.0631C136.42 65.7807 135.874 65.4418 135.383 65.103C135.165 64.9336 134.946 64.7077 134.728 64.5382C134.728 64.5382 134.728 64.5382 134.673 64.4818H134.564L134.455 64.1429L134.783 63.9735L134.455 64.1429L134.346 63.8041L134.128 63.0134C133.746 61.771 133.363 60.5285 132.927 59.286C132.981 59.6814 133.036 60.1332 133.091 60.585L133.2 61.1497L132.654 61.0933C131.781 61.0368 131.017 60.6979 130.307 60.1332C129.488 59.4555 128.779 58.5519 128.288 57.5918C127.414 55.841 126.596 51.2101 126.541 50.25C126.486 49.4593 126.541 48.7251 126.65 47.9345C126.705 47.4262 126.868 46.9179 127.032 46.4097C127.141 46.0143 127.469 45.6755 127.905 45.5061C128.124 45.4496 128.342 45.4496 128.56 45.4496C129.27 45.4496 130.034 45.732 130.58 46.1838C131.344 46.8615 131.944 47.7086 132.381 48.6687C132.654 49.2334 132.818 49.8547 132.927 50.4759C133.254 49.8547 133.8 48.7816 134.346 47.7651C136.475 43.4729 140.022 36.2441 143.843 34.1545L143.897 34.098H143.952C145.371 33.7592 146.845 33.5333 148.318 33.3639C149.956 33.1944 151.593 33.0815 153.285 33.0815H153.34C156.615 33.0815 159.944 33.4203 163.164 34.0416H163.219C163.273 34.0416 163.328 34.0416 163.328 34.0416H163.383C165.129 33.4203 166.876 32.8556 168.622 32.4038C170.26 31.952 171.897 31.6696 173.589 31.5566H173.807L173.971 31.7261C174.244 32.1214 174.462 32.5167 174.735 32.9685C175.008 33.5333 175.281 34.098 175.499 34.7193C175.936 35.9052 176.318 37.1477 176.591 38.3902C177.082 40.9315 177.301 43.4729 177.246 46.0708C177.191 46.2967 177.355 46.4661 177.573 46.5226C177.737 46.5226 177.901 46.4661 177.956 46.2967V46.2402C178.119 45.7884 178.392 45.3931 178.665 44.9413V44.8848C178.938 44.433 179.32 44.0377 179.702 43.6988C180.466 43.0211 181.503 42.7952 182.486 43.0211C182.813 43.0776 183.141 43.4165 183.359 43.9247C183.577 44.433 183.686 44.9413 183.741 45.4496C183.85 46.1838 183.905 46.9744 183.85 47.7651L183.741 49.0075C183.523 51.0971 182.922 53.1867 181.994 55.0504C181.503 56.0105 180.794 56.8576 179.975 57.5353C179.211 58.1001 178.338 58.4389 177.41 58.4389C177.301 58.4389 177.246 58.4389 177.137 58.4389H176.755V58.0436C176.755 57.5353 176.7 57.027 176.7 56.5187C176.591 57.14 176.427 57.7047 176.373 58.213C176.318 58.5519 176.264 58.8907 176.209 59.2296C176.154 59.5119 176.1 59.7943 176.045 60.1332L175.881 61.0933C175.881 61.2062 175.827 61.3756 175.827 61.4886V61.545H175.718L175.827 61.6015V61.658L175.772 61.7145C175.772 61.771 175.718 61.771 175.718 61.8274C175.336 62.2792 174.954 62.6746 174.462 63.0134C173.971 63.4087 173.48 63.7476 172.934 64.03C171.843 64.6512 170.751 65.2159 169.605 65.6678C164.965 67.5314 160.108 68.6609 155.196 68.9998C153.776 69.0563 152.521 69.1128 151.32 69.1128Z" fill="#FFEFD1"/>
  <path d="M164.146 84.9811C164.091 84.9811 164.146 84.9811 164.146 84.9811C164.801 85.7153 166.82 87.7484 166.82 87.7484L157.978 88.5955C157.16 87.1271 155.358 86.5624 153.939 87.4095C153.448 87.6919 153.066 88.0872 152.793 88.5955L145.916 88.2566C145.916 88.2566 152.356 81.4231 153.666 79.5594C154.976 77.6958 159.725 69.168 159.725 69.168C159.725 69.168 167.148 73.0083 170.532 74.5896C174.243 76.2839 181.12 78.8817 181.12 78.8817L176.59 87.0142C176.59 87.0142 173.588 85.0375 172.769 86.7318C171.951 88.4261 175.881 89.9509 175.881 89.9509L172.715 92.1535C172.769 92.1535 165.128 85.7153 164.146 84.9811Z" fill="white"/>
  <path d="M146.074 69.7889L143.945 69.3936L129.918 88.6516C129.918 88.6516 135.103 92.6049 136.249 93.1697C138.214 94.1862 143.236 95.7111 143.236 95.7111C143.236 95.7111 143.508 82.7217 143.727 80.8581C143.945 82.7217 144.163 88.0304 144.163 88.0304L146.183 88.1998C146.183 88.1998 149.458 84.8678 150.495 83.3994C151.095 82.6653 153.77 77.8649 153.77 77.8649L146.074 69.7889Z" fill="white"/>
  <path d="M149.514 89.4992C147.876 89.4427 146.239 89.3863 144.547 89.2734C144.547 89.7813 144.547 90.2892 144.601 90.7971C146.403 90.91 148.258 90.91 150.114 90.91C150.769 90.91 151.424 90.91 152.079 90.8536C152.024 90.5714 151.97 90.2892 151.97 90.0071C151.97 89.8378 151.97 89.6685 152.024 89.4427C151.206 89.5556 150.387 89.5556 149.514 89.4992Z" fill="#FCBD19"/>
  <path d="M147.062 69.9593L158.688 69.7334C157.378 72.7831 155.686 75.6068 153.612 78.1482C151.047 75.7763 148.809 73.009 147.062 69.9593Z" fill="#F9BC8D"/>
  <path d="M183.518 81.31L187.011 75.7754L189.03 77.1308L185.646 82.5524L183.518 81.31Z" fill="#FCBD19"/>
  <path d="M167.802 89.3301C167.42 88.9915 167.038 88.5964 166.656 88.2578C163.982 88.7657 161.307 89.1043 158.633 89.2736C158.687 89.5558 158.742 89.7815 158.742 90.0637C158.742 90.233 158.742 90.4587 158.687 90.628C161.798 90.4023 164.8 90.0073 167.802 89.3301Z" fill="#FCBD19"/>
  <path d="M165.295 92.7744C165.295 92.7744 170.862 102.771 179.104 106.893C179.158 106.893 166.332 93.2262 165.295 92.7744Z" fill="#010101"/>
  <path d="M169.606 105.933C166.222 104.239 163.275 101.585 160.982 98.9868L162.511 98.4785C166.058 102.149 169.606 105.933 169.606 105.933Z" fill="#010101"/>
  <path d="M155.417 92.49C156.782 92.49 157.873 91.3605 157.873 89.9486C157.873 88.5367 156.782 87.4072 155.417 87.4072C154.053 87.4072 152.961 88.5367 152.961 89.9486C152.961 91.3605 154.053 92.49 155.417 92.49Z" fill="#FECB3D"/>
  <path d="M152.517 89.1037L144.111 88.8779L144.166 91.3046L152.626 91.4174L152.517 89.1037Z" fill="#FECB3D"/>
  <path d="M166.823 87.8047L158.145 88.8777L158.199 91.1367C161.747 91.1932 165.349 90.6849 168.733 89.6119L166.823 87.8047Z" fill="#FECB3D"/>
  <path d="M157.051 92.6064L154.268 93.0582L154.977 101.191L160.926 98.6493L157.051 92.6064Z" fill="#FECB3D"/>
  <path d="M135.653 96.7832C133.633 95.1454 133.688 91.7568 133.688 91.7568L139.801 95.0324C139.801 95.0324 137.672 98.4209 135.653 96.7832Z" fill="#FFEFD1"/>
  <path d="M142.696 107.345C141.113 107.232 136.529 106.498 136.529 106.498C136.256 106.611 153.121 102.827 157.215 100.568C162.072 98.817 174.68 91.7011 176.645 90.3457L178.555 91.4187C176.973 93.6778 170.095 99.0429 167.148 100.794C163.873 102.883 153.449 108.305 153.449 108.305C153.449 108.305 143.297 107.401 142.696 107.345Z" fill="white"/>
  <path d="M183.2 93.9604C182.218 93.7345 173.485 88.5387 173.485 88.5387C172.939 88.1999 172.721 87.4657 172.939 86.8445C173.321 86.0538 174.467 86.1103 174.74 86.2797C174.74 86.2797 184.128 91.419 184.565 92.0402C185.001 92.6614 185.165 93.1132 184.892 93.6215C184.619 94.1298 184.183 94.2427 183.2 93.9604Z" fill="#FCBD19"/>
  <path d="M132.822 84.6416L130.912 87.3524C130.912 87.3524 137.462 92.1528 143.138 93.8471V90.1197C143.193 90.0632 136.534 87.5783 132.822 84.6416Z" fill="#E22741"/>
  <path d="M144.496 69.6764L143.677 69.5635L142.422 71.3142C144.66 75.8887 151.318 81.8751 151.318 81.8751L153.338 79.1078C148.699 76.397 144.496 69.6764 144.496 69.6764Z" fill="#E22741"/>
  <path d="M161.365 69.9014C161.365 69.9014 154.87 84.2461 147.393 88.7077L151.977 88.8206C151.977 88.8206 159.509 83.5119 164.913 72.4428L161.365 69.9014Z" fill="#E22741"/>
  <path d="M175.226 86.4485C175.226 86.4485 178.992 80.2362 179.538 78.203C179.592 78.0336 175.062 76.5088 175.062 76.5088C173.643 82.0434 169.004 89.0463 169.004 89.0463L172.224 91.5877C172.934 90.7406 173.589 89.7805 174.189 88.8769C174.189 88.8769 172.497 87.9168 173.207 86.7308C173.916 85.5449 175.226 86.4485 175.226 86.4485Z" fill="#E22741"/>
  <path d="M128.719 50.3607C124.789 49.7959 126.917 54.8222 126.917 54.8222L128.609 58.2107C128.609 58.2107 127.354 55.5564 129.428 55.1611C131.502 54.7657 132.266 57.1377 132.266 57.1377C132.266 57.1377 132.594 50.9819 128.719 50.3607Z" fill="#F9BC8D"/>
  <path d="M183.69 49.5154C183.744 47.8212 181.888 48.1035 179.924 48.8377C177.959 49.5719 176.812 55.9536 176.812 55.9536L177.195 57.6479C177.195 57.6479 178.723 51.7744 180.742 51.718C182.762 51.6615 182.434 54.5982 182.434 54.5982C182.434 54.5982 183.635 51.2097 183.69 49.5154Z" fill="#F9BC8D"/>
  <path d="M139.094 62.6729C140.458 61.3175 141.277 59.5103 141.441 57.5901C141.604 54.4275 140.185 50.4742 140.786 49.6271C140.786 49.6271 150.61 50.1354 152.193 49.6271C153.776 49.1188 155.14 45.5044 152.193 42.963C152.52 44.036 152.684 45.1091 152.793 46.2386C152.903 47.0292 152.739 47.7634 152.466 48.4976C152.466 48.4976 151.647 48.5541 147.717 46.5774C146.135 45.8432 144.552 44.9961 143.078 44.0925C143.078 44.0925 146.68 38.2755 145.48 34.3223L142.696 34.4917C142.696 34.4917 141.331 40.0828 140.294 41.777C139.257 43.4713 136.146 48.3846 136.91 50.8695C137.675 53.3545 139.257 57.6466 139.312 58.7196C139.367 59.7926 139.094 62.6729 139.094 62.6729Z" fill="#F9BC8D"/>
  <path d="M166.114 46.6897C166.114 46.6897 166.987 40.308 172.063 37.936C169.007 37.6536 166.06 39.0655 164.258 41.6069C161.147 46.012 159.564 47.085 159.564 47.085C159.564 47.085 157.163 47.3109 156.563 44.2048L156.29 45.5037C156.181 45.6731 156.781 49.2311 158.691 50.0218C160.602 50.8124 164.64 49.5135 164.64 49.5135H174.137C172.227 47.085 169.116 46.012 166.114 46.6897Z" fill="#F9BC8D"/>
  <path d="M152.799 55.9521C152.799 55.9521 153.781 59.9619 155.855 60.3008C157.929 60.6396 159.294 55.9521 159.294 55.9521C159.294 55.9521 157.547 57.7594 155.91 57.6464C154.272 57.5335 152.799 55.9521 152.799 55.9521Z" fill="#F9BC8D"/>
  <path d="M150.994 64.4797C150.994 64.4797 156.616 65.552 160.218 63.7461C160.218 63.7461 158.417 66.6806 155.197 66.6242C151.977 66.5678 150.994 64.4797 150.994 64.4797Z" fill="#F9BC8D"/>
  <path d="M195.037 110.734C194.655 110.338 194.164 109.999 193.618 109.774C193.127 109.548 192.581 109.435 192.035 109.378C191.435 109.322 191.053 109.322 190.616 109.265C190.179 109.209 189.797 109.039 189.415 108.87C190.671 108.305 191.926 107.627 193.018 106.78C193.072 106.78 193.072 106.724 193.127 106.667C193.345 106.441 193.29 106.046 193.072 105.877L178.881 92.7744C178.99 92.6615 179.1 92.5485 179.209 92.4921C179.536 92.6615 179.864 92.8874 180.191 93.0568L181.774 94.0169L182.593 94.5252C182.757 94.6381 182.92 94.6946 183.084 94.8075C183.302 94.9205 183.521 94.9205 183.739 94.977H183.794C184.831 94.977 185.704 94.1298 185.704 93.0568C185.704 92.5485 185.54 92.0967 185.213 91.7579C185.103 91.6449 185.049 91.532 184.94 91.4755L184.831 91.3625L184.721 91.2496L184.339 91.0237C184.23 90.9672 184.176 90.9108 184.066 90.8543C184.285 90.8543 184.448 90.9107 184.667 90.9107C185.322 90.9672 185.977 90.8543 186.577 90.6284C186.959 90.4589 187.232 90.1766 187.45 89.7812C187.614 89.4424 187.723 88.9906 187.614 88.5953C187.505 88.0305 187.178 87.4658 186.686 87.1834C186.905 86.901 187.068 86.6186 187.232 86.2798C187.505 85.828 187.669 85.3762 187.832 84.9244C187.887 84.7549 187.887 84.529 187.887 84.3596C187.887 84.3031 187.832 84.1902 187.832 84.1337L187.778 84.0208C187.723 83.9643 187.669 83.8513 187.669 83.7949C187.505 83.569 187.341 83.343 187.123 83.1736C186.959 83.0042 186.795 82.8912 186.632 82.7218L189.907 77.4696C190.07 77.1872 190.016 76.7919 189.743 76.6225L187.45 75.0976C187.178 74.9282 186.795 74.9847 186.632 75.2671L183.193 80.6887C182.647 80.4628 182.102 80.2934 181.556 80.124L181.992 79.2204C181.992 79.1639 182.047 79.1639 182.047 79.1074C182.156 78.7685 181.938 78.4297 181.665 78.3732C178.063 77.0743 174.515 75.5495 171.022 73.8552C168.238 72.4998 165.455 71.0879 162.671 69.6195C165.236 69.0548 167.692 68.2641 170.094 67.1911C171.295 66.6828 172.441 66.0616 173.532 65.3839C174.078 65.045 174.624 64.6497 175.17 64.2544C175.77 63.8026 176.261 63.2943 176.698 62.6731C176.753 62.5601 176.807 62.4472 176.862 62.3342C176.862 62.2778 176.916 62.2213 176.916 62.1083L176.971 61.9954V61.9389C177.026 61.713 177.026 61.6 177.08 61.4306C177.135 61.0918 177.135 60.7529 177.189 60.4141C177.189 60.0752 177.189 59.7364 177.244 59.454C178.39 59.5105 179.536 59.1716 180.464 58.4939C181.392 57.7597 182.211 56.8561 182.811 55.7831C183.903 53.75 184.612 51.4345 184.885 49.119C185.049 47.933 185.049 46.747 184.94 45.561C184.885 44.9398 184.721 44.3186 184.503 43.6974C184.339 43.3585 184.176 43.0197 183.903 42.7373C183.739 42.5678 183.63 42.4549 183.411 42.3419C183.302 42.2855 183.193 42.229 183.084 42.1725C182.975 42.116 182.92 42.1161 182.811 42.0596C182.156 41.8901 181.501 41.8901 180.846 42.0596C180.464 42.1725 180.137 42.2855 179.809 42.5114C179.973 41.5513 180.082 40.5912 180.137 39.6311C180.246 37.8239 180.246 35.9602 180.137 34.153C180.082 33.7012 180.082 33.2494 180.028 32.7411C180.028 32.5152 179.973 32.2329 179.918 32.007C179.864 31.7811 179.809 31.4987 179.755 31.2728C179.482 30.3692 179.045 29.4656 178.554 28.6749C177.517 27.0936 176.316 25.7382 174.897 24.5522C172.113 22.2367 169.002 20.4295 165.618 19.2435C165.018 19.0176 164.472 18.8482 163.872 18.6788C165.127 17.6057 166.764 15.7985 167.092 13.3701C167.419 11.1676 166.765 7.49665 164.472 4.61641C162.944 2.69625 160.106 0.324284 155.139 0.0983823C151.1 -0.0710437 147.825 1.00199 145.478 3.31748C143.24 5.57649 141.985 8.68264 141.985 11.9017C141.93 15.2903 144.168 17.6622 145.751 18.9047C145.369 19.0176 145.042 19.1306 144.66 19.3C141.276 20.5989 138.219 22.745 135.818 25.5123C134.617 26.9242 133.689 28.6184 133.034 30.3692C132.488 32.1199 132.106 33.9836 131.997 35.8473C131.779 39.4617 131.997 43.0197 132.597 46.5776C132.597 46.6341 132.597 46.6341 132.597 46.6906C132.27 46.2387 131.888 45.8434 131.451 45.4481C130.905 44.9963 130.305 44.7139 129.65 44.5445C128.995 44.3751 128.285 44.3751 127.63 44.5445C127.521 44.5445 127.412 44.601 127.358 44.6574C127.248 44.7139 127.139 44.7704 127.03 44.8269C126.866 44.9398 126.703 45.1092 126.539 45.2787C126.321 45.561 126.102 45.8999 125.938 46.2388C125.72 46.86 125.556 47.4812 125.502 48.1024C125.393 49.2884 125.393 50.4744 125.556 51.6604C125.829 53.9759 126.539 56.2914 127.685 58.3245C128.285 59.3975 129.05 60.3011 130.032 60.9788C130.905 61.5436 131.888 61.8824 132.925 61.8259C133.089 62.6731 133.252 63.5202 133.471 64.3673L133.525 64.5932L133.58 64.7062C133.58 64.7627 133.634 64.8191 133.634 64.8756C133.743 65.1015 133.853 65.3274 134.016 65.4968C134.235 65.7792 134.508 66.0051 134.835 66.231C135.381 66.6264 135.927 67.0217 136.527 67.3605C137.673 67.9818 138.874 68.5465 140.075 68.9418C140.893 69.2242 141.712 69.4501 142.531 69.676L129.432 88.5388C129.268 88.7647 129.322 89.1035 129.541 89.273C130.578 90.1201 131.615 90.9107 132.652 91.6449C132.652 91.7579 132.652 91.8144 132.652 91.9273C132.761 92.9439 133.034 93.9604 133.416 94.9205C133.798 95.9935 134.398 96.8971 135.272 97.6313C135.545 97.8007 135.818 97.9702 136.09 98.0831C136.254 98.1396 136.418 98.1961 136.582 98.1961H136.691H136.8H137.018C137.619 98.1961 138.219 98.0266 138.71 97.7443C139.42 97.2925 139.966 96.6148 140.239 95.8241C141.057 96.163 141.93 96.3889 142.804 96.6148C142.804 98.5349 142.804 100.455 142.804 102.375C142.804 103.222 142.804 104.013 142.858 104.86C140.566 105.425 138.219 105.933 135.872 106.385C135.708 106.385 135.599 106.554 135.599 106.667C135.545 106.837 135.708 107.063 135.872 107.063C138.219 107.458 140.566 107.797 142.913 108.079C142.913 108.7 142.968 109.322 142.968 109.943C142.64 110.056 142.367 110.169 142.04 110.282C141.603 110.508 141.221 110.734 140.839 111.016C140.402 111.355 140.075 111.75 139.856 112.258C139.802 112.428 139.747 112.654 139.747 112.823C139.802 113.106 139.911 113.331 140.075 113.501C140.348 113.727 140.675 113.84 141.003 113.783H142.258H144.769C146.406 113.783 148.098 113.84 149.79 113.896C150.227 113.896 150.609 113.896 151.045 113.896C151.537 113.896 152.082 113.783 152.519 113.557C153.065 113.331 153.502 112.936 153.774 112.428C153.993 112.033 154.156 111.581 154.211 111.129H155.848C155.958 111.129 156.067 111.129 156.176 111.072C157.868 110.282 159.614 109.717 161.416 109.378C163.271 109.039 165.127 108.87 166.983 108.813C168.839 108.813 170.694 108.983 172.55 109.378C174.351 109.717 176.152 110.282 177.79 111.072C177.844 111.129 177.953 111.129 178.008 111.129H178.063C178.336 111.129 178.608 111.129 178.881 111.129C179.755 111.129 180.628 111.072 181.447 111.016C181.501 111.298 181.556 111.524 181.61 111.807C181.719 112.145 181.883 112.428 182.102 112.71C182.484 113.219 183.084 113.614 183.684 113.783C184.23 113.896 184.776 113.953 185.322 113.896L186.795 113.84C188.76 113.783 190.671 113.783 192.636 113.783H194.109H194.491C194.655 113.783 194.819 113.783 194.928 113.783C195.201 113.727 195.419 113.614 195.583 113.388C195.747 113.219 195.801 112.936 195.801 112.71C195.747 111.863 195.474 111.185 195.037 110.734ZM186.577 84.529V84.4726C186.577 84.4726 186.577 84.4726 186.577 84.529ZM185.158 83.3995C185.486 83.6254 185.868 83.8513 186.14 84.0772C186.304 84.1902 186.413 84.3031 186.523 84.4161L186.577 84.4726C186.413 85.3197 186.14 86.1668 185.868 86.9575L185.813 87.0704C185.758 87.1834 185.868 87.3528 185.977 87.4093C186.304 87.6917 186.468 88.087 186.468 88.5388C186.468 88.8776 186.25 89.16 185.977 89.2165C185.54 89.3294 185.103 89.3294 184.667 89.273C184.176 89.2165 183.63 89.1035 183.139 88.9906C182.102 88.7082 181.119 88.3694 180.137 87.974C179.373 87.6352 178.608 87.3528 177.844 86.9575L180.628 81.3664C182.211 81.9876 183.739 82.6089 185.158 83.3995ZM170.367 75.0412C173.696 76.6225 177.08 77.9779 180.519 79.1639L176.48 86.4492L176.152 86.2798L175.334 85.828C174.952 85.6021 174.569 85.4326 174.133 85.4326C173.096 85.4326 172.277 86.2798 172.332 87.3528C172.332 87.8046 172.495 88.3129 172.823 88.6517C172.932 88.7647 172.987 88.8212 173.096 88.8776C173.15 88.9341 173.205 88.9341 173.205 88.9341L173.314 88.9906L173.751 89.2165L175.115 89.9507C174.406 90.4589 173.642 91.0237 172.877 91.532C172.004 90.6848 171.131 89.8942 170.203 89.1035C169.275 88.3129 168.347 87.5222 167.365 86.7881C166.382 86.0539 165.455 85.2632 164.418 84.5855C163.435 83.8513 162.453 83.1736 161.416 82.4959C162.18 83.456 163.053 84.3596 163.872 85.2632C164.527 85.9974 165.236 86.7316 165.946 87.4093C163.381 87.8046 160.815 88.0305 158.25 88.087C157.213 86.4492 155.084 86.0539 153.556 87.1269C153.174 87.4093 152.847 87.7481 152.574 88.1435C151.591 88.1435 150.609 88.087 149.626 88.0305C148.753 87.974 147.934 87.9176 147.061 87.8611C148.207 86.8445 149.299 85.7715 150.281 84.642C150.936 83.8513 151.591 83.1172 152.246 82.27C152.847 81.4794 153.447 80.6322 154.047 79.7851C155.193 78.1473 156.34 76.4531 157.377 74.7023C158.305 73.1775 159.178 71.5397 159.997 69.9584H160.051C163.435 71.7091 166.874 73.4034 170.367 75.0412ZM166.819 95.1464C166.764 95.1464 162.998 97.123 161.143 98.0266C160.542 97.123 159.997 96.2194 159.505 95.2029C159.014 94.1863 158.577 93.1133 158.141 92.0403C161.743 91.7579 165.291 91.1367 168.784 90.2895C168.839 90.346 170.531 91.8708 171.295 92.4921C169.93 93.3392 168.566 94.1298 167.147 94.9205C166.492 94.1863 165.837 93.4521 165.236 92.718C165.782 93.5651 166.273 94.4122 166.819 95.1464ZM152.082 90.9672C151.427 90.9672 150.773 90.9672 150.118 90.9672C148.262 90.9672 146.461 90.9108 144.605 90.8543C144.605 90.346 144.605 89.8377 144.55 89.3294C146.188 89.4424 147.88 89.4989 149.517 89.5553C150.336 89.5553 151.155 89.5553 152.028 89.5553C151.973 89.7248 151.973 89.8942 151.973 90.0636C151.973 90.346 152.028 90.6848 152.082 90.9672ZM144.66 94.1298C144.66 93.5651 144.66 93.0003 144.66 92.4921C145.86 92.5485 147.061 92.5485 148.262 92.5485V93.1698V94.4122C148.316 95.2029 148.316 96.05 148.371 96.8407C148.426 97.6313 148.48 98.4784 148.589 99.2691C148.698 100.06 148.808 100.907 148.971 101.698C149.135 100.907 149.244 100.06 149.353 99.2691C149.463 98.4784 149.517 97.6313 149.572 96.8407C149.626 96.05 149.681 95.2029 149.681 94.4122L149.735 93.1698V92.5485C149.845 92.5485 151.919 92.4921 152.792 92.4356C152.901 92.5485 153.01 92.6615 153.119 92.7744C153.119 92.7744 153.119 92.7744 153.119 92.8309C153.229 94.2993 153.338 95.7676 153.556 97.236C153.72 98.5349 153.938 99.7774 154.266 101.02C151.1 102.262 147.825 103.279 144.55 104.182C144.55 103.505 144.605 102.884 144.605 102.206C144.66 99.495 144.66 96.8407 144.66 94.1298ZM153.774 90.9107C153.556 90.4589 153.502 89.9507 153.665 89.4989C153.938 88.5388 154.975 87.974 155.903 88.3129C156.394 88.4823 156.831 88.8776 156.995 89.3859C157.104 89.6118 157.104 89.8377 157.104 90.0636C157.104 90.2895 157.049 90.5154 156.995 90.7413C156.94 90.9108 156.831 91.0802 156.722 91.1931C156.667 91.3061 156.613 91.3626 156.503 91.419C156.176 91.7014 155.739 91.8708 155.303 91.8708C154.702 91.9273 154.102 91.532 153.774 90.9107ZM155.357 93.5651L157.377 99.7209C157.158 99.8339 156.995 99.8903 156.776 100.003C156.34 100.173 155.848 100.342 155.412 100.568C155.193 99.4385 155.03 98.2525 154.975 97.0666C154.866 95.8806 154.866 94.6946 154.811 93.5651C154.975 93.5651 155.139 93.5651 155.357 93.5651ZM156.831 93.2262C156.885 93.2262 156.94 93.1698 156.995 93.1698C157.486 94.0734 157.977 94.977 158.523 95.8806C159.069 96.7842 159.669 97.6313 160.324 98.4784C159.614 98.8173 158.905 99.0997 158.141 99.4385L156.831 93.2262ZM158.687 89.273C161.361 89.1035 164.035 88.7647 166.71 88.2564C167.092 88.6517 167.474 88.9906 167.856 89.3294C164.854 89.9507 161.798 90.4025 158.741 90.6284C158.796 90.1766 158.796 89.7248 158.687 89.273ZM153.556 77.4131C153.065 76.9049 152.628 76.3966 152.192 75.8883C151.537 75.1541 150.936 74.3635 150.336 73.5728C149.517 72.5563 148.753 71.5397 148.043 70.4667C150.445 70.6926 152.792 70.749 155.194 70.5796C156.121 70.5231 156.995 70.4102 157.923 70.2972C156.503 72.7257 155.03 75.0976 153.556 77.4131ZM153.065 16.3633C153.829 15.855 154.702 15.5726 155.63 15.5162H155.958H156.34C156.558 15.5162 156.776 15.5726 156.995 15.5726C157.431 15.6291 157.813 15.7985 158.195 16.0244C158.523 16.2503 158.796 16.5892 158.96 16.928C159.014 17.041 159.069 17.1539 159.069 17.3234C157.704 17.0975 156.34 16.9845 154.975 17.041C153.993 17.041 153.065 17.0975 152.082 17.2104C152.355 16.928 152.683 16.5892 153.065 16.3633ZM140.511 67.0782C139.365 66.7393 138.219 66.231 137.182 65.6663C136.636 65.3839 136.145 65.1015 135.654 64.7627C135.435 64.5932 135.217 64.4238 135.053 64.2544C134.999 64.1979 134.89 64.085 134.89 64.085L134.835 64.0285L134.78 63.9155L134.726 63.6896C134.016 61.2047 133.198 58.7763 132.161 56.4043C132.215 57.8727 132.379 59.2846 132.597 60.6964C131.833 60.64 131.124 60.3011 130.523 59.8493C129.759 59.1716 129.104 58.381 128.668 57.4209C127.74 55.5572 127.194 53.5805 127.03 51.491C127.248 51.3215 127.467 51.2651 127.74 51.2086C127.958 51.2086 128.122 51.2086 128.34 51.2086C128.395 51.2086 128.449 51.2086 128.449 51.2086C128.504 51.2086 128.558 51.2086 128.613 51.2651C128.722 51.2651 128.777 51.3215 128.886 51.3215C129.322 51.491 129.705 51.6604 130.087 51.8863C130.523 52.1687 131.014 52.451 131.56 52.7334C131.506 51.3215 130.632 50.1355 129.322 49.6837C129.159 49.6273 128.94 49.5708 128.777 49.5708C128.722 49.5708 128.613 49.5708 128.558 49.5708C128.449 49.5708 128.34 49.5708 128.285 49.5708C127.903 49.6273 127.576 49.7402 127.248 49.9661C127.139 50.0226 127.085 50.0791 126.976 50.192C126.921 49.2319 126.976 48.3283 127.139 47.3683C127.194 46.6906 127.685 46.1258 128.34 45.9564C129.05 45.8999 129.759 46.1258 130.359 46.5776C131.069 47.1424 132.106 49.006 132.106 49.006C132.161 49.119 132.27 49.1755 132.379 49.2884C132.434 49.9661 132.543 50.6438 132.706 51.2651C133.143 52.8464 133.743 54.4277 134.562 55.8396C134.944 56.5737 135.326 57.2514 135.763 57.9291C136.2 58.5504 136.527 59.2281 136.855 59.9058C137.346 61.3177 137.127 62.899 136.309 64.1414C136.254 64.1979 136.254 64.2544 136.254 64.3109C136.254 64.3109 136.254 64.3109 136.254 64.3673C136.254 64.4803 136.363 64.5932 136.527 64.5368H136.582C137.291 64.4238 138.001 64.085 138.547 63.6332C139.147 63.1249 139.638 62.4472 139.856 61.713C140.184 60.2446 140.184 58.6633 139.747 57.2514C139.42 55.8396 138.983 54.4842 138.656 53.1852C138.492 52.564 138.328 51.8863 138.219 51.2651C138.11 50.6438 138.11 50.0226 138.164 49.4014C138.328 48.1024 138.71 46.86 139.256 45.7305C139.365 45.4481 139.529 45.2222 139.638 44.9398L139.802 44.9963L140.621 45.1657C141.166 45.2787 141.712 45.4481 142.258 45.561C143.35 45.8434 144.441 46.0693 145.478 46.4082C146.515 46.747 147.607 47.0294 148.698 47.4247C149.735 47.8201 150.772 48.1024 151.864 48.4978C150.991 47.7636 150.063 47.1424 149.135 46.5776C148.153 45.9564 147.116 45.3916 146.133 44.8833C145.151 44.3751 144.059 43.8668 142.968 43.415C142.422 43.1891 141.876 43.0197 141.33 42.7938L141.057 42.6808C141.166 42.5679 141.221 42.3984 141.33 42.2855C141.712 41.7207 142.094 41.2124 142.476 40.4218C142.804 39.7441 143.077 39.0664 143.295 38.3322C143.677 37.1462 143.95 35.9038 144.168 34.6613C145.587 34.3224 147.061 34.0965 148.48 33.9271C150.118 33.7577 151.755 33.7012 153.392 33.6447C156.667 33.6447 159.942 33.9836 163.162 34.6048C163.326 34.6613 163.435 34.6048 163.599 34.5483C165.291 33.9271 167.037 33.3624 168.839 32.9106C170.421 32.4588 172.059 32.2329 173.751 32.0634C174.024 32.4588 174.242 32.8541 174.46 33.2494C174.733 33.8142 175.006 34.3789 175.224 34.9437C175.661 36.1297 176.043 37.3156 176.261 38.5581C176.753 41.043 176.971 43.5844 176.862 46.1258C176.807 46.5776 177.135 46.9729 177.571 46.9729C177.735 46.9729 177.953 46.9165 178.063 46.8035C178.117 46.747 178.172 46.747 178.226 46.6906C178.281 46.6341 178.336 46.5776 178.336 46.5211C178.336 46.5211 178.336 46.5211 178.336 46.4646V46.4082C178.499 45.9564 178.718 45.561 178.99 45.2222C179.263 44.8269 179.591 44.4315 179.973 44.0927C180.573 43.5844 181.337 43.3585 182.102 43.415C182.811 43.5279 183.139 44.2621 183.248 44.9398C183.302 45.2787 183.357 45.674 183.411 46.0128C183.466 46.2952 183.466 46.5776 183.466 46.86C183.466 47.0294 183.466 47.1424 183.466 47.3118C183.466 47.3683 183.411 47.7071 183.466 47.7071C183.357 47.5942 183.302 47.5377 183.193 47.4247C182.866 47.1988 182.538 47.0859 182.156 47.0294C182.047 47.0294 181.938 47.0294 181.883 47.0294C181.829 47.0294 181.719 47.0294 181.665 47.0294C181.447 47.0294 181.283 47.0859 181.119 47.1424C179.864 47.5942 178.936 48.7801 178.881 50.192C179.482 49.9096 179.918 49.5708 180.355 49.3449C180.737 49.119 181.119 48.8931 181.556 48.7801C181.665 48.7801 181.774 48.7237 181.829 48.7237C181.883 48.7237 181.938 48.7237 181.992 48.6672H182.102C182.32 48.6672 182.484 48.6672 182.702 48.6672C182.975 48.7237 183.248 48.7801 183.466 48.9496C183.248 50.9827 182.702 53.0158 181.774 54.823C181.337 55.7266 180.682 56.5173 179.864 57.195C179.154 57.7597 178.226 58.0421 177.353 57.9856C177.353 56.7432 177.244 55.5007 176.971 54.2582C176.589 55.5007 176.261 56.7996 176.043 58.0986C175.934 58.7198 175.825 59.3975 175.716 60.0187L175.552 60.9223C175.552 61.0918 175.497 61.2047 175.443 61.3741V61.4306C175.443 61.4306 175.388 61.4871 175.388 61.5436C175.061 61.9389 174.679 62.3342 174.242 62.6731C173.751 63.0119 173.26 63.3508 172.768 63.6896C171.731 64.3109 170.64 64.8191 169.494 65.3274C164.909 67.1346 160.106 68.2641 155.194 68.603C150.118 68.9983 145.205 68.49 140.511 67.0782ZM137.946 96.2759C137.346 96.5583 136.636 96.5018 136.09 96.1065C135.545 95.5417 135.108 94.864 134.835 94.0734C134.671 93.6216 134.508 93.1698 134.398 92.718C134.944 93.0568 135.435 93.3392 135.981 93.678C137.018 94.2428 138.055 94.7511 139.147 95.2594C138.874 95.7112 138.437 96.05 137.946 96.2759ZM142.695 94.1298C142.695 94.2993 142.695 94.4687 142.695 94.6381C140.621 94.0734 138.601 93.3392 136.691 92.3226C135.545 91.7579 134.398 91.0802 133.307 90.4025C132.379 89.8377 131.397 89.2165 130.523 88.5388L144.114 69.8455C144.66 69.9584 145.26 70.0713 145.806 70.1843C146.952 71.6527 148.153 73.0081 149.353 74.4199C150.5 75.7189 151.755 76.9613 153.119 78.0344C152.956 78.3167 152.792 78.5426 152.628 78.825C152.082 79.6722 151.537 80.4628 150.936 81.3099C150.39 82.1006 149.79 82.9477 149.19 83.7384C148.153 85.1503 147.061 86.5057 145.915 87.8046C145.424 87.7481 144.987 87.7481 144.496 87.6917C144.496 87.1834 144.496 86.6751 144.441 86.1668C144.387 83.456 144.114 80.8017 143.622 78.1473C143.131 80.8017 142.858 83.456 142.804 86.1668C142.749 88.8212 142.695 91.4755 142.695 94.1298ZM142.749 106.95C141.276 106.837 139.802 106.724 138.328 106.554C139.802 106.329 141.221 106.046 142.695 105.707C143.35 105.594 143.95 105.425 144.605 105.312C145.314 105.143 146.024 104.973 146.679 104.804C150.281 103.844 153.774 102.771 157.268 101.415C160.761 100.116 164.145 98.5914 167.419 96.8407C167.529 96.7842 167.692 96.6712 167.802 96.6148C167.965 96.5018 168.184 96.3889 168.347 96.3324C171.24 94.7511 174.024 93.0003 176.644 90.9672L176.971 91.1367C177.244 91.3061 177.517 91.4755 177.79 91.5885C176.261 93.1133 174.624 94.5816 172.877 95.8806C171.95 96.6148 170.967 97.2925 169.985 97.9702C169.766 98.1396 169.548 98.2525 169.384 98.422C168.456 99.0432 167.529 99.6644 166.601 100.229C162.289 102.884 157.868 105.312 153.229 107.458C150.336 107.402 147.498 107.289 144.605 107.119C143.95 107.006 143.35 106.95 142.749 106.95ZM152.41 111.468C152.301 111.694 152.082 111.92 151.81 112.033C151.537 112.202 151.209 112.258 150.882 112.258C150.5 112.258 140.784 112.371 140.73 112.371C140.893 112.089 141.112 111.863 141.33 111.694C141.603 111.468 141.985 111.298 142.313 111.185C142.695 111.016 143.131 110.96 143.568 110.903H152.519C152.574 111.185 152.519 111.355 152.41 111.468ZM181.883 109.265C180.682 109.378 179.482 109.378 178.281 109.322C176.48 108.7 174.679 108.192 172.768 107.91C170.858 107.571 168.893 107.458 166.983 107.458C165.073 107.458 163.108 107.627 161.197 107.966C160.215 108.136 159.287 108.305 158.359 108.531C157.486 108.757 156.558 108.983 155.685 109.322H144.441C144.441 108.926 144.496 108.475 144.496 108.079C147.389 108.362 150.336 108.588 153.283 108.757C153.392 108.757 153.447 108.757 153.556 108.7C155.903 107.627 158.195 106.441 160.488 105.255C162.18 104.352 163.872 103.392 165.509 102.432L165.837 102.206C166.273 101.923 166.71 101.698 167.201 101.415C168.238 100.794 169.221 100.116 170.258 99.495C170.64 99.8903 171.022 100.286 171.404 100.681C173.751 103.053 176.316 105.143 179.1 106.893C176.698 104.634 174.297 102.375 171.95 100.06C171.622 99.7209 171.24 99.382 170.913 98.9867C171.84 98.3655 172.768 97.7443 173.642 97.0666C175.006 96.05 176.371 94.977 177.626 93.8475L191.708 106.216C189.743 107.232 187.614 108.079 185.486 108.7C184.339 108.983 183.139 109.152 181.883 109.265ZM194.055 112.428H192.581C190.616 112.428 188.706 112.428 186.741 112.371H185.267C184.831 112.371 184.448 112.315 184.012 112.202C183.684 112.089 183.411 111.92 183.248 111.637C183.139 111.524 183.084 111.355 183.029 111.185C182.975 111.016 182.975 110.903 182.975 110.734C183.903 110.564 184.885 110.395 185.813 110.169C186.359 109.999 186.905 109.83 187.45 109.661C188.378 110.169 189.361 110.508 190.398 110.677C190.944 110.734 191.489 110.677 191.871 110.734C192.308 110.734 192.69 110.847 193.127 111.016C193.509 111.185 193.836 111.411 194.164 111.694C194.382 111.92 194.546 112.202 194.655 112.541L194.055 112.428Z" fill="#010101"/>
  <path d="M153.945 57.758C154.545 58.2095 155.31 58.4352 156.074 58.4352C156.838 58.4352 157.547 58.1531 158.148 57.7016C158.748 57.3066 159.185 56.6858 159.348 55.9521C158.311 56.4036 157.165 56.6858 156.019 56.7422C154.873 56.7422 153.781 56.4601 152.799 55.9521C152.908 56.6858 153.345 57.363 153.945 57.758Z" fill="#010101"/>
  <path d="M151.693 61.6563C152.293 61.7693 152.893 61.9387 153.439 62.1081C154.04 62.2776 155.404 62.6729 155.459 62.6729C155.459 62.6729 159.115 61.3175 159.716 61.0916C159.825 61.0351 159.934 61.0351 160.098 60.9786C160.207 60.9786 160.316 60.9786 160.425 61.0351C160.753 61.148 161.08 61.261 161.408 61.374L163.427 62.2776C162.936 61.6563 162.445 61.0916 161.844 60.5833C161.517 60.3009 161.19 60.075 160.807 59.9056C160.589 59.7926 160.316 59.7362 160.098 59.6797C159.88 59.6797 159.607 59.6797 159.388 59.7362C158.624 59.9056 157.915 60.188 157.205 60.5268C156.605 60.8657 156.004 61.2045 155.513 61.6563C155.022 61.3175 154.476 61.0351 153.93 60.8092C153.275 60.5268 152.566 60.3574 151.856 60.3009C151.474 60.3009 151.038 60.3574 150.656 60.4703C150.328 60.6398 150.001 60.8092 149.673 61.0351C149.127 61.4869 148.636 61.9952 148.309 62.6164C148.964 62.334 149.564 62.0517 150.11 61.8258C150.601 61.6563 151.147 61.5999 151.693 61.6563Z" fill="#010101"/>
  <path d="M146.346 48.8373C145.472 48.7244 144.599 48.668 143.671 48.668C142.798 48.668 141.87 48.7244 140.997 48.8373C140.069 48.9501 139.196 49.1759 138.322 49.5145C139.196 49.8531 140.069 50.0788 140.997 50.1917C141.87 50.3046 142.743 50.361 143.671 50.361C144.544 50.361 145.472 50.3046 146.346 50.1917C147.273 50.0788 148.147 49.8531 149.02 49.5145C148.147 49.1759 147.219 48.9501 146.346 48.8373Z" fill="#010101"/>
  <path d="M168.185 48.668C167.203 48.668 166.166 48.7244 165.184 48.8373C164.147 48.9501 163.164 49.1759 162.182 49.5145C163.164 49.8531 164.147 50.0788 165.184 50.1917C166.166 50.3046 167.148 50.361 168.185 50.361C169.168 50.361 170.205 50.3046 171.187 50.1917C172.224 50.0788 173.207 49.8531 174.189 49.5145C173.207 49.1759 172.224 48.9501 171.187 48.8373C170.205 48.7244 169.222 48.668 168.185 48.668Z" fill="#010101"/>
  <path d="M164.965 41.89C166.984 40.1957 169.277 38.8968 171.787 38.0496C171.897 37.9932 172.006 37.9932 172.115 37.9367C172.115 37.9367 171.678 36.2989 169.277 36.8072C169.986 36.186 170.368 35.2823 170.368 34.3223H170.314C168.949 35 167.639 35.9036 166.439 36.9201C165.292 37.9367 164.255 39.0097 163.327 40.1957C162.4 41.3817 161.581 42.5677 160.817 43.8666C160.053 45.1091 159.452 46.4645 159.016 47.8764C160.871 45.7303 162.836 43.6972 164.965 41.89Z" fill="#010101"/>
  <path d="M152.351 48.4985C152.679 48.1596 152.952 47.7078 153.116 47.1995C153.28 46.6912 153.334 46.183 153.28 45.6747C153.225 45.1664 153.116 44.6581 152.952 44.2063C152.788 43.7545 152.461 43.3027 152.133 42.9639C152.297 43.9804 152.461 44.8276 152.515 45.7312C152.515 46.6912 152.461 47.5948 152.351 48.4985Z" fill="#010101"/>
  <path d="M156.941 47.199C157.269 47.5379 157.651 47.8203 158.143 47.9332C157.651 47.2555 157.269 46.4649 156.996 45.6742C156.777 44.8271 156.559 43.9799 156.504 43.1328C156.286 43.5281 156.122 44.0364 156.067 44.4882C156.013 44.9965 156.067 45.4483 156.231 45.9566C156.395 46.4084 156.614 46.8602 156.941 47.199Z" fill="#010101"/>
  <path d="M184.014 92.5494C184.014 92.5494 184.069 92.5494 184.069 92.6059L184.124 92.6623C184.233 92.7753 184.287 92.8882 184.287 93.0012C184.287 93.2836 184.069 93.566 183.742 93.566H183.796C183.687 93.566 183.632 93.566 183.523 93.5095C183.469 93.5095 183.305 93.3965 183.196 93.34L182.377 92.8882L180.74 91.9846C180.467 91.8152 180.194 91.7023 179.921 91.5328C179.484 91.3069 178.993 91.0246 178.556 90.7422C178.174 90.5163 177.847 90.3469 177.465 90.1209L177.247 90.008L176.046 89.2738L174.245 88.2008C173.972 88.0314 173.644 87.8619 173.644 87.749C173.535 87.636 173.481 87.4666 173.535 87.2972C173.535 86.9583 173.808 86.7324 174.135 86.7324C174.299 86.7324 174.354 86.7889 174.681 86.9583L175.5 87.4666L175.827 87.636L176.319 87.9184L177.137 88.3702C177.137 88.3702 177.192 88.3702 177.192 88.4267C178.229 89.0479 179.321 89.6691 180.358 90.2904C181.449 90.9116 182.541 91.5328 183.632 92.0976L184.069 92.3235L184.014 92.5494C184.014 92.5494 183.96 92.4929 184.014 92.5494Z" fill="#FECB3D"/>
  <path d="M187.178 76.3965L188.433 77.2436L185.54 81.9311C185.104 81.6487 184.667 81.3663 184.176 81.1404L187.178 76.3965Z" fill="#FECB3D"/>
</svg>
