<svg width="93" height="51" viewBox="0 0 93 51" fill="none" xmlns="http://www.w3.org/2000/svg">
<g clip-path="url(#clip0_803_2694)">
<path d="M91.8371 44.9033C92.9934 46.5222 92.7621 48.6036 91.3745 49.7599C89.7557 50.9163 87.443 50.685 86.2866 49.2974L78.1923 38.8904L70.3292 49.0661C69.1729 50.685 66.8602 50.685 65.2413 49.5287C63.6224 48.3723 63.3912 46.2909 64.5475 44.6721L73.7982 32.6462L64.5475 20.6203C63.3912 19.0014 63.8537 16.6887 65.2413 15.5324C66.8602 14.376 69.1729 14.8386 70.3292 16.2262L78.1923 26.6332L86.2866 16.6887C87.443 15.0698 89.5244 14.8386 91.3745 15.9949C92.9934 17.1512 92.9934 19.4639 91.8371 21.0828L82.8176 32.8774L91.8371 44.9033ZM49.7464 43.5157C43.7335 43.5157 38.8768 38.8904 38.8768 32.8774C38.8768 26.8645 43.7335 22.2391 49.7464 22.2391C55.7594 22.2391 60.616 27.0957 60.616 32.8774C60.3847 38.8904 55.5281 43.5157 49.7464 43.5157ZM17.8315 43.5157C11.8186 43.5157 6.96195 38.8904 6.96195 32.8774C6.96195 26.8645 11.8186 22.2391 17.8315 22.2391C23.8445 22.2391 28.7011 27.0957 28.7011 32.8774C28.7011 38.6591 23.8445 43.5157 17.8315 43.5157ZM49.7464 15.3011C43.0396 15.3011 37.0267 19.0014 34.0202 24.5518C31.0137 19.0014 25.0008 15.3011 18.0628 15.3011C13.9 15.3011 10.1997 16.6887 7.19321 18.7701V3.96901C7.19321 2.11887 5.57434 0.5 3.7242 0.5C1.6428 0.5 0.0239258 2.11887 0.0239258 3.96901V33.1087C0.255193 42.8219 8.11828 50.4537 17.8315 50.4537C24.7695 50.4537 30.7825 46.5222 33.789 40.9718C36.7954 46.5222 42.8084 50.4537 49.5151 50.4537C59.4596 50.4537 67.554 42.5907 67.554 32.6462C67.7853 23.1642 59.6909 15.3011 49.7464 15.3011Z" fill="#949FC5"/>
</g>
<defs>
<clipPath id="clip0_803_2694">
<rect width="92.8571" height="50" fill="white" transform="translate(0 0.5)"/>
</clipPath>
</defs>
</svg>
