<svg width="149" height="50" viewBox="0 0 149 50" fill="none" xmlns="http://www.w3.org/2000/svg">
<g clip-path="url(#clip0_286_1735)">
<path d="M138.59 15.9256L130.575 13.9792L129.144 13.3804L92.3647 13.6798V32.2447L138.59 32.3945V15.9256Z" fill="white"/>
<path d="M123.907 30.314C124.385 29.036 124.211 27.5946 123.472 26.4504C122.704 25.5142 121.618 24.9198 120.43 24.8158L95.225 24.5186C95.0801 24.5186 94.9352 24.37 94.7904 24.37C94.6745 24.2808 94.6455 24.1025 94.7324 23.9836C94.7469 23.9688 94.7614 23.939 94.7904 23.9242C94.9352 23.627 95.0801 23.4784 95.3698 23.4784L120.72 23.1812C123.994 22.8097 126.818 20.655 128.108 17.5344L129.556 13.6708C129.556 13.5222 129.701 13.3736 129.556 13.225C127.557 4.10097 118.735 -1.63498 109.827 0.415697C104.235 1.70851 99.6866 5.88417 97.8324 11.4418C96.3114 10.3273 94.4717 9.8072 92.6175 9.9558C89.112 10.357 86.3452 13.1953 85.9541 16.7914C85.8527 17.683 85.9106 18.5895 86.0989 19.4662C80.377 19.6296 75.814 24.4443 75.814 30.314C75.7851 30.8638 75.843 31.4136 75.9589 31.9486C75.9589 32.1863 76.1617 32.3795 76.3935 32.3944H122.893C123.182 32.3944 123.472 32.2458 123.472 31.9486L123.907 30.314Z" fill="#949FC5"/>
<path d="M131.582 13.3804H130.85C130.704 13.3804 130.557 13.5337 130.411 13.687L129.386 17.3664C128.903 18.6848 129.079 20.1719 129.826 21.3524C130.601 22.3182 131.699 22.9315 132.9 23.0388L138.316 23.3454C138.462 23.3454 138.609 23.4987 138.755 23.4987C138.872 23.5907 138.901 23.7746 138.814 23.8973C138.799 23.9126 138.784 23.9433 138.755 23.9586C138.609 24.2652 138.462 24.4185 138.169 24.4185L132.607 24.7252C129.299 25.1084 126.444 27.3314 125.141 30.5509L124.848 31.9306C124.702 32.0839 124.848 32.3906 125.141 32.3906H144.464C144.669 32.4212 144.874 32.2679 144.903 32.038C144.903 32.0073 144.903 31.9613 144.903 31.9306C145.254 30.6275 145.445 29.2937 145.489 27.9446C145.445 19.9266 139.238 13.4264 131.582 13.3804Z" fill="#949FC5"/>
<path d="M147.634 39.8488C146.909 39.8488 146.33 39.2043 146.33 38.3987C146.33 37.5931 146.909 36.9486 147.634 36.9486C148.359 36.9486 148.938 37.5931 148.938 38.3987C148.938 39.1882 148.359 39.8488 147.649 39.8488M147.649 37.2708C147.083 37.2708 146.634 37.7703 146.634 38.3987C146.634 39.0271 147.083 39.5266 147.649 39.5266C148.214 39.5266 148.663 39.0271 148.663 38.3987C148.663 37.7864 148.243 37.2869 147.692 37.2708C147.678 37.2708 147.663 37.2708 147.649 37.2708ZM148.228 39.2043H147.938L147.649 38.721H147.359V39.2043H147.069V37.7542H147.793C147.996 37.722 148.199 37.8831 148.228 38.1248C148.228 38.157 148.228 38.2054 148.228 38.2376C148.228 38.3987 148.083 38.5598 147.938 38.721L148.228 39.2043ZM147.793 38.3987C147.89 38.3987 147.938 38.345 147.938 38.2376C147.938 38.157 147.88 38.0765 147.793 38.0765H147.359V38.5598H147.793V38.3987ZM17.7962 36.9486H20.9845V46.6162H26.4917V49.6776H17.7962V36.9486ZM29.8249 43.2325C29.8249 39.5749 32.4915 36.6263 35.7813 36.6263C35.8683 36.6263 35.9697 36.6263 36.0567 36.6263C39.274 36.4652 41.9986 39.2366 42.1435 42.8136C42.1435 42.9586 42.1435 43.1036 42.1435 43.2325C42.1435 46.8901 39.4769 49.8387 36.1871 49.8387C36.1001 49.8387 35.9987 49.8387 35.9117 49.8387C32.6509 49.9515 29.9264 47.0995 29.8249 43.4581C29.8249 43.3775 29.8249 43.297 29.8249 43.2325ZM38.9552 43.2325C39.0711 41.4118 37.8392 39.8166 36.1871 39.6877C36.1436 39.6877 36.1001 39.6877 36.0567 39.6877C34.3755 39.7844 33.0857 41.3634 33.1582 43.2325C33.2306 44.9727 34.4915 46.3584 36.0567 46.455C37.7958 46.7773 38.9552 45.166 38.9552 43.2325ZM46.0565 44.0381V36.9486H49.2448V44.0381C49.2448 45.8105 50.1143 46.7773 51.4187 46.7773C52.5346 46.874 53.5201 45.9555 53.607 44.7149C53.607 44.5376 53.607 44.3604 53.5925 44.1993V36.9486H56.7809V44.0381C56.7809 48.2274 54.607 49.9998 51.4187 49.9998C48.0854 49.8387 46.0565 48.0663 46.0565 44.0381ZM61.5634 36.9486H66.056C70.1139 36.9486 72.5776 39.5266 72.5776 43.2325C72.5776 46.9384 70.1139 49.6776 66.056 49.6776H61.7083V36.9486H61.5634ZM66.056 46.455C67.6502 46.6323 69.085 45.3271 69.2299 43.5386C69.3893 41.7662 68.2154 40.1711 66.6068 40.01C66.4184 39.9939 66.2444 39.9939 66.056 40.01H64.7517V46.455H66.056ZM77.0703 36.9486H86.2005V40.01H80.2586V42.1046H85.6208V45.0049H80.2586V49.6776H77.0703V36.9486ZM90.6932 36.9486H93.8815V46.6162H99.3887V49.6776H90.6932V36.9486ZM107.649 36.7874H110.838L115.765 49.6776H112.287L111.417 47.4218H106.925L106.055 49.6776H102.722L107.649 36.7874ZM110.548 44.6826L109.244 41.1379L107.939 44.6826H110.548ZM119.823 36.9486H125.185C126.562 36.8197 127.939 37.3514 128.953 38.3987C130.388 40.1066 130.287 42.7813 128.75 44.3765C128.432 44.7149 128.055 44.9727 127.649 45.166L130.403 49.6776H126.779L124.461 45.8105H123.011V49.6776H119.823V36.9486ZM125.04 43.0714C126.055 43.0714 126.779 42.4269 126.779 41.6212C126.779 40.6545 126.055 40.1711 125.04 40.1711H123.011V43.2325H125.04V43.0714ZM134.46 36.9486H143.736V39.8488H137.649V41.7824H143.156V44.6826H137.649V46.6162H143.88V49.6776H134.46V36.9486ZM10.8253 44.8438C10.3761 46.0039 9.36158 46.7612 8.21668 46.7773C6.53555 46.6806 5.24572 45.1016 5.31819 43.2325C5.39065 41.4923 6.65149 40.1066 8.21668 40.01C9.43404 40.0422 10.5065 40.8639 10.9702 42.1046H14.3035C13.7093 38.9143 11.1442 36.6746 8.21668 36.7874C4.88341 36.6746 2.10086 39.5749 1.98492 43.2808C1.98492 43.3131 1.98492 43.3614 1.98492 43.3936C1.97043 47.019 4.59356 49.9837 7.86886 49.9998C7.94132 49.9998 8.01378 49.9998 8.07175 49.9998C10.9268 50.0159 13.4195 47.9052 14.1586 44.8438H10.8253Z" fill="#949FC5"/>
</g>
<defs>
<clipPath id="clip0_286_1735">
<rect width="148.333" height="50" fill="white" transform="translate(0.60498)"/>
</clipPath>
</defs>
</svg>
