<svg width="44" height="51" viewBox="0 0 44 51" fill="none" xmlns="http://www.w3.org/2000/svg">
<g clip-path="url(#clip0_295_1819)">
<mask id="mask0_295_1819" style="mask-type:luminance" maskUnits="userSpaceOnUse" x="-19" y="-10" width="81" height="71">
<path d="M-18.2344 -9.61603H61.6615V60.5938H-18.2344V-9.61603Z" fill="white"/>
</mask>
<g mask="url(#mask0_295_1819)">
<path fill-rule="evenodd" clip-rule="evenodd" d="M39.4537 0.499972H4.19127C1.33312 0.499972 0.27832 1.55478 0.27832 4.41425V38.9183C0.27832 39.2419 0.291369 39.5424 0.319954 39.8209C0.385025 40.4451 0.397276 41.0499 0.977765 41.7385C1.03449 41.806 1.62714 42.247 1.62714 42.247C1.94593 42.4033 2.1636 42.5185 2.52313 42.6632L19.8868 49.938C20.7882 50.3512 21.1652 50.5122 21.8199 50.4993V50.4994C21.8207 50.4994 21.8215 50.4994 21.8224 50.4994C21.8233 50.4994 21.8241 50.4994 21.825 50.4994V50.4993C22.4797 50.5122 22.8566 50.3512 23.7581 49.938L41.1217 42.6632C41.4814 42.5185 41.6989 42.4033 42.0178 42.247C42.0178 42.247 42.6105 41.806 42.6671 41.7385C43.2476 41.0499 43.2598 40.4451 43.3249 39.8209C43.3535 39.5424 43.3666 39.2419 43.3666 38.9183V4.41425C43.3666 1.55478 42.3117 0.499972 39.4537 0.499972Z" fill="#949FC5"/>
<path d="M37.092 35.1894L37.084 35.269L37.0761 35.3565L37.0601 35.4361L37.0364 35.5157L37.0209 35.5873L36.9969 35.6669L36.9652 35.7386L36.9333 35.8023L36.902 35.8739L36.8622 35.9375L36.8224 36.0013L36.7751 36.0649L36.7352 36.1286L36.688 36.1842L36.6323 36.24L36.5849 36.2877L36.5214 36.3435L36.4661 36.3912L36.4024 36.439L36.3392 36.4782L36.276 36.526L36.2044 36.5658L36.1332 36.5976L36.0621 36.6374L35.9824 36.6693L35.9033 36.7011L35.8242 36.7249L35.7451 36.7489L35.6735 36.7727L35.5944 36.7887L35.5232 36.8046L35.4521 36.8204L35.3725 36.8364L35.2933 36.8443L35.2222 36.8523L35.1426 36.8603L35.0556 36.8683L34.9764 36.8762H34.8973H34.8102H34.7227H34.6436L34.5644 36.8683H34.4774L34.3982 36.8603L34.3187 36.8523L34.2316 36.8443L34.1525 36.8284L34.0734 36.8204L33.9937 36.8046L33.9146 36.7887L33.8355 36.7727L33.7564 36.7568L33.6768 36.733L33.6056 36.717L33.5265 36.6931L33.4473 36.6693L33.3758 36.6374L33.2967 36.6135L33.2255 36.5897L33.1463 36.5579L33.0748 36.526L33.0036 36.4941L32.9324 36.4549L32.8608 36.423L32.7896 36.3832L32.7264 36.3435L32.6548 36.3036L32.5916 36.2638L32.5279 36.2241L32.4647 36.1763L32.4015 36.1286L32.3379 36.0808L32.2746 36.033L32.2189 35.9853L32.1557 35.9296L32.2035 35.866L32.2587 35.8102L32.3064 35.7465L32.3617 35.6828L32.4095 35.6272L32.4567 35.5635L32.5125 35.4998L32.5597 35.4441L32.6154 35.3805L32.6628 35.3247L32.7184 35.2611L32.7657 35.1973L32.8135 35.1417L32.8687 35.078L32.9165 35.0143L32.9717 34.9586L33.0195 34.895L33.0827 34.9427L33.1539 34.9905L33.2175 35.0382L33.2887 35.086L33.3524 35.1258L33.4235 35.1734L33.4867 35.2133L33.5584 35.2451L33.6215 35.2849L33.6927 35.3168L33.7644 35.3486L33.8355 35.3805L33.9067 35.4043L33.9783 35.4361L34.0574 35.46L34.1366 35.4839L34.2077 35.5078L34.2873 35.5237L34.3664 35.5396L34.4455 35.5555L34.5326 35.5635L34.6121 35.5794H34.6913L34.7783 35.5873H34.8575H34.9525L35.0396 35.5794L35.1192 35.5635L35.1903 35.5475L35.2615 35.5316L35.3252 35.5078L35.3805 35.476L35.4441 35.4282L35.4913 35.3725L35.5232 35.3087L35.5472 35.2372L35.555 35.1575V35.1417L35.5472 35.0461L35.5153 34.9665L35.4755 34.9108L35.4202 34.8631L35.3565 34.8153L35.2933 34.7835L35.2222 34.7517L35.1426 34.7198L35.0476 34.6801L34.9923 34.6641L34.9291 34.6483L34.8575 34.6243L34.7863 34.6084L34.7072 34.5845L34.6276 34.5686L34.5406 34.5447L34.4614 34.5289L34.3743 34.505L34.2952 34.4891L34.2156 34.4652L34.1366 34.4492L34.0574 34.4253L33.9858 34.4016L33.9067 34.3856L33.8355 34.3617L33.7644 34.3378L33.6927 34.3139L33.6056 34.2821L33.5265 34.2502L33.4473 34.2184L33.3678 34.1865L33.2967 34.1468L33.2175 34.107L33.1539 34.0672L33.0827 34.0275L33.0195 33.9797L32.9558 33.9399L32.9006 33.8921L32.8449 33.8364L32.7896 33.7807L32.7419 33.7249L32.6946 33.6693L32.6548 33.6136L32.6154 33.5499L32.5757 33.4783L32.5438 33.4231L32.5199 33.3594L32.4966 33.2877L32.4727 33.2241L32.4567 33.1444L32.4408 33.0728L32.4328 32.9933L32.4249 32.9136L32.417 32.8262V32.7386V32.7227V32.643L32.4249 32.5635L32.4328 32.4919L32.4408 32.4122L32.4567 32.3407L32.4727 32.269L32.4966 32.1973L32.5125 32.1258L32.5438 32.0541L32.5757 31.9825L32.6075 31.9109L32.6469 31.8392L32.6866 31.7677L32.7339 31.7039L32.7817 31.6403L32.8369 31.5766L32.8926 31.521L32.9479 31.4572L33.0116 31.4015L33.0668 31.3617L33.1304 31.3139L33.1937 31.2662L33.2568 31.2264L33.3285 31.1866L33.3997 31.1548L33.4708 31.115L33.5424 31.0832L33.6215 31.0592L33.7006 31.0275L33.7723 31.0036L33.8355 30.9876L33.9067 30.9717L33.9783 30.9558L34.0574 30.9399L34.1286 30.924L34.2077 30.9161L34.2873 30.9081L34.3664 30.9001L34.4455 30.8922H34.5246H34.6121H34.6993H34.7863L34.8734 30.9001L34.9605 30.9081H35.0396L35.1271 30.9161L35.2062 30.9319L35.2933 30.9399L35.3725 30.9558L35.4441 30.9717L35.5232 30.9876L35.6023 31.0036L35.6735 31.0195L35.753 31.0434L35.8242 31.0672L35.8954 31.0832L35.975 31.115L36.0462 31.1389L36.1173 31.1707L36.1885 31.2025L36.268 31.2344L36.3392 31.2742L36.4024 31.306L36.4741 31.3458L36.5453 31.3856L36.6085 31.4254L36.68 31.4732L36.7433 31.5129L36.807 31.5607L36.8702 31.6085L36.9333 31.6562L36.8861 31.7199L36.8463 31.7835L36.799 31.8472L36.7512 31.9109L36.704 31.9825L36.6641 32.0461L36.6164 32.1099L36.5691 32.1735L36.5294 32.2372L36.482 32.3009L36.4343 32.3646L36.3944 32.4282L36.3472 32.4999L36.2994 32.5635L36.2521 32.6272L36.2124 32.6908L36.165 32.7545L36.1014 32.7068L36.0303 32.6669L35.967 32.6272L35.9033 32.5794L35.8322 32.5476L35.7685 32.5078L35.6974 32.4759L35.6342 32.4441L35.5625 32.4122L35.4993 32.3805L35.4282 32.3566L35.3646 32.3247L35.2774 32.3009L35.1983 32.2769L35.1192 32.2532L35.0396 32.2372L34.9605 32.2213L34.8814 32.2053L34.8023 32.1973L34.7227 32.1894L34.6516 32.1814H34.5724H34.4774L34.3903 32.1973L34.3107 32.2133L34.2396 32.2292L34.1763 32.2611L34.1206 32.2928L34.0494 32.3566L34.0016 32.4282L33.9704 32.4999L33.9623 32.5794V32.5954L33.9704 32.6988L34.0096 32.7863L34.0415 32.8341L34.0967 32.8898L34.1684 32.9296L34.2316 32.9694L34.3107 33.0012L34.3982 33.0331L34.4933 33.0649L34.5565 33.0808L34.6197 33.1047L34.6913 33.1206L34.7624 33.1444L34.8415 33.1604L34.9291 33.1843L35.0162 33.2081L35.1033 33.2321L35.1903 33.2479L35.2694 33.2718L35.3565 33.2957L35.4361 33.3116L35.5153 33.3355L35.5944 33.3594L35.6655 33.3832L35.7451 33.4071L35.8163 33.431L35.8875 33.4549L35.975 33.4862L36.0541 33.5261L36.1332 33.5579L36.2124 33.5976L36.284 33.6375L36.3552 33.6773L36.4183 33.717L36.482 33.7648L36.5453 33.8046L36.6085 33.8603L36.6721 33.916L36.7273 33.9797L36.783 34.0354L36.8303 34.0991L36.8781 34.1707L36.9174 34.2343L36.9573 34.306L36.989 34.3697L37.0129 34.4412L37.0364 34.5129L37.0522 34.5845L37.0681 34.6641L37.084 34.7438L37.092 34.8233L37.1 34.9108V34.9984V35.0143V35.1019L37.092 35.1894ZM31.5353 36.7808H31.4558H31.3767H31.2976H31.2185H31.1389H31.0597H30.9807H30.9015H30.814H30.7349H30.6558H30.5767H30.497H30.418H30.3388H30.2597H30.18H30.1009H30.0218H29.9428H29.8636H29.784H29.7049H29.6258H29.5466H29.467H29.3879H29.3088H29.2217H29.1422H29.063H28.9839H28.9048H28.8253H28.7461H28.667H28.5878H28.5083H28.4292H28.3501H28.2709H28.1913H28.1122H28.0331H27.954H27.8744H27.7952H27.7082H27.6291H27.55H27.4703H27.3912H27.312H27.233H27.1535H27.0743H26.9952V36.7011V36.6215V36.542V36.4628V36.3832V36.3036V36.2241V36.1445V36.0649V35.9853V35.9057V35.8261V35.7465V35.6669V35.5873V35.5078V35.4282V35.3486V35.2769V35.1973V35.1178V35.0382V34.9586V34.879V34.7994V34.7198V34.6402V34.5606V34.4811V34.4016V34.3219V34.2423V34.1628V34.0831V34.0035V33.924V33.8443V33.7648V33.6852V33.6056V33.5261V33.4469V33.3673V33.2877V33.2081V33.1285V33.049V32.9694V32.8898V32.8102V32.7306V32.651V32.5714V32.4919V32.4202V32.3407V32.2611V32.1814V32.1019V32.0223V31.9427V31.8631V31.7835V31.7039V31.6244V31.5447V31.4651V31.3856V31.306V31.2264V31.1469V31.0672V30.9876H27.0743H27.1535H27.233H27.312H27.3912H27.4703H27.55H27.6291H27.7082H27.7873H27.8669H27.9461H28.0251H28.1043H28.1758H28.255H28.3341H28.4133H28.4928H28.5719H28.651H28.7302H28.8097H28.8888H28.9679H29.0471H29.1267H29.2058H29.2849H29.364H29.4437H29.5229H29.6019H29.681H29.7601H29.8398H29.9189H29.998H30.0771H30.1567H30.2358H30.3149H30.394H30.4657H30.5448H30.6239H30.7031H30.7826H30.8617H30.9408H31.0199H31.0996H31.1787H31.2577H31.3369H31.4165H31.4957H31.5748V31.0672V31.1389V31.2184V31.298V31.3776V31.4492V31.5289V31.6085V31.68V31.7597V31.8392V31.9109V31.9905V32.07V32.1496V32.2213V32.3009H31.4957H31.4165H31.3369H31.2577H31.1787H31.0996H31.0279H30.9488H30.8697H30.7905H30.711H30.6319H30.5527H30.4736H30.394H30.3149H30.2358H30.1567H30.0771H30.006H29.9268H29.8477H29.768H29.689H29.6099H29.5308H29.4511H29.372H29.2929H29.2138H29.1342H29.055H28.9839H28.9048H28.8253H28.7461H28.667H28.5878H28.5083V32.3805V32.46V32.5395V32.6192V32.6988V32.7704V32.85V32.9296V33.0091V33.0888V33.1683V33.2479H28.5878H28.667H28.7461H28.8253H28.9048H28.9839H29.063H29.1422H29.2138H29.2929H29.372H29.4511H29.5308H29.6099H29.689H29.768H29.8477H29.9268H30.006H30.0851H30.1646H30.2437H30.3229H30.4021H30.4816H30.5607H30.6319H30.711H30.7905H30.8697H30.9488H31.0279H31.1075H31.1866H31.2657V33.3275V33.3991V33.4783V33.5579V33.6295V33.709V33.7887V33.8603V33.9399V34.0195V34.0991V34.1707V34.2502V34.3298V34.4016V34.4811H31.1866H31.1075H31.0279H30.9488H30.8697H30.7905H30.711H30.6319H30.5607H30.4816H30.4021H30.3229H30.2437H30.1646H30.0851H30.006H29.9268H29.8477H29.768H29.689H29.6099H29.5308H29.4511H29.372H29.2929H29.2138H29.1422H29.063H28.9839H28.9048H28.8253H28.7461H28.667H28.5878H28.5083V34.5606V34.6483V34.7278V34.8074V34.895V34.9746V35.0541V35.1417V35.2212V35.3008V35.3884V35.4679H28.5878H28.667H28.7461H28.8253H28.9048H28.9839H29.063H29.1422H29.2217H29.3088H29.3879H29.467H29.5466H29.6258H29.7049H29.784H29.8636H29.9428H30.0218H30.1009H30.18H30.2597H30.3388H30.418H30.497H30.5767H30.6558H30.7349H30.814H30.9015H30.9807H31.0597H31.1389H31.2185H31.2976H31.3767H31.4558H31.5353H31.6145V35.5475V35.6192V35.6988V35.7783V35.858V35.9296V36.0092V36.0887V36.1604V36.24V36.3195V36.3912V36.4703V36.5499V36.6294V36.7011V36.7808H31.5353ZM25.7461 36.7808H25.667H25.5878H25.5004H25.4213H25.3421H25.263H25.1834H25.1043H25.0172H24.9381H24.8589H24.7793H24.7002H24.6212H24.5341H24.4544H24.3753H24.2962V36.7011V36.6215V36.542V36.4623V36.3823V36.3027V36.2231V36.1435V36.0639V35.9844V35.9048V35.8248V35.7451V35.6655V35.586V35.5063V35.4263V35.3466V35.2671V35.1876V35.1079V35.0284V34.9483V34.8688V34.7891V34.7095V34.63V34.5503V34.4703V34.3906V34.3111V34.2316V34.152V34.0724V33.9923V33.9128V33.8331V33.7536V33.674V33.5939V33.5144V33.4347V33.3551L24.2565 33.4187L24.2092 33.4909L24.1693 33.5546L24.1221 33.6183L24.0823 33.6899L24.0344 33.7536L23.9952 33.8173L23.9554 33.8893L23.9081 33.953L23.8683 34.0166L23.8206 34.0804L23.7813 34.1525L23.7335 34.2161L23.6942 34.2798L23.6543 34.3514L23.6066 34.4155L23.5672 34.4792L23.5195 34.5508L23.4802 34.6145L23.4325 34.6782L23.3931 34.7503L23.3533 34.814L23.3056 34.8776L23.2663 34.9493L23.2185 35.0134L23.1792 35.077L23.1314 35.1408L23.0916 35.2123L23.0523 35.2764L23.0046 35.3402L22.9653 35.4118L22.9175 35.4754L22.8777 35.5391L22.8304 35.6113L22.7906 35.6749H22.7592L22.7115 35.6033L22.6717 35.5391L22.6244 35.4675L22.5846 35.4038L22.5373 35.3323L22.4975 35.2681L22.4503 35.1964L22.4104 35.1327L22.3627 35.0611L22.3233 34.9975L22.2756 34.9253L22.2363 34.8617L22.1886 34.79L22.1487 34.7264L22.1015 34.6543L22.0616 34.5906L22.0144 34.519L21.9667 34.4554L21.9269 34.3833L21.8796 34.3196L21.8398 34.248L21.7925 34.1843L21.7527 34.1122L21.7054 34.0485L21.6656 33.9769L21.6179 33.9132L21.5785 33.8416L21.5308 33.7774L21.4914 33.7058L21.4437 33.6421L21.4039 33.5705L21.3567 33.5069L21.3167 33.4347L21.2695 33.3711V33.4506V33.5302V33.6099V33.6899V33.7695V33.849V33.9287V34.0083V34.0883V34.1679V34.2395V34.3191V34.3987V34.4783V34.5583V34.638V34.7175V34.797V34.8767V34.9563V35.0363V35.1159V35.1955V35.2751V35.3547V35.4343V35.5143V35.5939V35.6735V35.753V35.8327V35.9127V35.9844V36.0639V36.1435V36.2231V36.3027V36.3823V36.4623V36.542V36.6215V36.7011V36.7808H21.1904H21.1109H21.0317H20.9526H20.8735H20.794H20.7148H20.6357H20.5565H20.4769H20.3979H20.3187H20.2396H20.16H20.0809H20.0017H19.9226H19.843H19.7639V36.7011V36.6215V36.542V36.4628V36.3832V36.3036V36.2241V36.1445V36.0649V35.9853V35.9057V35.8261V35.7465V35.6669V35.5873V35.5078V35.4282V35.3486V35.2769V35.1973V35.1178V35.0382V34.9586V34.879V34.7994V34.7198V34.6402V34.5606V34.4811V34.4016V34.3219V34.2423V34.1628V34.0831V34.0035V33.924V33.8443V33.7648V33.6852V33.6056V33.5261V33.4469V33.3673V33.2877V33.2081V33.1285V33.049V32.9694V32.8898V32.8102V32.7306V32.651V32.5714V32.4919V32.4202V32.3407V32.2611V32.1814V32.1019V32.0223V31.9427V31.8631V31.7835V31.7039V31.6244V31.5447V31.4651V31.3856V31.306V31.2264V31.1469V31.0672V30.9876H19.843H19.9226H19.9938H20.0729H20.152H20.2316H20.3028H20.3819H20.4615H20.5406H20.6118H20.6909H20.7705H20.8496H20.9207H20.9998H21.0795H21.1586H21.2297H21.3088H21.3885L21.4278 31.0513L21.4676 31.1229L21.5148 31.1861L21.5547 31.2577L21.5944 31.3214L21.6338 31.3931L21.6735 31.4562L21.7209 31.528L21.7606 31.5916L21.8005 31.6553L21.8398 31.7264L21.8796 31.7901L21.9269 31.8617L21.9667 31.9254L22.0064 31.9965L22.0457 32.0602L22.0935 32.1238L22.1334 32.1951L22.1726 32.2587L22.2124 32.3303L22.2518 32.394L22.2996 32.4651L22.3393 32.5289L22.3786 32.6004L22.4184 32.6636L22.4577 32.7273L22.5055 32.7989L22.5453 32.8627L22.5846 32.9343L22.6244 32.9975L22.6637 33.0692L22.7115 33.1328L22.7513 33.2039L22.7906 33.2677L22.8304 33.2039L22.8702 33.1328L22.9175 33.0692L22.9572 32.9975L22.9966 32.9343L23.0364 32.8627L23.0837 32.7989L23.1235 32.7273L23.1633 32.6636L23.2026 32.6004L23.2503 32.5289L23.2896 32.4651L23.3295 32.394L23.3692 32.3303L23.4165 32.2587L23.4563 32.1951L23.4961 32.1238L23.5354 32.0602L23.5753 31.9965L23.6225 31.9254L23.6623 31.8617L23.7021 31.7901L23.7415 31.7264L23.7892 31.6553L23.8286 31.5916L23.8683 31.528L23.9081 31.4562L23.9554 31.3931L23.9952 31.3214L24.0344 31.2577L24.0743 31.1861L24.1221 31.1229L24.1614 31.0513L24.2012 30.9876H24.2803H24.3594H24.431H24.5102H24.5893H24.6684H24.74H24.8192H24.8982H24.9774H25.049H25.1281H25.2072H25.2864H25.358H25.4372H25.5163H25.5953H25.667H25.7461H25.8252V31.0672V31.1469V31.2264V31.306V31.3856V31.4651V31.5447V31.6244V31.7039V31.7835V31.8631V31.9427V32.0223V32.1019V32.1814V32.2611V32.3407V32.4202V32.4919V32.5714V32.651V32.7306V32.8102V32.8898V32.9694V33.049V33.1285V33.2081V33.2877V33.3673V33.4469V33.5261V33.6056V33.6852V33.7648V33.8443V33.924V34.0035V34.0831V34.1628V34.2423V34.3219V34.4016V34.4811V34.5606V34.6402V34.7198V34.7994V34.879V34.9586V35.0382V35.1178V35.1973V35.2769V35.3486V35.4282V35.5078V35.5873V35.6669V35.7465V35.8261V35.9057V35.9853V36.0649V36.1445V36.2241V36.3036V36.3832V36.4628V36.542V36.6215V36.7011V36.7808H25.7461ZM16.5528 34.3936L16.5289 34.3215L16.4976 34.2419L16.4657 34.1702L16.4418 34.0981L16.4105 34.0265L16.3787 33.9469L16.3548 33.8748L16.3229 33.8031L16.2916 33.7316L16.2677 33.6595L16.2358 33.5799L16.2125 33.5082L16.1806 33.4361L16.1487 33.3645L16.1249 33.2929L16.0935 33.2129L16.0617 33.1412L16.0378 33.0696L16.006 32.9975L15.9746 32.9179L15.9508 32.8458L15.9189 32.7742L15.8876 32.8458L15.8638 32.9179L15.8319 32.9975L15.8 33.0696L15.7766 33.1412L15.7448 33.2129L15.7129 33.2929L15.6816 33.3645L15.6576 33.4361L15.6258 33.5082L15.594 33.5799L15.5705 33.6595L15.5388 33.7316L15.5069 33.8031L15.4831 33.8748L15.4517 33.9469L15.4198 34.0265L15.388 34.0981L15.3647 34.1702L15.3328 34.2419L15.3009 34.3215L15.2771 34.3936L15.2457 34.4652H15.3248H15.4039H15.4831H15.5626H15.6417H15.7208H15.8H15.8796H15.9508H16.0299H16.1095H16.1886H16.2677H16.3469H16.426H16.5055H16.5846L16.5528 34.3936ZM19.0411 36.7808H18.9616H18.8903H18.8113H18.7317H18.6526H18.5734H18.5023H18.4226H18.3435H18.2645H18.1853H18.1057H18.0345H17.9554H17.8762H17.7967H17.7176H17.6464H17.5673H17.4878L17.4564 36.709L17.4325 36.6374L17.4007 36.5658L17.3688 36.4862L17.3454 36.415L17.3136 36.3435L17.2817 36.2718L17.2583 36.2002L17.2265 36.1286L17.1946 36.0569L17.1709 35.9853L17.1394 35.9057L17.1076 35.8341L17.0837 35.7625L17.0518 35.6908H16.9727H16.8936H16.8145H16.7354H16.6638H16.5846H16.5055H16.426H16.3469H16.2677H16.1886H16.1095H16.0299H15.9508H15.8796H15.8H15.7208H15.6417H15.5626H15.4831H15.4039H15.3248H15.2457H15.1666H15.0949H15.0159H14.9367H14.8571H14.778L14.7466 35.7625L14.7228 35.8341L14.6909 35.9057L14.6591 35.9853L14.6357 36.0569L14.6039 36.1286L14.572 36.2002L14.5481 36.2718L14.5168 36.3435L14.4849 36.415L14.4611 36.4862L14.4296 36.5658L14.3978 36.6374L14.374 36.709L14.3421 36.7808H14.263H14.1839H14.1048H14.0252H13.9461H13.859H13.7799H13.7007H13.6212H13.5421H13.463H13.3838H13.3042H13.2252H13.1461H13.059H12.9793H12.9002H12.8211H12.742L12.7733 36.709L12.8052 36.6374L12.8369 36.5658L12.8684 36.4862L12.8923 36.415L12.9241 36.3435L12.9559 36.2718L12.9872 36.2002L13.0191 36.1286L13.051 36.0489L13.0823 35.9773L13.1142 35.9057L13.138 35.8341L13.1698 35.7625L13.2012 35.6908L13.2331 35.6113L13.2648 35.5396L13.2963 35.4679L13.3281 35.3963L13.3599 35.3247L13.3838 35.2531L13.4151 35.1734L13.447 35.1019L13.4789 35.0302L13.5102 34.9586L13.5421 34.887L13.5739 34.8153L13.6053 34.7357L13.6292 34.6641L13.661 34.5925L13.6928 34.5209L13.7242 34.4492L13.756 34.3776L13.7878 34.298L13.8192 34.2264L13.851 34.1548L13.8749 34.0831L13.9068 34.0116L13.9381 33.9399L13.97 33.8603L14.0018 33.7887L14.0332 33.717L14.0649 33.6454L14.0968 33.5738L14.1207 33.5021L14.1521 33.431L14.1839 33.3514L14.2157 33.2798L14.2471 33.2081L14.2789 33.1364L14.3108 33.0649L14.3421 32.9933L14.366 32.9136L14.3978 32.8421L14.4296 32.7704L14.4611 32.6988L14.4929 32.6272L14.5247 32.5555L14.5561 32.4759L14.5879 32.4043L14.6118 32.3327L14.6436 32.2611L14.675 32.1894L14.7068 32.1178L14.7386 32.0382L14.77 31.9666L14.8019 31.895L14.8337 31.8233L14.8571 31.7518L14.8889 31.68L14.9208 31.6005L14.9527 31.5289L14.984 31.4572L15.0159 31.3856L15.0477 31.3139L15.079 31.2424L15.103 31.1628L15.1348 31.0911L15.1666 31.0195L15.198 30.9478H15.2771H15.3487H15.4278H15.5069H15.5865H15.6576H15.7367H15.8159H15.8955H15.9667H16.0457H16.1249H16.2045H16.2757H16.3548H16.4339H16.5135H16.5846H16.6638L16.6956 31.0195L16.7274 31.0911L16.7589 31.1628L16.7906 31.2424L16.8145 31.3139L16.8459 31.3856L16.8777 31.4572L16.9095 31.5289L16.9414 31.6005L16.9727 31.68L17.0046 31.7518L17.0365 31.8233L17.0598 31.895L17.0917 31.9666L17.1235 32.0382L17.1554 32.1178L17.1867 32.1894L17.2185 32.2611L17.2504 32.3327L17.2817 32.4043L17.3056 32.4759L17.3374 32.5555L17.3688 32.6272L17.4007 32.6988L17.4325 32.7704L17.4643 32.8421L17.4957 32.9136L17.5275 32.9933L17.5514 33.0649L17.5828 33.1364L17.6145 33.2081L17.6464 33.2798L17.6783 33.3514L17.7096 33.431L17.7415 33.5021L17.7733 33.5738L17.7967 33.6454L17.8285 33.717L17.8604 33.7887L17.8918 33.8603L17.9236 33.9399L17.9554 34.0116L17.9873 34.0831L18.0186 34.1548L18.0425 34.2264L18.0743 34.298L18.1057 34.3776L18.1375 34.4492L18.1694 34.5209L18.2012 34.5925L18.2326 34.6641L18.2645 34.7357L18.2882 34.8153L18.3197 34.887L18.3515 34.9586L18.3833 35.0302L18.4147 35.1019L18.4465 35.1734L18.4784 35.2531L18.5103 35.3247L18.5336 35.3963L18.5655 35.4679L18.5974 35.5396L18.6287 35.6113L18.6605 35.6908L18.6923 35.7625L18.7241 35.8341L18.7555 35.9057L18.7794 35.9773L18.8113 36.0489L18.8426 36.1286L18.8744 36.2002L18.9062 36.2718L18.9376 36.3435L18.9694 36.415L19.0013 36.4862L19.0252 36.5658L19.0565 36.6374L19.0884 36.709L19.1201 36.7808H19.0411ZM12.0997 36.0409L12.036 36.0887L11.9807 36.1286L11.9171 36.1763L11.8539 36.2161L11.7907 36.2638L11.727 36.3036L11.6638 36.3435L11.5922 36.3832L11.521 36.423L11.4498 36.4628L11.3782 36.4941L11.307 36.534L11.2279 36.5658L11.1568 36.5976L11.0772 36.6294L11.0061 36.6613L10.9348 36.6852L10.8632 36.709L10.7921 36.733L10.713 36.7568L10.6419 36.7808L10.5622 36.7967L10.491 36.8125L10.4119 36.8284L10.3324 36.8443L10.2532 36.8523L10.1661 36.8603L10.087 36.8683L9.99993 36.8762L9.9203 36.8842L9.8333 36.8921H9.74622H9.65904H9.57204H9.49241L9.41332 36.8842L9.32623 36.8762L9.24713 36.8683L9.16804 36.8603L9.08841 36.8523L9.00931 36.8364L8.93012 36.8204L8.85902 36.8046L8.77948 36.7887L8.70828 36.7648L8.62918 36.7489L8.55754 36.7249L8.48635 36.6931L8.41515 36.6693L8.33614 36.6374L8.2645 36.6056L8.19331 36.5738L8.1222 36.542L8.05047 36.5022L7.98735 36.4628L7.91616 36.423L7.85251 36.3832L7.7893 36.3435L7.72565 36.2956L7.66244 36.248L7.59915 36.2002L7.54349 36.1524L7.48827 36.1047L7.43252 36.0489L7.3773 36.0013L7.32155 35.9455L7.26634 35.8898L7.21858 35.8341L7.17126 35.7704L7.1235 35.7147L7.08373 35.651L7.03641 35.5873L6.99673 35.5237L6.95732 35.46L6.91755 35.3884L6.87778 35.3247L6.84644 35.2531L6.81457 35.1814L6.78279 35.1098L6.75136 35.0382L6.72748 34.9746L6.69561 34.9029L6.67972 34.8312L6.65629 34.7597L6.6404 34.6801L6.61652 34.6084L6.60063 34.5289L6.59264 34.4572L6.57666 34.3776L6.56884 34.306L6.56077 34.2264L6.55331 34.1468L6.54541 34.0672V33.9797V33.9001V33.8842V33.8046L6.55331 33.717V33.6375L6.56077 33.5579L6.56884 33.4703L6.58474 33.3912L6.59264 33.3116L6.60853 33.24L6.63241 33.1604L6.64838 33.0808L6.67173 33.0091L6.69561 32.9296L6.71949 32.858L6.75136 32.7783L6.78279 32.7068L6.81457 32.6351L6.84644 32.5635L6.87778 32.4919L6.91755 32.4202L6.95732 32.3566L6.99673 32.2928L7.03641 32.2292L7.07627 32.1655L7.1235 32.1019L7.17126 32.0382L7.21858 31.9746L7.26634 31.9187L7.32155 31.8631L7.36931 31.8073L7.42462 31.7518L7.48028 31.6959L7.5355 31.6483L7.59915 31.5925L7.65445 31.5447L7.71766 31.497L7.78131 31.4572L7.84452 31.4095L7.90826 31.3697L7.97137 31.3299L8.04257 31.2901L8.11421 31.2503L8.18532 31.2105L8.25651 31.1786L8.32807 31.1469L8.40725 31.107L8.47046 31.0832L8.54955 31.0592L8.62128 31.0275L8.69239 31.0115L8.7635 30.9876L8.84304 30.9717L8.91423 30.9478L8.99333 30.9319L9.07252 30.924L9.15206 30.9081L9.23124 30.9001L9.31025 30.8922L9.38944 30.8842L9.46907 30.8762H9.55615H9.63525H9.72225H9.80934L9.89695 30.8842L9.98404 30.8922H10.0631L10.1422 30.9001L10.2293 30.9161L10.301 30.924L10.3801 30.9399L10.4592 30.9558L10.5308 30.9717L10.6019 30.9876L10.6732 31.0036L10.7448 31.0275L10.8159 31.0434L10.8791 31.0672L10.9508 31.0911L11.022 31.1229L11.0931 31.1548L11.1647 31.1866L11.2359 31.2264L11.307 31.2583L11.3708 31.298L11.4419 31.3378L11.5051 31.3776L11.5767 31.4174L11.6399 31.4651L11.7031 31.505L11.7668 31.5527L11.83 31.6005L11.8936 31.6562L11.9568 31.7039L11.9091 31.7677L11.8539 31.8233L11.8061 31.887L11.7509 31.9506L11.7031 32.0144L11.6558 32.07L11.6001 32.1337L11.5528 32.1973L11.5051 32.2532L11.4498 32.3168L11.4021 32.3805L11.3468 32.4441L11.299 32.4999L11.2518 32.5635L11.1961 32.6272L11.1487 32.6908L11.0931 32.7466L11.0458 32.8102L10.9821 32.7624L10.9189 32.7068L10.8553 32.6669L10.7921 32.6192L10.7288 32.5794L10.6652 32.5395L10.6019 32.4999L10.5308 32.46L10.4671 32.4282L10.4039 32.3963L10.3403 32.3725L10.2691 32.3486L10.198 32.3247L10.1263 32.3088L10.0472 32.2928L9.96815 32.2769L9.88896 32.269L9.80188 32.2611L9.71435 32.2532H9.62726H9.54816L9.46907 32.2611L9.39743 32.269L9.31833 32.2849L9.24713 32.3009L9.17549 32.3247L9.10439 32.3486L9.03319 32.3805L8.96199 32.4122L8.89834 32.452L8.83523 32.4919L8.77149 32.5317L8.71627 32.5794L8.66052 32.6272L8.6053 32.6749L8.55754 32.7306L8.50233 32.7863L8.45457 32.85L8.41515 32.9057L8.37538 32.9694L8.33614 33.041L8.29628 33.1047L8.2645 33.1763L8.24062 33.2479L8.2092 33.3196L8.18532 33.3991L8.16943 33.4783L8.15354 33.5499L8.13756 33.6375L8.12966 33.717L8.1222 33.7966V33.8842V33.9001V33.9797L8.12966 34.0592L8.13756 34.1309L8.14555 34.2105L8.16144 34.2821L8.17741 34.3538L8.19331 34.4253L8.21719 34.497L8.24062 34.5606L8.27249 34.6402L8.30427 34.7119L8.3436 34.7835L8.38337 34.8472L8.42314 34.9108L8.47046 34.9746L8.51822 35.0302L8.57343 35.086L8.62128 35.1417L8.67641 35.1894L8.74015 35.2372L8.80336 35.2849L8.86648 35.3247L8.93012 35.3645L9.00141 35.3963L9.07252 35.4282L9.14407 35.46L9.22325 35.4839L9.30235 35.5078L9.38198 35.5237L9.46108 35.5396L9.54017 35.5475L9.62726 35.5555H9.71435H9.80934L9.89695 35.5475L9.98404 35.5396L10.0631 35.5316L10.1422 35.5157L10.2219 35.4998L10.301 35.476L10.3721 35.46L10.4434 35.4282L10.507 35.3963L10.5781 35.3645L10.6338 35.3327L10.6971 35.2928V35.2133V35.1338V35.0541V34.9746V34.887V34.8074V34.7278V34.6483V34.5686H10.6179H10.5463H10.4671H10.388H10.309H10.2373H10.1581H10.079H9.99993H9.92838H9.84919H9.7701H9.69091H9.61936H9.54017V34.4891V34.4174V34.3378V34.2583V34.1786V34.107V34.0275V33.9478V33.8683V33.7966V33.717V33.6375V33.5579V33.4862V33.4071H9.61936H9.6989H9.77809H9.8571H9.93628H10.0154H10.095H10.1741H10.2532H10.3324H10.4119H10.491H10.5701H10.6492H10.7288H10.808H10.8871H10.9662H11.0458H11.125H11.2041H11.2831H11.3627H11.4419H11.521H11.6001H11.6797H11.7588H11.838H11.9171H11.9966H12.0757H12.1549V33.4862V33.5658V33.6454V33.717V33.7966V33.8762V33.9557V34.0354V34.115V34.1865V34.2662V34.3458V34.4253V34.505V34.5845V34.6641V34.7357V34.8153V34.895V34.9746V35.0541V35.1338V35.2133V35.2849V35.3645V35.4441V35.5237V35.6033V35.6828V35.7545V35.8341V35.9136V35.9933L12.0997 36.0409Z" fill="white"/>
<path d="M9.55137 17.8796H12.9854V15.2233H9.55137V9.80054H13.1221V7.14427H6.63525V26.3149H13.1764V23.6586H9.55137V17.8796Z" fill="white"/>
<path d="M34.1481 18.4553V22.7824C34.1481 23.5494 33.7936 23.9052 33.0581 23.9052H32.5127C31.7497 23.9052 31.3952 23.5494 31.3952 22.7824V10.6771C31.3952 9.91032 31.7497 9.55452 32.5127 9.55452H33.0033C33.7393 9.55452 34.0937 9.91032 34.0937 10.6771V14.4295H36.9552V10.5128C36.9552 8.13042 35.8104 6.98009 33.4397 6.98009H32.0221C29.6513 6.98009 28.479 8.15758 28.479 10.5404V22.9192C28.479 25.3021 29.6513 26.4795 32.0221 26.4795H33.4668C35.8381 26.4795 37.0098 25.3021 37.0098 22.9192V18.4553H34.1481Z" fill="white"/>
<path d="M24.0215 26.3154H26.938V7.14467H24.0215V26.3154Z" fill="white"/>
<path d="M19.7895 15.6619C19.7895 16.4288 19.4355 16.7851 18.6996 16.7851H17.5002V9.71909H18.6996C19.4355 9.71909 19.7895 10.075 19.7895 10.8417V15.6619ZM19.1626 7.14467H14.584V26.3154H17.5002V19.359H19.1626C21.5339 19.359 22.7057 18.1816 22.7057 15.7992V10.705C22.7057 8.32216 21.5339 7.14467 19.1626 7.14467Z" fill="white"/>
<path fill-rule="evenodd" clip-rule="evenodd" d="M13.5146 43.6494H30.2088L21.6878 46.4595L13.5146 43.6494Z" fill="white"/>
</g>
</g>
<defs>
<clipPath id="clip0_295_1819">
<rect width="43.0883" height="50" fill="white" transform="translate(0.27832 0.5)"/>
</clipPath>
</defs>
</svg>
