<svg width="259" height="50" viewBox="0 0 259 50" fill="none" xmlns="http://www.w3.org/2000/svg">
<path fill-rule="evenodd" clip-rule="evenodd" d="M1.93848 25C1.93848 11.7687 12.8794 1 26.4172 1C39.955 1 50.9385 11.7687 50.9385 25C50.9385 38.2313 39.9124 49 26.4172 49C12.922 49 1.93848 38.2313 1.93848 25ZM39.2739 36.8957C40.8064 36.8957 42.5944 36.1444 43.531 35.6853L43.3182 36.1444C41.3599 39.0244 38.8481 40.5687 36.0384 40.5687C34.8464 40.5687 33.5267 40.2766 32.207 39.6922C30.8021 39.1079 29.5675 37.9809 28.7161 36.5618C27.8647 35.1426 27.5241 33.5983 27.7795 32.2209C28.0775 31.0105 28.7161 29.3826 29.4824 27.4627C29.5203 27.3644 29.5585 27.2654 29.5969 27.1658C31.5023 22.2295 34.0346 15.6687 31.7812 12.4366C30.8021 11.0592 29.0567 10.3496 26.4172 10.3496C23.7778 10.3496 22.0323 11.0592 21.0532 12.4366C18.722 15.7195 21.3704 22.4366 23.3263 27.3974L23.3521 27.4627C24.1183 29.3826 24.7569 31.0105 25.0549 32.2209C25.2678 33.5566 24.9698 35.1009 24.1183 36.52C23.2669 37.9392 22.0323 39.0244 20.6275 39.6505C19.3077 40.2348 18.0306 40.527 16.796 40.527C13.9863 40.527 11.4746 38.9826 9.51626 36.1026L9.3034 35.6853C10.24 36.1444 12.028 36.8957 13.5606 36.8957C14.3269 36.8957 15.0506 36.6453 15.7743 36.1861C19.7335 33.5983 18.4137 30.5096 15.6891 25.7096C15.6598 25.6573 15.6303 25.605 15.6009 25.5527C14.4792 23.5576 13.3346 21.5219 12.8368 19.407C12.2834 17.0696 11.7726 13.6887 13.816 11.1009C14.7951 9.89048 16.2426 8.97221 18.2009 8.34613C20.2017 7.6783 22.7986 7.34439 25.9064 7.30265H26.9281C30.0358 7.34439 32.6327 7.6783 34.6335 8.34613C36.5918 8.97221 38.0393 9.89048 39.0184 11.1009C41.0619 13.6887 40.551 17.0696 39.9976 19.407C39.4998 21.5219 38.3552 23.5576 37.2336 25.5526C37.2041 25.6049 37.1747 25.6573 37.1453 25.7096C34.4633 30.5096 33.101 33.5983 37.0601 36.1861C37.7838 36.687 38.5076 36.8957 39.2739 36.8957Z" fill="#949FC5"/>
<path d="M73.111 8H67.9385V41.4454H73.111V8Z" fill="#949FC5"/>
<path d="M98.5036 41.4454H93.331V39.2698C92.0913 40.7202 89.8684 41.9573 87.1753 41.9573C81.96 41.9573 79.1386 38.5019 79.1386 33.468V18.5797H84.3111V32.5721C84.3111 35.3877 85.6363 37.2647 88.586 37.2647C90.8089 37.2647 92.7753 35.857 93.331 33.596V18.5797H98.5036V41.4454Z" fill="#949FC5"/>
<path d="M110.088 8H104.916V41.4454H110.088V8Z" fill="#949FC5"/>
<path d="M135.524 41.4454H130.351V39.2698C129.111 40.7202 126.889 41.9573 124.195 41.9573C118.98 41.9573 116.159 38.5019 116.159 33.468V18.5797H121.331V32.5721C121.331 35.3877 122.656 37.2647 125.606 37.2647C127.829 37.2647 129.795 35.857 130.351 33.596V18.5797H135.524V41.4454Z" fill="#949FC5"/>
<path d="M147.066 8H141.893V41.4454H147.066V8Z" fill="#949FC5"/>
<path d="M172.33 34.3639C171.561 38.8858 168.184 42 162.669 42C156.257 42 151.854 37.1794 151.854 30.0979C151.854 23.0163 156.342 18.1104 162.584 18.1104C168.825 18.1104 172.544 22.675 172.544 29.3726V31.207H156.898C157.069 35.2171 159.377 37.6487 162.669 37.6487C165.148 37.6487 166.987 36.5822 167.585 34.3639H172.33ZM157.069 27.4529H167.457C167.414 24.68 165.79 22.4191 162.669 22.4191C159.805 22.4191 157.71 24.1681 157.069 27.4529Z" fill="#949FC5"/>
<path d="M201.014 18.1104C205.717 18.1104 208.453 21.3952 208.453 26.5997V41.4881H203.28V27.4529C203.28 24.6374 202.04 22.7603 199.518 22.7603C197.68 22.7603 195.927 23.9122 195.457 26.1731V41.5307H190.284V27.4956C190.284 24.68 189.045 22.803 186.523 22.803C184.684 22.803 182.932 23.9548 182.462 26.2158V41.5734H177.289V18.7077H182.462V20.6274C183.53 19.1769 185.625 18.1957 188.19 18.1957C190.755 18.1957 193.02 19.4755 194.217 21.2246C195.799 19.2622 197.936 18.1104 201.014 18.1104Z" fill="#949FC5"/>
<path d="M223.799 41.9573C217.344 41.9573 212.898 37.0088 212.898 30.0125C212.898 23.0163 217.344 18.0678 223.799 18.0678C230.254 18.0678 234.7 23.0163 234.7 30.0125C234.7 37.0088 230.254 41.9573 223.799 41.9573ZM223.799 22.5044C220.08 22.5044 218.071 25.7039 218.071 30.0125C218.071 34.3212 220.08 37.5207 223.799 37.5207C227.518 37.5207 229.528 34.3212 229.528 30.0125C229.528 25.7039 227.518 22.5044 223.799 22.5044Z" fill="#949FC5"/>
<path d="M239.488 18.6223H244.66V20.798C245.9 19.3476 248.166 18.1104 250.859 18.1104C256.074 18.1104 258.938 21.5659 258.938 26.5997V41.4881H253.766V27.4529C253.766 24.6374 252.355 22.7603 249.448 22.7603C247.225 22.7603 245.216 24.1681 244.66 26.4291V41.4454H239.488V18.6223Z" fill="#949FC5"/>
</svg>
