<svg width="201" height="51" viewBox="0 0 201 51" fill="none" xmlns="http://www.w3.org/2000/svg">
<g clip-path="url(#clip0_293_1781)">
<path d="M68.7783 26.1875V34.3125H65.4033V13.625H73.4658C78.2783 13.625 80.8408 16.0625 80.8408 19.9375C80.8408 23.8125 78.2783 26.25 73.4658 26.25H68.7783V26.1875ZM68.7783 16.75V23H73.4033C76.0908 23 77.3408 22 77.3408 19.875C77.3408 17.75 76.0908 16.75 73.4033 16.75H68.7783Z" fill="#949FC5"/>
<path d="M96.1533 34.3125H93.0283V32.625C92.0283 33.875 90.5908 34.6875 88.5908 34.6875C84.6533 34.6875 81.5283 31.5625 81.5283 27.25C81.5283 22.9375 84.6533 19.8125 88.5908 19.8125C90.5908 19.8125 92.0908 20.625 93.0283 21.875V20.1875H96.1533V34.3125ZM84.6533 27.25C84.6533 29.75 86.2783 31.8125 88.9033 31.8125C91.4658 31.8125 93.1533 29.875 93.1533 27.25C93.1533 24.6875 91.4658 22.6875 88.9033 22.6875C86.2783 22.6875 84.6533 24.75 84.6533 27.25Z" fill="#949FC5"/>
<path d="M112.716 25.4375V34.375H109.591V26.4375C109.591 24.0625 108.341 22.75 106.278 22.75C104.278 22.75 102.591 24.0625 102.591 26.5V34.375H99.4658V20.1875H102.528V21.9375C103.653 20.25 105.403 19.8125 106.903 19.8125C110.341 19.8125 112.716 22.125 112.716 25.4375Z" fill="#949FC5"/>
<path d="M126.216 21.875V13H129.341V34.3125H126.216V32.625C125.216 33.875 123.778 34.6875 121.778 34.6875C117.841 34.6875 114.716 31.5625 114.716 27.25C114.716 22.9375 117.841 19.8125 121.778 19.8125C123.778 19.8125 125.278 20.625 126.216 21.875ZM117.841 27.25C117.841 29.75 119.466 31.8125 122.091 31.8125C124.653 31.8125 126.341 29.875 126.341 27.25C126.341 24.6875 124.653 22.6875 122.091 22.6875C119.466 22.6875 117.841 24.75 117.841 27.25Z" fill="#949FC5"/>
<path d="M146.341 34.3125H143.216V32.625C142.216 33.875 140.778 34.6875 138.778 34.6875C134.841 34.6875 131.716 31.5625 131.716 27.25C131.716 22.9375 134.841 19.8125 138.778 19.8125C140.778 19.8125 142.278 20.625 143.216 21.875V20.1875H146.341V34.3125ZM134.841 27.25C134.841 29.75 136.466 31.8125 139.091 31.8125C141.653 31.8125 143.341 29.875 143.341 27.25C143.341 24.6875 141.653 22.6875 139.091 22.6875C136.466 22.6875 134.841 24.75 134.841 27.25Z" fill="#949FC5"/>
<path d="M158.091 13.625C164.591 13.625 168.841 17.75 168.841 24C168.841 30.25 164.591 34.375 158.091 34.375H149.841V13.625H158.091ZM153.216 16.8125V31.1875H158.091C162.966 31.1875 165.341 28.1875 165.341 24C165.341 19.75 162.966 16.8125 158.091 16.8125H153.216Z" fill="#949FC5"/>
<path d="M185.716 27.25C185.716 31.5 182.466 34.6875 178.091 34.6875C173.716 34.6875 170.466 31.5 170.466 27.25C170.466 23 173.716 19.8125 178.091 19.8125C182.466 19.8125 185.716 23 185.716 27.25ZM173.653 27.25C173.653 29.9375 175.591 31.8125 178.091 31.8125C180.653 31.8125 182.528 29.9375 182.528 27.25C182.528 24.5625 180.591 22.6875 178.091 22.6875C175.591 22.6875 173.653 24.5625 173.653 27.25Z" fill="#949FC5"/>
<path d="M200.278 22.0627L198.278 24.1877C197.278 23.2502 196.216 22.7502 194.903 22.7502C192.528 22.7502 190.716 24.6252 190.716 27.3127C190.716 30.0002 192.528 31.8752 194.903 31.8752C196.278 31.8752 197.466 31.2502 198.403 30.3752L200.341 32.5002C199.028 34.0002 197.153 34.7502 195.028 34.7502C190.528 34.7502 187.591 31.5627 187.591 27.3127C187.591 23.0627 190.528 19.8752 195.028 19.8752C197.091 19.8127 199.028 20.5627 200.278 22.0627Z" fill="#949FC5"/>
<path d="M50.2783 0.5H0.27832V50.5H50.2783V0.5Z" fill="#949FC5"/>
<path d="M36.8408 11.5625V18.9375L36.7158 19C35.6533 18.125 34.2783 17.5625 32.5283 17.5625C30.2783 17.5625 28.2158 18.375 26.8408 20L28.9658 22.25C30.0283 21.25 31.1533 20.6875 32.5908 20.6875C35.2783 20.75 37.0283 22.8125 37.0283 25.5625C37.0283 28.3125 35.2158 30.4375 32.4658 30.4375C25.5908 30.4375 27.5283 17.5625 18.2783 17.5625C13.6533 17.5625 10.4033 21 10.4033 25.5625V39.5H13.7158V32.0625L13.8408 32C14.9033 32.875 16.2783 33.4375 18.0283 33.4375C20.2783 33.4375 22.3408 32.625 23.7158 31L21.5908 28.75C20.5283 29.75 19.4033 30.3125 17.9658 30.3125C15.2783 30.25 13.5283 28.1875 13.5283 25.4375C13.5283 22.6875 15.3408 20.5625 18.0908 20.5625C24.9658 20.5625 23.0283 33.4375 32.2783 33.4375C36.9033 33.4375 40.1533 30 40.1533 25.4375V11.5625H36.8408Z" fill="white"/>
</g>
<defs>
<clipPath id="clip0_293_1781">
<rect width="200" height="50" fill="white" transform="translate(0.27832 0.5)"/>
</clipPath>
</defs>
</svg>
