<svg width="298" height="50" viewBox="0 0 298 50" fill="none" xmlns="http://www.w3.org/2000/svg">
<g clip-path="url(#clip0_296_1855)">
<path d="M189.107 19.2471C186.322 19.2471 183.715 21.0268 181.846 23.9099H181.757L182.407 19.6831H180.627C180.36 21.5963 179.968 24.1323 179.452 26.8641L175.27 49.1101H177.139L178.812 40.096H178.901C180.198 40.7394 181.636 41.0455 183.083 40.9859C189.739 40.9859 194.571 33.0663 194.571 26.0099C194.544 22.6018 193.049 19.2471 189.107 19.2471ZM183.234 39.3575C181.793 39.4169 180.371 39.0045 179.185 38.1829L180.538 31.0019C181.712 24.6929 185.583 20.9022 188.546 20.9022C191.51 20.9022 192.595 23.6874 192.595 26.1701C192.595 31.5091 188.76 39.3575 183.261 39.3575H183.234ZM196.51 34.7036C196.51 38.4409 198.424 41.0571 201.6 41.0571C204.341 41.0571 207.002 39.6155 209.395 35.0062H209.475C209.179 36.8642 209.006 38.74 208.959 40.621H210.783C210.746 37.4366 211.044 34.2571 211.673 31.1354L213.889 19.9056C212.524 19.4793 211.101 19.2721 209.671 19.2916C201.6 19.2471 196.51 27.5137 196.51 34.7036ZM210.258 28.9108C209.262 34.3121 205.427 39.402 202.036 39.402C199.207 39.402 198.424 36.9638 198.477 34.2231C198.521 27.6472 203.22 20.9467 209.226 20.9467C210.08 20.9044 210.934 21.0067 211.753 21.2493L210.258 28.9108ZM220.572 24.2569H220.492C220.75 22.4238 220.928 21.0357 221.052 19.6831H219.353C219.136 21.9765 218.804 24.2575 218.356 26.5171L215.686 40.5765H217.555L219.557 29.9519C220.447 25.387 223.473 21.2493 226.213 21.2493C226.446 21.233 226.679 21.248 226.907 21.2938L227.299 19.2916C227.085 19.2916 226.783 19.2471 226.516 19.2471C223.909 19.2471 221.835 21.4717 220.572 24.2569ZM233.092 39.313C231.784 39.313 231.223 38.5744 231.223 37.3553C231.249 36.1401 231.392 34.9303 231.65 33.7426L233.964 21.2849H238.876L239.223 19.6742H234.311L235.201 15.1094L233.118 15.928L232.415 19.6742H229.372L229.07 21.2849H232.068L229.719 33.7426C229.417 34.9962 229.256 36.2795 229.239 37.5689C229.182 38.3971 229.454 39.2142 229.995 39.8437C230.536 40.4731 231.303 40.8643 232.131 40.9325C232.314 40.9503 232.499 40.9503 232.682 40.9325C233.375 40.9255 234.064 40.8237 234.729 40.6299L234.587 39.1528C234.1 39.2849 233.595 39.339 233.092 39.313ZM251.04 19.2471C248.166 19.2471 245.558 20.9022 243.725 23.9455H243.636L244.25 19.6831H242.471C242.302 21.2938 242.035 23.3404 241.581 25.823L238.796 40.5765H240.664L242.711 29.4803C243.601 24.426 247.587 20.9467 250.372 20.9467C252.935 20.9467 253.807 22.5128 253.807 24.6929C253.795 25.7142 253.694 26.7326 253.505 27.7362L251.066 40.5765H252.935L255.338 27.7362C255.57 26.6773 255.701 25.5987 255.729 24.515C255.694 20.5552 253.086 19.2471 251.04 19.2471ZM268.925 19.2471C262.964 19.2471 258.737 27.1222 258.737 33.1286C258.737 37.1329 260.436 40.9681 265.313 40.9681C267.325 41.0044 269.305 40.4607 271.017 39.402L270.447 37.9159C268.999 38.8257 267.325 39.3098 265.615 39.313C264.559 39.344 263.525 39.0054 262.692 38.3556C261.858 37.7058 261.278 36.7856 261.05 35.7536C260.676 34.0376 260.615 32.2678 260.872 30.5303C267.706 30.5303 273.802 29.0887 273.802 23.7853C273.802 21.4717 272.36 19.2471 268.925 19.2471ZM271.844 23.9099C271.844 28.0387 266.621 28.9553 261.166 28.9108C262.474 24.3815 265.348 20.9022 268.57 20.9022C270.527 20.9022 271.835 21.9433 271.835 23.8654L271.844 23.9099ZM286.073 21.2938L286.464 19.2916C286.242 19.2916 285.939 19.2471 285.681 19.2471C283.065 19.2471 280.983 21.4717 279.719 24.2569H279.63C279.888 22.4238 280.066 21.0357 280.2 19.6831H278.473C278.295 21.5162 277.993 23.8654 277.468 26.5171L274.798 40.5765H276.694L278.696 29.9519C279.586 25.387 282.611 21.2493 285.361 21.2493C285.599 21.2327 285.838 21.2477 286.073 21.2938ZM293.948 20.9022C294.997 20.9308 296.02 21.2379 296.911 21.7921L297.605 20.1815C296.571 19.5581 295.377 19.249 294.17 19.2916C290.468 19.2916 287.808 21.9611 287.808 25.209C287.862 26.2746 288.185 27.309 288.749 28.2149C289.312 29.1209 290.097 29.8686 291.029 30.3879C292.987 31.6515 293.859 32.915 293.859 35.0062C293.854 36.1642 293.391 37.2732 292.57 38.0904C291.75 38.9076 290.639 39.3664 289.481 39.3664H289.249C287.939 39.3575 286.663 38.9476 285.592 38.1918L284.854 39.7579C286.097 40.6007 287.569 41.0417 289.071 41.0215C292.684 41.0215 295.772 38.7168 295.772 34.49C295.728 33.3947 295.412 32.3276 294.851 31.3858C294.29 30.4441 293.502 29.6575 292.56 29.0976C290.86 27.923 289.73 26.8285 289.73 24.8709C289.731 24.3486 289.835 23.8316 290.036 23.3494C290.237 22.8673 290.531 22.4295 290.901 22.0609C291.271 21.6924 291.711 21.4004 292.194 21.2016C292.677 21.0028 293.194 20.9011 293.716 20.9022H293.948Z" fill="#949FC5"/>
<path d="M34.6579 9.41446C34.6408 9.30999 34.5896 9.2141 34.5124 9.14169C34.4352 9.06928 34.3362 9.02441 34.2308 9.01404L30.5825 8.94285C30.5825 8.94285 27.6816 6.13096 27.3969 5.83732C27.2461 5.73848 27.0749 5.67513 26.8961 5.65201C26.7173 5.62889 26.5356 5.64661 26.3647 5.70384L24.9053 6.15766C24.7161 5.56657 24.4718 4.99457 24.1757 4.44917C23.1345 2.46483 21.6218 1.42372 19.7977 1.42372H19.4239L19.246 1.23685C18.8641 0.817854 18.3935 0.489381 17.8686 0.275398C17.3436 0.0614154 16.7775 -0.0326797 16.2116 -2.23492e-05C13.8535 0.0622663 11.4955 1.77965 9.59121 4.7962C8.25704 6.89407 7.34988 9.23454 6.92169 11.6836L2.33903 13.1518C0.968678 13.5789 0.924186 13.6234 0.746218 14.9315C0.559352 15.9103 -3 43.602 -3 43.602L27.0231 48.7364L39.997 45.5419L34.6579 9.41446ZM23.3659 6.62037L21.0256 7.34114C21.0354 5.87837 20.7946 4.42473 20.3138 3.04322C22.1379 3.36357 22.9833 5.41019 23.3926 6.60258L23.3659 6.62037ZM19.5307 7.81276L14.512 9.36108C14.9622 7.54819 15.8307 5.86595 17.0481 4.44917C17.5202 3.92072 18.0996 3.49905 18.7476 3.21229C19.3266 4.67439 19.5934 6.24144 19.5307 7.81276ZM16.3095 1.58389C16.8112 1.55939 17.3082 1.68988 17.7332 1.95762C17.0355 2.31336 16.406 2.78929 15.8735 3.36357C14.2706 5.21662 13.195 7.46621 12.759 9.87718L8.64798 11.1941C9.45773 7.39453 12.6345 1.69957 16.2828 1.58389H16.3095Z" fill="#949FC5"/>
<path d="M34.2662 9.01398L30.6179 8.94279C30.6179 8.94279 27.717 6.1309 27.4323 5.83726C27.3193 5.73288 27.1758 5.6674 27.0229 5.65039V48.7452L39.9968 45.5507L34.6578 9.41441C34.6425 9.31511 34.5966 9.22308 34.5264 9.15126C34.4561 9.07943 34.3652 9.03142 34.2662 9.01398Z" fill="#6C79A4"/>
<path d="M19.8152 15.7057L18.3025 21.3561C17.1368 20.8734 15.8788 20.6546 14.6186 20.7155C11.691 20.9023 11.6554 22.7532 11.691 23.2159C11.8423 25.7431 18.4982 26.2948 18.872 32.2122C19.1656 36.8749 16.3982 40.0605 12.4118 40.3097C11.0705 40.4268 9.71961 40.2633 8.44499 39.8298C7.17038 39.3962 5.99998 38.7021 5.0083 37.7915L6.02272 33.4846C6.02272 33.4846 8.69223 35.4779 10.7922 35.3444C11.2879 35.3327 11.7591 35.1264 12.1038 34.77C12.4485 34.4137 12.639 33.9359 12.6342 33.4402V33.3334C12.4207 30.041 7.01044 30.2367 6.6634 24.8176C6.37865 20.2705 9.37741 15.6345 15.9889 15.2163C17.2851 15.0691 18.5977 15.237 19.8152 15.7057Z" fill="white"/>
<path d="M57.669 27.7718C56.1563 26.9532 55.3821 26.2591 55.3821 25.3159C55.3821 24.1057 56.4588 23.3316 58.1406 23.3316C59.4165 23.3571 60.6747 23.6354 61.8423 24.1502L63.2216 19.9235C63.2216 19.9235 61.958 18.9358 58.2296 18.9358C53.0329 18.9358 49.438 21.9078 49.438 26.0545C49.438 28.4214 51.1198 30.2278 53.3533 31.527C55.133 32.5592 55.8092 33.3066 55.8092 34.3655C55.8092 35.4245 54.9194 36.3944 53.2287 36.3944C51.5321 36.3209 49.8715 35.8807 48.3613 35.1041L46.8931 39.3219C48.6771 40.3373 50.7051 40.8451 52.7571 40.7902C58.0961 40.7902 61.9313 38.1207 61.9313 33.4223C61.958 30.9486 59.9915 29.1066 57.669 27.7718ZM78.9539 18.8913C77.7309 18.8977 76.5256 19.1841 75.4304 19.7286C74.3353 20.2731 73.3794 21.0612 72.6361 22.0324H72.5471L74.8607 10.0908H68.9166L63.1326 40.4342H69.0767L71.07 30.0587C71.8441 26.1434 73.873 23.7231 75.7683 23.7231C77.1031 23.7231 77.6192 24.6129 77.6192 25.921C77.6173 26.817 77.5309 27.7108 77.3611 28.5905L75.1187 40.4787H81.0629L83.3942 28.199C83.6516 26.921 83.7945 25.6226 83.8213 24.3193C83.8213 20.9201 82.0595 18.8913 78.9539 18.8913ZM97.2668 18.8913C90.1481 18.8913 85.3786 25.3515 85.3786 32.5503C85.3786 37.1596 88.2171 40.8703 93.5651 40.8703C100.586 40.8703 105.329 34.5791 105.329 27.2112C105.329 22.94 102.828 18.8913 97.2668 18.8913ZM94.3392 36.2876C92.3104 36.2876 91.4473 34.5702 91.4473 32.4168C91.4473 29.0087 93.2269 23.4472 96.4482 23.4472C98.5571 23.4472 99.2511 25.2269 99.2511 27.0066C99.2511 30.6994 97.4804 36.2876 94.3392 36.2876ZM120.536 18.8913C116.523 18.8913 114.245 22.4506 114.245 22.4506H114.156L114.503 19.265H109.244C108.986 21.4184 108.514 24.693 108.043 27.149L103.905 48.9411H109.849L111.486 40.1584H111.62C112.694 40.7188 113.897 40.9858 115.108 40.9326C122.093 40.9326 126.676 33.8138 126.676 26.535C126.658 22.4684 124.887 18.8913 120.536 18.8913ZM114.85 36.3855C113.951 36.3923 113.08 36.0766 112.394 35.4956L113.382 29.9431C114.076 26.2324 116.051 23.7765 118.08 23.7765C119.86 23.7765 120.456 25.4583 120.456 27.0511C120.456 30.9486 118.169 36.3855 114.85 36.3855ZM135.147 10.3577C134.701 10.3565 134.259 10.4433 133.846 10.6131C133.433 10.7828 133.057 11.0322 132.741 11.347C132.425 11.6618 132.173 12.0359 132.001 12.4479C131.829 12.8598 131.74 13.3016 131.739 13.748V13.8103C131.68 14.5343 131.91 15.2524 132.378 15.8076C132.847 16.3628 133.516 16.71 134.24 16.7734H134.631C135.073 16.7901 135.514 16.7195 135.928 16.5657C136.343 16.4119 136.723 16.1779 137.047 15.8771C137.371 15.5762 137.632 15.2145 137.816 14.8125C138 14.4106 138.103 13.9762 138.119 13.5344V13.3476C138.158 12.5998 137.899 11.8671 137.399 11.31C136.898 10.7529 136.197 10.4169 135.45 10.3755L135.147 10.3577ZM126.827 40.4342H132.78L136.829 19.3629H130.84L126.827 40.4342ZM151.956 19.3184H147.819L148.032 18.3307C148.379 16.3018 149.58 14.4955 151.591 14.4955C152.235 14.4938 152.875 14.5959 153.487 14.798L154.652 10.1442C153.625 9.74294 152.524 9.56694 151.422 9.62805C149.306 9.56426 147.239 10.2692 145.603 11.6124C143.714 13.3886 142.495 15.7611 142.15 18.3307L141.981 19.3184H139.223L138.333 23.7676H141.091L137.95 40.3987H143.894L147.035 23.8299H151.138L151.956 19.3184ZM166.256 19.3807C166.256 19.3807 162.545 28.7507 160.917 33.8583H160.828C160.712 32.2121 159.369 19.3807 159.369 19.3807H153.14L156.699 38.7347C156.747 38.899 156.761 39.0716 156.74 39.2415C156.718 39.4114 156.662 39.5751 156.575 39.7224C155.793 41.1463 154.686 42.3657 153.344 43.2817C152.309 43.9996 151.176 44.5659 149.981 44.9635L151.618 50C153.796 49.4224 155.796 48.3124 157.438 46.7699C160.107 44.225 162.652 40.3097 165.233 34.9617L172.467 19.3807H166.256Z" fill="#949FC5"/>
</g>
<defs>
<clipPath id="clip0_296_1855">
<rect width="300.605" height="50" fill="white" transform="translate(-3)"/>
</clipPath>
</defs>
</svg>
