<svg width="66" height="66" viewBox="0 0 66 66" fill="none" xmlns="http://www.w3.org/2000/svg">
    <path d="M10.2417 34.2421C10.2417 33.4168 15.7838 27.6401 22.6203 27.6401C28.3972 25.9897 34.999 32.5916 34.999 34.2421V39.1935L33.3486 43.7323C30.8729 47.0333 27.9843 49.9217 22.6203 49.9217C17.2564 49.9217 13.9553 47.0333 11.8922 43.7323C9.82907 40.4314 10.2417 35.4799 10.2417 34.2421Z" fill="#B4E6D9"/>
    <path d="M64.6261 26.358V1.84814H1.98926V64.1539H64.7076V35.6882" stroke="#1C2135"/>
    <path d="M1.98926 44.1706C1.98926 44.1706 18.9067 14.4356 34.9989 33.4164C51.9163 54.4599 60.6721 35.8921 65.2109 35.8921" stroke="#1C2135" stroke-linejoin="round"/>
    <path d="M64.1406 25.8594C61.0728 25.8594 58.1061 34.6541 49.8537 34.6541C41.6013 34.6541 34.1741 19.7998 29.2227 19.7998" stroke="#1C2135" stroke-linejoin="round"/>
    <path d="M17.6689 25.1321C17.6689 22.1872 19.8858 19.7998 22.6204 19.7998C25.355 19.7998 27.5718 22.1872 27.5718 25.1321V37.5742C27.5718 40.5192 25.355 42.9066 22.6204 42.9066C19.8858 42.9066 17.6689 40.5192 17.6689 37.5742V25.1321Z" fill="#71BEDB"/>
    <path d="M34.9994 33.994V37.5425C34.9994 44.4018 29.4573 49.9624 22.6208 49.9624M10.2422 33.994V37.5425C10.2422 44.4018 15.7843 49.9624 22.6208 49.9624M22.6208 49.9624V56.9357M15.5473 56.9357H29.6943M22.6208 42.8653C19.6909 42.8653 17.3157 40.4822 17.3157 37.5425V25.1226C17.3157 22.1829 19.6909 19.7998 22.6208 19.7998C25.5507 19.7998 27.9259 22.1829 27.9259 25.1226V37.5425C27.9259 40.4822 25.5507 42.8653 22.6208 42.8653Z" stroke="#1C2135" stroke-linecap="square"/>
    </svg>
    