<svg width="66" height="66" viewBox="0 0 66 66" fill="none" xmlns="http://www.w3.org/2000/svg">
    <path d="M1.90039 64.3779C8.68918 64.0906 31.8264 52.74 45.9583 52.74C60.0901 52.74 65.0777 63.131 65.0777 63.9623" stroke="#1C2135"/>
    <path d="M45.9896 56C56.9896 57 60.8228 60.6667 62.9895 63C59.9893 62 57.9893 60.5 46.9895 60C35.9896 59.5 9.48945 64 10.4895 63C11.4895 62 38.0225 55.2757 45.9896 56Z" fill="#71BEDB"/>
    <path d="M45.9896 60C57.035 60 62.2646 62.1187 64.4312 64.452C61.2399 64.452 58.194 63.9999 46.9895 63.9999C35.785 63.9999 8.64605 64.9999 9.64605 63.9999C10.646 62.9999 40.6482 60 45.9896 60Z" fill="#B4E6D9"/>
    <path d="M1.90039 64.378C8.68918 64.0907 31.8265 56.0652 45.5426 56.0652C59.2588 56.0652 65.0777 64.6396 65.0777 64.378" stroke="#1C2135"/>
    <path d="M1.90039 64.3778C8.68918 64.1546 32.2421 60.2214 45.9583 60.2214C59.6744 60.2214 64.6621 64.1655 64.6621 63.9622" stroke="#1C2135"/>
    <path d="M38.0611 1.61621H1.90039V64.3779H65.0777V28.4741" stroke="#1C2135"/>
    <path d="M65.0778 29.0485C65.0778 13.8981 54.6868 1.61621 37.6455 1.61621" stroke="#1C2135"/>
    <line x1="12.4893" y1="12.5" x2="20.4893" y2="12.5" stroke="#1C2135" stroke-linecap="round"/>
    <line x1="23.4893" y1="12.5" x2="26.4893" y2="12.5" stroke="#71BEDB" stroke-linecap="round"/>
    <line x1="29.4893" y1="12.5" x2="35.4893" y2="12.5" stroke="#108CB9" stroke-linecap="round"/>
    <line x1="12.4893" y1="28.5" x2="20.4893" y2="28.5" stroke="#108CB9" stroke-linecap="round"/>
    <line x1="24.4893" y1="28.5" x2="47.4893" y2="28.5" stroke="#1C2135" stroke-linecap="round"/>
    <line x1="12.4893" y1="36.5" x2="47.4893" y2="36.5" stroke="#1C2135" stroke-linecap="round"/>
    <line x1="21.4893" y1="20.5" x2="27.4893" y2="20.5" stroke="#1C2135" stroke-linecap="round"/>
    <line x1="30.4893" y1="20.5" x2="39.4893" y2="20.5" stroke="#71BEDB" stroke-linecap="round"/>
    <line x1="12.4893" y1="20.5" x2="18.4893" y2="20.5" stroke="#71BEDB" stroke-linecap="round"/>
    <line x1="21.4893" y1="44.5" x2="27.4893" y2="44.5" stroke="#1C2135" stroke-linecap="round"/>
    <line x1="30.4893" y1="44.5" x2="39.4893" y2="44.5" stroke="#6559A2" stroke-linecap="round"/>
    <line x1="12.4893" y1="44.5" x2="18.4893" y2="44.5" stroke="#6559A2" stroke-linecap="round"/>
    </svg>
    