<svg viewBox="0 0 43 40" fill="none" xmlns="http://www.w3.org/2000/svg">
<path fill-rule="evenodd" clip-rule="evenodd" d="M21.5057 0.501709L26.0843 3.02453L25.936 3.29244L21.3574 0.769614L21.5057 0.501709Z" fill="#108CB9"/>
<path d="M21.4455 1.22418C21.7843 1.22418 22.059 0.950136 22.059 0.612089C22.059 0.274041 21.7843 0 21.4455 0C21.1067 0 20.832 0.274041 20.832 0.612089C20.832 0.950136 21.1067 1.22418 21.4455 1.22418Z" fill="#108CB9"/>
<path d="M26.01 3.77056C26.3488 3.77056 26.6234 3.49652 26.6234 3.15848C26.6234 2.82043 26.3488 2.54639 26.01 2.54639C25.6711 2.54639 25.3965 2.82043 25.3965 3.15848C25.3965 3.49652 25.6711 3.77056 26.01 3.77056Z" fill="#108CB9"/>
<path fill-rule="evenodd" clip-rule="evenodd" d="M21.5068 0.769036L16.9271 3.32553L16.7773 3.05844L21.357 0.501953L21.5068 0.769036Z" fill="#108CB9"/>
<path d="M16.8518 3.77056C17.1906 3.77056 17.4652 3.49652 17.4652 3.15848C17.4652 2.82043 17.1906 2.54639 16.8518 2.54639C16.5129 2.54639 16.2383 2.82043 16.2383 3.15848C16.2383 3.49652 16.5129 3.77056 16.8518 3.77056Z" fill="#108CB9"/>
<path fill-rule="evenodd" clip-rule="evenodd" d="M21.3574 39.2306L25.936 36.7068L26.0844 36.9747L21.5058 39.4985L21.3574 39.2306Z" fill="#108CB9"/>
<path d="M21.4455 40.0001C21.7843 40.0001 22.059 39.726 22.059 39.388C22.059 39.0499 21.7843 38.7759 21.4455 38.7759C21.1067 38.7759 20.832 39.0499 20.832 39.388C20.832 39.726 21.1067 40.0001 21.4455 40.0001Z" fill="#108CB9"/>
<path d="M26.01 37.4527C26.3488 37.4527 26.6234 37.1787 26.6234 36.8406C26.6234 36.5026 26.3488 36.2285 26.01 36.2285C25.6711 36.2285 25.3965 36.5026 25.3965 36.8406C25.3965 37.1787 25.6711 37.4527 26.01 37.4527Z" fill="#108CB9"/>
<path fill-rule="evenodd" clip-rule="evenodd" d="M21.357 39.4979L16.7773 36.9414L16.9271 36.6743L21.5068 39.2308L21.357 39.4979Z" fill="#108CB9"/>
<path d="M16.8518 37.4527C17.1906 37.4527 17.4652 37.1787 17.4652 36.8406C17.4652 36.5026 17.1906 36.2285 16.8518 36.2285C16.5129 36.2285 16.2383 36.5026 16.2383 36.8406C16.2383 37.1787 16.5129 37.4527 16.8518 37.4527Z" fill="#108CB9"/>
<path fill-rule="evenodd" clip-rule="evenodd" d="M4.52051 10.2267L8.99381 7.52026L9.15286 7.78195L4.67956 10.4884L4.52051 10.2267Z" fill="#108CB9"/>
<path d="M4.58711 10.9451C4.92593 10.9451 5.2006 10.6711 5.2006 10.333C5.2006 9.99499 4.92593 9.72095 4.58711 9.72095C4.2483 9.72095 3.97363 9.99499 3.97363 10.333C3.97363 10.6711 4.2483 10.9451 4.58711 10.9451Z" fill="#108CB9"/>
<path d="M1.05098 8.91925C1.3898 8.91925 1.66446 8.6452 1.66446 8.30716C1.66446 7.96911 1.3898 7.69507 1.05098 7.69507C0.712165 7.69507 0.4375 7.96911 0.4375 8.30716C0.4375 8.6452 0.712165 8.91925 1.05098 8.91925Z" fill="#108CB9"/>
<path d="M9.07344 8.26324C9.41226 8.26324 9.68693 7.9892 9.68693 7.65115C9.68693 7.3131 9.41226 7.03906 9.07344 7.03906C8.73463 7.03906 8.45996 7.3131 8.45996 7.65115C8.45996 7.9892 8.73463 8.26324 9.07344 8.26324Z" fill="#108CB9"/>
<path fill-rule="evenodd" clip-rule="evenodd" d="M4.75372 10.3594L4.69442 15.5938L4.3877 15.5903L4.447 10.356L4.75372 10.3594Z" fill="#108CB9"/>
<path d="M4.51192 16.1878C4.85074 16.1878 5.1254 15.9138 5.1254 15.5757C5.1254 15.2377 4.85074 14.9636 4.51192 14.9636C4.1731 14.9636 3.89844 15.2377 3.89844 15.5757C3.89844 15.9138 4.1731 16.1878 4.51192 16.1878Z" fill="#108CB9"/>
<path fill-rule="evenodd" clip-rule="evenodd" d="M1.01896 8.12964L4.67634 10.225L4.52359 10.4904L0.866211 8.39504L1.01896 8.12964Z" fill="#108CB9"/>
<path fill-rule="evenodd" clip-rule="evenodd" d="M38.1074 29.6399L38.1954 24.4219L38.5021 24.427L38.4141 29.6451L38.1074 29.6399Z" fill="#108CB9"/>
<path d="M38.2883 30.2545C38.6271 30.2545 38.9018 29.9804 38.9018 29.6424C38.9018 29.3043 38.6271 29.0303 38.2883 29.0303C37.9495 29.0303 37.6748 29.3043 37.6748 29.6424C37.6748 29.9804 37.9495 30.2545 38.2883 30.2545Z" fill="#108CB9"/>
<path d="M41.8234 32.2796C42.1623 32.2796 42.4369 32.0056 42.4369 31.6675C42.4369 31.3295 42.1623 31.0554 41.8234 31.0554C41.4846 31.0554 41.21 31.3295 41.21 31.6675C41.21 32.0056 41.4846 32.2796 41.8234 32.2796Z" fill="#108CB9"/>
<path d="M38.3488 25.0364C38.6877 25.0364 38.9623 24.7624 38.9623 24.4243C38.9623 24.0863 38.6877 23.8123 38.3488 23.8123C38.01 23.8123 37.7354 24.0863 37.7354 24.4243C37.7354 24.7624 38.01 25.0364 38.3488 25.0364Z" fill="#108CB9"/>
<path fill-rule="evenodd" clip-rule="evenodd" d="M38.3392 29.7738L33.8372 32.4629L33.6797 32.2003L38.1816 29.5112L38.3392 29.7738Z" fill="#108CB9"/>
<path d="M33.7873 32.961C34.1261 32.961 34.4008 32.687 34.4008 32.3489C34.4008 32.0109 34.1261 31.7368 33.7873 31.7368C33.4485 31.7368 33.1738 32.0109 33.1738 32.3489C33.1738 32.687 33.4485 32.961 33.7873 32.961Z" fill="#108CB9"/>
<path fill-rule="evenodd" clip-rule="evenodd" d="M41.8419 31.8706L38.1846 29.7752L38.3373 29.5098L41.9947 31.6052L41.8419 31.8706Z" fill="#108CB9"/>
<path fill-rule="evenodd" clip-rule="evenodd" d="M4.48622 29.7128L4.37988 24.4947L4.68656 24.4885L4.7929 29.7066L4.48622 29.7128Z" fill="#108CB9"/>
<path d="M4.61153 30.3218C4.95035 30.3218 5.22501 30.0478 5.22501 29.7097C5.22501 29.3717 4.95035 29.0977 4.61153 29.0977C4.27271 29.0977 3.99805 29.3717 3.99805 29.7097C3.99805 30.0478 4.27271 30.3218 4.61153 30.3218Z" fill="#108CB9"/>
<path d="M1.08419 32.3602C1.423 32.3602 1.69767 32.0861 1.69767 31.7481C1.69767 31.41 1.423 31.136 1.08419 31.136C0.745368 31.136 0.470703 31.41 0.470703 31.7481C0.470703 32.0861 0.745368 32.3602 1.08419 32.3602Z" fill="#108CB9"/>
<path d="M4.5334 25.1038C4.87222 25.1038 5.14689 24.8298 5.14689 24.4917C5.14689 24.1537 4.87222 23.8796 4.5334 23.8796C4.19459 23.8796 3.91992 24.1537 3.91992 24.4917C3.91992 24.8298 4.19459 25.1038 4.5334 25.1038Z" fill="#108CB9"/>
<path fill-rule="evenodd" clip-rule="evenodd" d="M4.71717 29.5781L9.2283 32.2509L9.07168 32.5141L4.56055 29.8413L4.71717 29.5781Z" fill="#108CB9"/>
<path d="M9.12227 33.012C9.46109 33.012 9.73575 32.738 9.73575 32.3999C9.73575 32.0619 9.46109 31.7878 9.12227 31.7878C8.78345 31.7878 8.50879 32.0619 8.50879 32.3999C8.50879 32.738 8.78345 33.012 9.12227 33.012Z" fill="#108CB9"/>
<path fill-rule="evenodd" clip-rule="evenodd" d="M0.913086 31.686L4.56228 29.5774L4.71601 29.8422L1.06682 31.9509L0.913086 31.686Z" fill="#108CB9"/>
<path fill-rule="evenodd" clip-rule="evenodd" d="M38.1505 10.4326L33.668 7.74348L33.826 7.4812L38.3085 10.1703L38.1505 10.4326Z" fill="#108CB9"/>
<path d="M38.2434 10.8899C38.5822 10.8899 38.8568 10.6159 38.8568 10.2779C38.8568 9.93981 38.5822 9.66577 38.2434 9.66577C37.9045 9.66577 37.6299 9.93981 37.6299 10.2779C37.6299 10.6159 37.9045 10.8899 38.2434 10.8899Z" fill="#108CB9"/>
<path d="M41.7717 8.85186C42.1105 8.85186 42.3852 8.57782 42.3852 8.23977C42.3852 7.90173 42.1105 7.62769 41.7717 7.62769C41.4329 7.62769 41.1582 7.90173 41.1582 8.23977C41.1582 8.57782 41.4329 8.85186 41.7717 8.85186Z" fill="#108CB9"/>
<path d="M33.7473 8.22442C34.0861 8.22442 34.3608 7.95038 34.3608 7.61233C34.3608 7.27429 34.0861 7.00024 33.7473 7.00024C33.4085 7.00024 33.1338 7.27429 33.1338 7.61233C33.1338 7.95038 33.4085 8.22442 33.7473 8.22442Z" fill="#108CB9"/>
<path fill-rule="evenodd" clip-rule="evenodd" d="M38.3829 10.2991L38.4606 15.5345L38.1539 15.539L38.0762 10.3036L38.3829 10.2991Z" fill="#108CB9"/>
<path d="M38.3361 16.1316C38.675 16.1316 38.9496 15.8576 38.9496 15.5196C38.9496 15.1815 38.675 14.9075 38.3361 14.9075C37.9973 14.9075 37.7227 15.1815 37.7227 15.5196C37.7227 15.8576 37.9973 16.1316 38.3361 16.1316Z" fill="#108CB9"/>
<path fill-rule="evenodd" clip-rule="evenodd" d="M41.9562 8.32615L38.307 10.4338L38.1533 10.1689L41.8025 8.06128L41.9562 8.32615Z" fill="#108CB9"/>
<path d="M26.0717 11.3073L21.4123 8.62329L16.7529 11.3073L21.4123 13.9913L26.0717 11.3073Z" fill="#9589EA"/>
<path d="M21.4123 19.3594V13.9914L16.7529 11.3074V16.6754L21.4123 19.3594Z" fill="#6559A2"/>
<path d="M21.4121 19.3594V13.9914L26.0715 11.3074V16.6754L21.4121 19.3594Z" fill="#6559A2"/>
<path d="M21.412 8.50586L16.6504 11.249V16.7344L21.412 19.4776L26.1737 16.7344V11.249L21.412 8.50586ZM25.8669 11.3072L21.412 13.8739L16.9571 11.3082L21.412 8.74151L25.8669 11.3082V11.3072ZM16.8549 11.4837L21.3098 14.0493V19.1817L16.8549 16.615V11.4827V11.4837ZM21.5143 19.1817V14.0493L25.9692 11.4827V16.615L21.5143 19.1817Z" fill="#1C2135"/>
<path d="M20.9594 20.2846L16.3 17.6006L11.6406 20.2846L16.3 22.9686L20.9594 20.2846Z" fill="#6559A2"/>
<path d="M16.3 28.3367V22.9687L11.6406 20.2847V25.6527L16.3 28.3367Z" fill="#9589EA"/>
<path d="M16.2998 28.3367V22.9687L20.9592 20.2847V25.6527L16.2998 28.3367Z" fill="#6559A2"/>
<path d="M16.2997 17.4832L11.5381 20.2263V25.7117L16.2997 28.4548L21.0614 25.7117V20.2263L16.2997 17.4832ZM20.7546 20.2845L16.2997 22.8512L11.8448 20.2855L16.2997 17.7188L20.7546 20.2855V20.2845ZM11.7426 20.461L16.1975 23.0266V28.159L11.7426 25.5923V20.4599V20.461ZM16.402 28.159V23.0266L20.8569 20.4599V25.5923L16.402 28.159Z" fill="#1C2135"/>
<path d="M31.184 20.2846L26.5246 17.6006L21.8652 20.2846L26.5246 22.9686L31.184 20.2846Z" fill="#6559A2"/>
<path d="M26.5246 28.3367V22.9687L21.8652 20.2847V25.6527L26.5246 28.3367Z" fill="#6559A2"/>
<path d="M26.5244 28.3367V22.9687L31.1838 20.2847V25.6527L26.5244 28.3367Z" fill="#9589EA"/>
<path d="M26.5253 17.4832L21.7637 20.2263V25.7117L26.5253 28.4548L31.287 25.7117V20.2263L26.5253 17.4832ZM30.9802 20.2845L26.5253 22.8512L22.0704 20.2855L26.5253 17.7188L30.9802 20.2855V20.2845ZM21.9682 20.461L26.4231 23.0266V28.159L21.9682 25.5933V20.461ZM26.6276 28.16V23.0277L31.0825 20.461V25.5933L26.6276 28.16Z" fill="#1C2135"/>
<path d="M31.184 14.3676L26.5246 11.6836L21.8652 14.3676L26.5246 17.0516L31.184 14.3676Z" fill="#9589EA"/>
<path d="M26.5246 22.4197V17.0517L21.8652 14.3677V19.7357L26.5246 22.4197Z" fill="#6559A2"/>
<path d="M26.5244 22.4197V17.0517L31.1838 14.3677V19.7357L26.5244 22.4197Z" fill="#9589EA"/>
<path d="M26.5253 11.5664L21.7637 14.3096V19.7949L26.5253 22.5381L31.287 19.7949V14.3096L26.5253 11.5664ZM30.9802 14.3677L26.5253 16.9344L22.0704 14.3688L26.5253 11.8021L30.9802 14.3688V14.3677ZM21.9682 14.5442L26.4231 17.1099V22.2423L21.9682 19.6766V14.5442ZM26.6276 22.2433V17.1109L31.0825 14.5442V19.6766L26.6276 22.2433Z" fill="#1C2135"/>
<path d="M20.9594 14.3676L16.3 11.6836L11.6406 14.3676L16.3 17.0516L20.9594 14.3676Z" fill="#9589EA"/>
<path d="M16.3 22.4197V17.0517L11.6406 14.3677V19.7357L16.3 22.4197Z" fill="#9589EA"/>
<path d="M16.2998 22.4197V17.0517L20.9592 14.3677V19.7357L16.2998 22.4197Z" fill="#6559A2"/>
<path d="M16.2997 11.5664L11.5381 14.3096V19.7949L16.2997 22.5381L21.0614 19.7949V14.3096L16.2997 11.5664ZM20.7546 14.3677L16.2997 16.9344L11.8448 14.3688L16.2997 11.8021L20.7546 14.3688V14.3677ZM11.7426 14.5442L16.1975 17.1099V22.2423L11.7426 19.6756V14.5432V14.5442ZM16.402 22.2423V17.1099L20.8569 14.5432V19.6756L16.402 22.2423Z" fill="#1C2135"/>
<path d="M26.0717 23.2428L21.4123 20.5588L16.7529 23.2428L21.4123 25.9269L26.0717 23.2428Z" fill="#6559A2"/>
<path d="M21.4123 31.2949V25.9269L16.7529 23.2429V28.6109L21.4123 31.2949Z" fill="#9589EA"/>
<path d="M21.4121 31.2949V25.9269L26.0715 23.2429V28.6109L21.4121 31.2949Z" fill="#9589EA"/>
<path d="M21.412 20.4417L16.6504 23.1848V28.6702L21.412 31.4133L26.1737 28.6702V23.1848L21.412 20.4417ZM25.8669 23.243L21.412 25.8097L16.9571 23.244L21.412 20.6773L25.8669 23.244V23.243ZM16.8549 23.4195L21.3098 25.9851V31.1175L16.8549 28.5518V23.4195ZM21.5143 31.1185V25.9862L25.9692 23.4195V28.5518L21.5143 31.1185Z" fill="#1C2135"/>
<path d="M26.0717 17.4282L21.4123 14.7441L16.7529 17.4282L21.4123 20.1122L26.0717 17.4282Z" fill="#9589EA"/>
<path d="M21.4123 25.4803V20.1122L16.7529 17.4282V22.7962L21.4123 25.4803Z" fill="#9589EA"/>
<path d="M21.4121 25.4803V20.1122L26.0715 17.4282V22.7962L21.4121 25.4803Z" fill="#9589EA"/>
<path d="M21.412 25.5984L16.6504 22.8552V17.3699L21.412 14.6267L26.1737 17.3699V22.8552L21.412 25.5984ZM16.8549 22.7379L21.412 25.3627L25.9692 22.7379V17.4872L21.412 14.8624L16.8549 17.4872V22.7369V22.7379Z" fill="#1C2135"/>
<path d="M16.8054 17.3423L16.7031 17.519L21.3625 20.2031L21.4648 20.0264L16.8054 17.3423Z" fill="#1C2135"/>
<path d="M26.0241 17.3507L21.3643 20.0339L21.4665 20.2106L26.1264 17.5275L26.0241 17.3507Z" fill="#1C2135"/>
<path d="M21.5141 20.1121H21.3096V25.4801H21.5141V20.1121Z" fill="#1C2135"/>
<path d="M36.2039 11.2636L21.6357 2.87183V8.17252L31.6028 13.9139L36.2039 11.2636Z" fill="#71BEDB"/>
<path d="M21.8402 3.2246L35.7959 11.2634L31.6038 13.6781L21.8402 8.05398V3.2246ZM21.6357 2.87163V8.17231L31.6038 13.9137L36.2049 11.2634L21.6357 2.87061V2.87163Z" fill="#1C2135"/>
<path d="M11.23 13.93L21.2267 8.17227V2.87158L6.62891 11.2796L11.23 13.93Z" fill="#71BEDB"/>
<path d="M21.0222 3.22455V8.05393L11.231 13.6943L7.03887 11.2796L21.0222 3.22455ZM21.2267 2.87158L6.62988 11.2796L11.231 13.93L21.2267 8.17227V2.87158Z" fill="#1C2135"/>
<path d="M31.7988 14.2717V25.779L36.3999 28.4293V11.6213L31.7988 14.2717Z" fill="#71BEDB"/>
<path d="M36.1954 11.9753V28.0763L32.0033 25.6616V14.39L36.1954 11.9753ZM36.3999 11.6224L31.7988 14.2727V25.779L36.3999 28.4293V11.6213V11.6224Z" fill="#1C2135"/>
<path d="M11.0621 14.3044L6.46094 11.6541V28.3967L11.0621 25.7464V14.3044Z" fill="#71BEDB"/>
<path d="M6.66543 12.007L10.8576 14.4217V25.628L6.66543 28.0427V12.007ZM6.46094 11.6541V28.3967L11.0621 25.7464V14.3044L6.46094 11.6541Z" fill="#1C2135"/>
<path d="M6.67383 28.7456L21.2266 37.1281V31.8274L11.2749 26.0952L6.67383 28.7456Z" fill="#71BEDB"/>
<path d="M11.2749 26.3309L21.0221 31.9458V36.7751L7.08282 28.7456L11.2749 26.3309ZM11.2749 26.0952L6.67383 28.7456L21.2266 37.1281V31.8274L11.2749 26.0952Z" fill="#1C2135"/>
<path d="M21.6357 31.8275V37.1282L36.1599 28.7619L31.5588 26.1116L21.6357 31.8275Z" fill="#71BEDB"/>
<path d="M31.5589 26.3472L35.751 28.7619L21.8393 36.7752V31.9458L31.5589 26.3472ZM31.5589 26.1116L21.6348 31.8285V37.1292L36.16 28.7619L31.5589 26.1116Z" fill="#1C2135"/>
<path d="M26.0717 17.4282L21.4123 14.7441L16.7529 17.4282L21.4123 20.1122L26.0717 17.4282Z" fill="#9589EA"/>
<path d="M21.4123 25.4803V20.1122L16.7529 17.4282V22.7962L21.4123 25.4803Z" fill="#9589EA"/>
<path d="M21.4121 25.4803V20.1122L26.0715 17.4282V22.7962L21.4121 25.4803Z" fill="#9589EA"/>
<path d="M21.412 14.6267L16.6504 17.3699V22.8552L21.412 25.5984L26.1737 22.8552V17.3699L21.412 14.6267ZM25.8669 17.428L21.412 19.9947L16.9571 17.4291L21.412 14.8624L25.8669 17.4291V17.428ZM16.8549 17.6045L21.3098 20.1702V25.3026L16.8549 22.7359V17.6035V17.6045ZM21.5143 25.3026V20.1702L25.9692 17.6035V22.7359L21.5143 25.3026Z" fill="#1C2135"/>
</svg>
